%TF.GenerationSoftware,KiCad,Pcbnew,9.0.6*%
%TF.CreationDate,2026-03-07T16:21:01-05:00*%
%TF.ProjectId,Matrix,4d617472-6978-42e6-9b69-6361645f7063,rev?*%
%TF.SameCoordinates,Original*%
%TF.FileFunction,Soldermask,Top*%
%TF.FilePolarity,Negative*%
%FSLAX46Y46*%
G04 Gerber Fmt 4.6, Leading zero omitted, Abs format (unit mm)*
G04 Created by KiCad (PCBNEW 9.0.6) date 2026-03-07 16:21:01*
%MOMM*%
%LPD*%
G01*
G04 APERTURE LIST*
G04 Aperture macros list*
%AMRoundRect*
0 Rectangle with rounded corners*
0 $1 Rounding radius*
0 $2 $3 $4 $5 $6 $7 $8 $9 X,Y pos of 4 corners*
0 Add a 4 corners polygon primitive as box body*
4,1,4,$2,$3,$4,$5,$6,$7,$8,$9,$2,$3,0*
0 Add four circle primitives for the rounded corners*
1,1,$1+$1,$2,$3*
1,1,$1+$1,$4,$5*
1,1,$1+$1,$6,$7*
1,1,$1+$1,$8,$9*
0 Add four rect primitives between the rounded corners*
20,1,$1+$1,$2,$3,$4,$5,0*
20,1,$1+$1,$4,$5,$6,$7,0*
20,1,$1+$1,$6,$7,$8,$9,0*
20,1,$1+$1,$8,$9,$2,$3,0*%
G04 Aperture macros list end*
%ADD10RoundRect,0.200000X0.200000X-0.500000X0.200000X0.500000X-0.200000X0.500000X-0.200000X-0.500000X0*%
%ADD11RoundRect,0.250000X-0.337500X-0.475000X0.337500X-0.475000X0.337500X0.475000X-0.337500X0.475000X0*%
%ADD12RoundRect,0.200000X0.750000X0.200000X-0.750000X0.200000X-0.750000X-0.200000X0.750000X-0.200000X0*%
%ADD13RoundRect,0.250000X0.350000X0.450000X-0.350000X0.450000X-0.350000X-0.450000X0.350000X-0.450000X0*%
%ADD14RoundRect,0.250000X-0.450000X0.325000X-0.450000X-0.325000X0.450000X-0.325000X0.450000X0.325000X0*%
%ADD15RoundRect,0.250000X0.450000X-0.350000X0.450000X0.350000X-0.450000X0.350000X-0.450000X-0.350000X0*%
%ADD16R,1.700000X1.700000*%
%ADD17C,1.700000*%
%ADD18RoundRect,0.250000X-0.450000X0.350000X-0.450000X-0.350000X0.450000X-0.350000X0.450000X0.350000X0*%
%ADD19RoundRect,0.093750X0.093750X0.106250X-0.093750X0.106250X-0.093750X-0.106250X0.093750X-0.106250X0*%
%ADD20R,1.000000X1.600000*%
%ADD21RoundRect,0.250000X0.337500X0.475000X-0.337500X0.475000X-0.337500X-0.475000X0.337500X-0.475000X0*%
%ADD22RoundRect,0.237500X0.237500X-0.287500X0.237500X0.287500X-0.237500X0.287500X-0.237500X-0.287500X0*%
%ADD23RoundRect,0.237500X-0.237500X0.287500X-0.237500X-0.287500X0.237500X-0.287500X0.237500X0.287500X0*%
%ADD24RoundRect,0.250000X0.475000X-0.337500X0.475000X0.337500X-0.475000X0.337500X-0.475000X-0.337500X0*%
%ADD25RoundRect,0.150000X-0.150000X0.825000X-0.150000X-0.825000X0.150000X-0.825000X0.150000X0.825000X0*%
%ADD26RoundRect,0.250000X-0.325000X-0.450000X0.325000X-0.450000X0.325000X0.450000X-0.325000X0.450000X0*%
%ADD27RoundRect,0.250001X-0.462499X-0.624999X0.462499X-0.624999X0.462499X0.624999X-0.462499X0.624999X0*%
%ADD28R,2.400000X6.170000*%
%ADD29R,1.100000X0.400000*%
%ADD30RoundRect,0.250000X-0.350000X-0.450000X0.350000X-0.450000X0.350000X0.450000X-0.350000X0.450000X0*%
%ADD31RoundRect,0.250000X-0.475000X0.337500X-0.475000X-0.337500X0.475000X-0.337500X0.475000X0.337500X0*%
%ADD32RoundRect,0.250000X0.450000X-0.325000X0.450000X0.325000X-0.450000X0.325000X-0.450000X-0.325000X0*%
%ADD33C,3.000000*%
%ADD34R,1.500000X0.900000*%
%ADD35R,0.900000X1.500000*%
%ADD36C,0.600000*%
%ADD37R,3.900000X3.900000*%
%ADD38RoundRect,0.250000X-0.800000X-0.450000X0.800000X-0.450000X0.800000X0.450000X-0.800000X0.450000X0*%
%ADD39C,0.650000*%
%ADD40RoundRect,0.150000X0.425000X-0.150000X0.425000X0.150000X-0.425000X0.150000X-0.425000X-0.150000X0*%
%ADD41RoundRect,0.075000X0.500000X-0.075000X0.500000X0.075000X-0.500000X0.075000X-0.500000X-0.075000X0*%
%ADD42O,2.100000X1.000000*%
%ADD43O,1.800000X1.000000*%
%ADD44RoundRect,0.162500X0.837500X0.162500X-0.837500X0.162500X-0.837500X-0.162500X0.837500X-0.162500X0*%
%ADD45RoundRect,0.150000X-0.875000X-0.150000X0.875000X-0.150000X0.875000X0.150000X-0.875000X0.150000X0*%
%ADD46RoundRect,0.250000X-0.450000X0.800000X-0.450000X-0.800000X0.450000X-0.800000X0.450000X0.800000X0*%
%ADD47RoundRect,0.250000X-0.550000X1.500000X-0.550000X-1.500000X0.550000X-1.500000X0.550000X1.500000X0*%
%ADD48RoundRect,0.236111X-0.613889X1.013889X-0.613889X-1.013889X0.613889X-1.013889X0.613889X1.013889X0*%
%ADD49RoundRect,0.200000X0.200000X-0.750000X0.200000X0.750000X-0.200000X0.750000X-0.200000X-0.750000X0*%
G04 APERTURE END LIST*
D10*
%TO.C,D113*%
X97100000Y-64000000D03*
X98200000Y-64000000D03*
X98200000Y-61750000D03*
X97100000Y-61750000D03*
%TD*%
%TO.C,D205*%
X122100000Y-124000000D03*
X123200000Y-124000000D03*
X123200000Y-121750000D03*
X122100000Y-121750000D03*
%TD*%
%TO.C,D415*%
X187100000Y-134000000D03*
X188200000Y-134000000D03*
X188200000Y-131750000D03*
X187100000Y-131750000D03*
%TD*%
%TO.C,D280*%
X147100000Y-99000000D03*
X148200000Y-99000000D03*
X148200000Y-96750000D03*
X147100000Y-96750000D03*
%TD*%
%TO.C,D185*%
X117100000Y-104000000D03*
X118200000Y-104000000D03*
X118200000Y-101750000D03*
X117100000Y-101750000D03*
%TD*%
D11*
%TO.C,C18*%
X243962500Y-122775000D03*
X246037500Y-122775000D03*
%TD*%
D10*
%TO.C,D3*%
X62100000Y-74000000D03*
X63200000Y-74000000D03*
X63200000Y-71750000D03*
X62100000Y-71750000D03*
%TD*%
D12*
%TO.C,Q11*%
X222375000Y-110350000D03*
X225375000Y-111300000D03*
X225375000Y-109400000D03*
%TD*%
D10*
%TO.C,D294*%
X152100000Y-89000000D03*
X153200000Y-89000000D03*
X153200000Y-86750000D03*
X152100000Y-86750000D03*
%TD*%
%TO.C,D27*%
X67100000Y-114000000D03*
X68200000Y-114000000D03*
X68200000Y-111750000D03*
X67100000Y-111750000D03*
%TD*%
%TO.C,D106*%
X92100000Y-109000000D03*
X93200000Y-109000000D03*
X93200000Y-106750000D03*
X92100000Y-106750000D03*
%TD*%
%TO.C,D485*%
X212100000Y-84000000D03*
X213200000Y-84000000D03*
X213200000Y-81750000D03*
X212100000Y-81750000D03*
%TD*%
%TO.C,D402*%
X187100000Y-69000000D03*
X188200000Y-69000000D03*
X188200000Y-66750000D03*
X187100000Y-66750000D03*
%TD*%
%TO.C,D424*%
X192100000Y-99000000D03*
X193200000Y-99000000D03*
X193200000Y-96750000D03*
X192100000Y-96750000D03*
%TD*%
D13*
%TO.C,R14*%
X164300000Y-35150000D03*
X162300000Y-35150000D03*
%TD*%
D12*
%TO.C,Q5*%
X222375000Y-80350000D03*
X225375000Y-81300000D03*
X225375000Y-79400000D03*
%TD*%
D10*
%TO.C,D117*%
X97100000Y-84000000D03*
X98200000Y-84000000D03*
X98200000Y-81750000D03*
X97100000Y-81750000D03*
%TD*%
%TO.C,D381*%
X177100000Y-124000000D03*
X178200000Y-124000000D03*
X178200000Y-121750000D03*
X177100000Y-121750000D03*
%TD*%
%TO.C,D384*%
X177100000Y-139000000D03*
X178200000Y-139000000D03*
X178200000Y-136750000D03*
X177100000Y-136750000D03*
%TD*%
%TO.C,D450*%
X202100000Y-69000000D03*
X203200000Y-69000000D03*
X203200000Y-66750000D03*
X202100000Y-66750000D03*
%TD*%
%TO.C,D192*%
X117100000Y-139000000D03*
X118200000Y-139000000D03*
X118200000Y-136750000D03*
X117100000Y-136750000D03*
%TD*%
D14*
%TO.C,D533*%
X186125000Y-43050000D03*
X186125000Y-45100000D03*
%TD*%
D10*
%TO.C,D193*%
X122100000Y-64000000D03*
X123200000Y-64000000D03*
X123200000Y-61750000D03*
X122100000Y-61750000D03*
%TD*%
%TO.C,D336*%
X162100000Y-139000000D03*
X163200000Y-139000000D03*
X163200000Y-136750000D03*
X162100000Y-136750000D03*
%TD*%
%TO.C,D134*%
X102100000Y-89000000D03*
X103200000Y-89000000D03*
X103200000Y-86750000D03*
X102100000Y-86750000D03*
%TD*%
D15*
%TO.C,R1*%
X253375000Y-58780000D03*
X253375000Y-56780000D03*
%TD*%
D10*
%TO.C,D167*%
X112100000Y-94000000D03*
X113200000Y-94000000D03*
X113200000Y-91750000D03*
X112100000Y-91750000D03*
%TD*%
%TO.C,D478*%
X207100000Y-129000000D03*
X208200000Y-129000000D03*
X208200000Y-126750000D03*
X207100000Y-126750000D03*
%TD*%
%TO.C,D357*%
X172100000Y-84000000D03*
X173200000Y-84000000D03*
X173200000Y-81750000D03*
X172100000Y-81750000D03*
%TD*%
%TO.C,D509*%
X217100000Y-124000000D03*
X218200000Y-124000000D03*
X218200000Y-121750000D03*
X217100000Y-121750000D03*
%TD*%
%TO.C,D78*%
X82100000Y-129000000D03*
X83200000Y-129000000D03*
X83200000Y-126750000D03*
X82100000Y-126750000D03*
%TD*%
%TO.C,D443*%
X197100000Y-114000000D03*
X198200000Y-114000000D03*
X198200000Y-111750000D03*
X197100000Y-111750000D03*
%TD*%
%TO.C,D310*%
X157100000Y-89000000D03*
X158200000Y-89000000D03*
X158200000Y-86750000D03*
X157100000Y-86750000D03*
%TD*%
D16*
%TO.C,J8*%
X239075000Y-52460000D03*
D17*
X239075000Y-55000000D03*
X239075000Y-57540000D03*
%TD*%
D18*
%TO.C,R32*%
X248325000Y-128975000D03*
X248325000Y-130975000D03*
%TD*%
D10*
%TO.C,D155*%
X107100000Y-114000000D03*
X108200000Y-114000000D03*
X108200000Y-111750000D03*
X107100000Y-111750000D03*
%TD*%
%TO.C,D247*%
X137100000Y-94000000D03*
X138200000Y-94000000D03*
X138200000Y-91750000D03*
X137100000Y-91750000D03*
%TD*%
%TO.C,D288*%
X147100000Y-139000000D03*
X148200000Y-139000000D03*
X148200000Y-136750000D03*
X147100000Y-136750000D03*
%TD*%
%TO.C,D13*%
X62100000Y-124000000D03*
X63200000Y-124000000D03*
X63200000Y-121750000D03*
X62100000Y-121750000D03*
%TD*%
%TO.C,D158*%
X107100000Y-129000000D03*
X108200000Y-129000000D03*
X108200000Y-126750000D03*
X107100000Y-126750000D03*
%TD*%
%TO.C,D308*%
X157100000Y-79000000D03*
X158200000Y-79000000D03*
X158200000Y-76750000D03*
X157100000Y-76750000D03*
%TD*%
D15*
%TO.C,R10*%
X92725000Y-40225000D03*
X92725000Y-38225000D03*
%TD*%
D16*
%TO.C,J2*%
X249575000Y-86680000D03*
D17*
X249575000Y-84140000D03*
X249575000Y-81600000D03*
X249575000Y-79060000D03*
X249575000Y-76520000D03*
%TD*%
D10*
%TO.C,D20*%
X67100000Y-79000000D03*
X68200000Y-79000000D03*
X68200000Y-76750000D03*
X67100000Y-76750000D03*
%TD*%
%TO.C,D121*%
X97100000Y-104000000D03*
X98200000Y-104000000D03*
X98200000Y-101750000D03*
X97100000Y-101750000D03*
%TD*%
%TO.C,D137*%
X102100000Y-104000000D03*
X103200000Y-104000000D03*
X103200000Y-101750000D03*
X102100000Y-101750000D03*
%TD*%
%TO.C,D7*%
X62100000Y-94000000D03*
X63200000Y-94000000D03*
X63200000Y-91750000D03*
X62100000Y-91750000D03*
%TD*%
%TO.C,D473*%
X207100000Y-104000000D03*
X208200000Y-104000000D03*
X208200000Y-101750000D03*
X207100000Y-101750000D03*
%TD*%
%TO.C,D416*%
X187100000Y-139000000D03*
X188200000Y-139000000D03*
X188200000Y-136750000D03*
X187100000Y-136750000D03*
%TD*%
%TO.C,D401*%
X187100000Y-64000000D03*
X188200000Y-64000000D03*
X188200000Y-61750000D03*
X187100000Y-61750000D03*
%TD*%
%TO.C,D453*%
X202100000Y-84000000D03*
X203200000Y-84000000D03*
X203200000Y-81750000D03*
X202100000Y-81750000D03*
%TD*%
D19*
%TO.C,U1*%
X251497500Y-67237500D03*
X251497500Y-66587500D03*
X251497500Y-65937500D03*
X249722500Y-65937500D03*
X249722500Y-66587500D03*
X249722500Y-67237500D03*
D20*
X250610000Y-66587500D03*
%TD*%
D10*
%TO.C,D152*%
X107100000Y-99000000D03*
X108200000Y-99000000D03*
X108200000Y-96750000D03*
X107100000Y-96750000D03*
%TD*%
D15*
%TO.C,R17*%
X106725000Y-26600000D03*
X106725000Y-24600000D03*
%TD*%
D10*
%TO.C,D36*%
X72100000Y-79000000D03*
X73200000Y-79000000D03*
X73200000Y-76750000D03*
X72100000Y-76750000D03*
%TD*%
%TO.C,D208*%
X122100000Y-139000000D03*
X123200000Y-139000000D03*
X123200000Y-136750000D03*
X122100000Y-136750000D03*
%TD*%
%TO.C,D70*%
X82100000Y-89000000D03*
X83200000Y-89000000D03*
X83200000Y-86750000D03*
X82100000Y-86750000D03*
%TD*%
%TO.C,D26*%
X67100000Y-109000000D03*
X68200000Y-109000000D03*
X68200000Y-106750000D03*
X67100000Y-106750000D03*
%TD*%
D21*
%TO.C,C29*%
X237312500Y-130975000D03*
X235237500Y-130975000D03*
%TD*%
D10*
%TO.C,D497*%
X217100000Y-64000000D03*
X218200000Y-64000000D03*
X218200000Y-61750000D03*
X217100000Y-61750000D03*
%TD*%
%TO.C,D164*%
X112100000Y-79000000D03*
X113200000Y-79000000D03*
X113200000Y-76750000D03*
X112100000Y-76750000D03*
%TD*%
D12*
%TO.C,Q6*%
X222375000Y-85350000D03*
X225375000Y-86300000D03*
X225375000Y-84400000D03*
%TD*%
D10*
%TO.C,D440*%
X197100000Y-99000000D03*
X198200000Y-99000000D03*
X198200000Y-96750000D03*
X197100000Y-96750000D03*
%TD*%
%TO.C,D240*%
X132100000Y-139000000D03*
X133200000Y-139000000D03*
X133200000Y-136750000D03*
X132100000Y-136750000D03*
%TD*%
%TO.C,D38*%
X72100000Y-89000000D03*
X73200000Y-89000000D03*
X73200000Y-86750000D03*
X72100000Y-86750000D03*
%TD*%
%TO.C,D52*%
X77100000Y-79000000D03*
X78200000Y-79000000D03*
X78200000Y-76750000D03*
X77100000Y-76750000D03*
%TD*%
%TO.C,D172*%
X112100000Y-119000000D03*
X113200000Y-119000000D03*
X113200000Y-116750000D03*
X112100000Y-116750000D03*
%TD*%
%TO.C,D183*%
X117100000Y-94000000D03*
X118200000Y-94000000D03*
X118200000Y-91750000D03*
X117100000Y-91750000D03*
%TD*%
%TO.C,D206*%
X122100000Y-129000000D03*
X123200000Y-129000000D03*
X123200000Y-126750000D03*
X122100000Y-126750000D03*
%TD*%
%TO.C,D458*%
X202100000Y-109000000D03*
X203200000Y-109000000D03*
X203200000Y-106750000D03*
X202100000Y-106750000D03*
%TD*%
%TO.C,D116*%
X97100000Y-79000000D03*
X98200000Y-79000000D03*
X98200000Y-76750000D03*
X97100000Y-76750000D03*
%TD*%
%TO.C,D293*%
X152100000Y-84000000D03*
X153200000Y-84000000D03*
X153200000Y-81750000D03*
X152100000Y-81750000D03*
%TD*%
%TO.C,D56*%
X77100000Y-99000000D03*
X78200000Y-99000000D03*
X78200000Y-96750000D03*
X77100000Y-96750000D03*
%TD*%
%TO.C,D290*%
X152100000Y-69000000D03*
X153200000Y-69000000D03*
X153200000Y-66750000D03*
X152100000Y-66750000D03*
%TD*%
%TO.C,D342*%
X167100000Y-89000000D03*
X168200000Y-89000000D03*
X168200000Y-86750000D03*
X167100000Y-86750000D03*
%TD*%
%TO.C,D318*%
X157100000Y-129000000D03*
X158200000Y-129000000D03*
X158200000Y-126750000D03*
X157100000Y-126750000D03*
%TD*%
%TO.C,D365*%
X172100000Y-124000000D03*
X173200000Y-124000000D03*
X173200000Y-121750000D03*
X172100000Y-121750000D03*
%TD*%
%TO.C,D73*%
X82100000Y-104000000D03*
X83200000Y-104000000D03*
X83200000Y-101750000D03*
X82100000Y-101750000D03*
%TD*%
%TO.C,D296*%
X152100000Y-99000000D03*
X153200000Y-99000000D03*
X153200000Y-96750000D03*
X152100000Y-96750000D03*
%TD*%
D15*
%TO.C,R36*%
X244350000Y-59050000D03*
X244350000Y-57050000D03*
%TD*%
D10*
%TO.C,D265*%
X142100000Y-104000000D03*
X143200000Y-104000000D03*
X143200000Y-101750000D03*
X142100000Y-101750000D03*
%TD*%
%TO.C,D229*%
X132100000Y-84000000D03*
X133200000Y-84000000D03*
X133200000Y-81750000D03*
X132100000Y-81750000D03*
%TD*%
%TO.C,D88*%
X87100000Y-99000000D03*
X88200000Y-99000000D03*
X88200000Y-96750000D03*
X87100000Y-96750000D03*
%TD*%
%TO.C,D358*%
X172100000Y-89000000D03*
X173200000Y-89000000D03*
X173200000Y-86750000D03*
X172100000Y-86750000D03*
%TD*%
%TO.C,D326*%
X162100000Y-89000000D03*
X163200000Y-89000000D03*
X163200000Y-86750000D03*
X162100000Y-86750000D03*
%TD*%
%TO.C,D464*%
X202100000Y-139000000D03*
X203200000Y-139000000D03*
X203200000Y-136750000D03*
X202100000Y-136750000D03*
%TD*%
D15*
%TO.C,R20*%
X158100000Y-30175000D03*
X158100000Y-28175000D03*
%TD*%
D10*
%TO.C,D136*%
X102100000Y-99000000D03*
X103200000Y-99000000D03*
X103200000Y-96750000D03*
X102100000Y-96750000D03*
%TD*%
%TO.C,D319*%
X157100000Y-134000000D03*
X158200000Y-134000000D03*
X158200000Y-131750000D03*
X157100000Y-131750000D03*
%TD*%
%TO.C,D5*%
X62100000Y-84000000D03*
X63200000Y-84000000D03*
X63200000Y-81750000D03*
X62100000Y-81750000D03*
%TD*%
%TO.C,D259*%
X142100000Y-74000000D03*
X143200000Y-74000000D03*
X143200000Y-71750000D03*
X142100000Y-71750000D03*
%TD*%
D12*
%TO.C,Q15*%
X222375000Y-130350000D03*
X225375000Y-131300000D03*
X225375000Y-129400000D03*
%TD*%
D10*
%TO.C,D435*%
X197100000Y-74000000D03*
X198200000Y-74000000D03*
X198200000Y-71750000D03*
X197100000Y-71750000D03*
%TD*%
%TO.C,D51*%
X77100000Y-74000000D03*
X78200000Y-74000000D03*
X78200000Y-71750000D03*
X77100000Y-71750000D03*
%TD*%
%TO.C,D133*%
X102100000Y-84000000D03*
X103200000Y-84000000D03*
X103200000Y-81750000D03*
X102100000Y-81750000D03*
%TD*%
%TO.C,D499*%
X217100000Y-74000000D03*
X218200000Y-74000000D03*
X218200000Y-71750000D03*
X217100000Y-71750000D03*
%TD*%
%TO.C,D486*%
X212100000Y-89000000D03*
X213200000Y-89000000D03*
X213200000Y-86750000D03*
X212100000Y-86750000D03*
%TD*%
D22*
%TO.C,D521*%
X249875000Y-34800000D03*
X249875000Y-33050000D03*
%TD*%
D10*
%TO.C,D200*%
X122100000Y-99000000D03*
X123200000Y-99000000D03*
X123200000Y-96750000D03*
X122100000Y-96750000D03*
%TD*%
%TO.C,D351*%
X167100000Y-134000000D03*
X168200000Y-134000000D03*
X168200000Y-131750000D03*
X167100000Y-131750000D03*
%TD*%
D12*
%TO.C,Q10*%
X222375000Y-105350000D03*
X225375000Y-106300000D03*
X225375000Y-104400000D03*
%TD*%
D10*
%TO.C,D197*%
X122100000Y-84000000D03*
X123200000Y-84000000D03*
X123200000Y-81750000D03*
X122100000Y-81750000D03*
%TD*%
%TO.C,D248*%
X137100000Y-99000000D03*
X138200000Y-99000000D03*
X138200000Y-96750000D03*
X137100000Y-96750000D03*
%TD*%
%TO.C,D353*%
X172100000Y-64000000D03*
X173200000Y-64000000D03*
X173200000Y-61750000D03*
X172100000Y-61750000D03*
%TD*%
%TO.C,D138*%
X102100000Y-109000000D03*
X103200000Y-109000000D03*
X103200000Y-106750000D03*
X102100000Y-106750000D03*
%TD*%
%TO.C,D93*%
X87100000Y-124000000D03*
X88200000Y-124000000D03*
X88200000Y-121750000D03*
X87100000Y-121750000D03*
%TD*%
%TO.C,D457*%
X202100000Y-104000000D03*
X203200000Y-104000000D03*
X203200000Y-101750000D03*
X202100000Y-101750000D03*
%TD*%
%TO.C,D348*%
X167100000Y-119000000D03*
X168200000Y-119000000D03*
X168200000Y-116750000D03*
X167100000Y-116750000D03*
%TD*%
%TO.C,D246*%
X137100000Y-89000000D03*
X138200000Y-89000000D03*
X138200000Y-86750000D03*
X137100000Y-86750000D03*
%TD*%
%TO.C,D423*%
X192100000Y-94000000D03*
X193200000Y-94000000D03*
X193200000Y-91750000D03*
X192100000Y-91750000D03*
%TD*%
%TO.C,D23*%
X67100000Y-94000000D03*
X68200000Y-94000000D03*
X68200000Y-91750000D03*
X67100000Y-91750000D03*
%TD*%
%TO.C,D451*%
X202100000Y-74000000D03*
X203200000Y-74000000D03*
X203200000Y-71750000D03*
X202100000Y-71750000D03*
%TD*%
%TO.C,D498*%
X217100000Y-69000000D03*
X218200000Y-69000000D03*
X218200000Y-66750000D03*
X217100000Y-66750000D03*
%TD*%
%TO.C,D65*%
X82100000Y-64000000D03*
X83200000Y-64000000D03*
X83200000Y-61750000D03*
X82100000Y-61750000D03*
%TD*%
%TO.C,D253*%
X137100000Y-124000000D03*
X138200000Y-124000000D03*
X138200000Y-121750000D03*
X137100000Y-121750000D03*
%TD*%
%TO.C,D4*%
X62100000Y-79000000D03*
X63200000Y-79000000D03*
X63200000Y-76750000D03*
X62100000Y-76750000D03*
%TD*%
%TO.C,D188*%
X117100000Y-119000000D03*
X118200000Y-119000000D03*
X118200000Y-116750000D03*
X117100000Y-116750000D03*
%TD*%
%TO.C,D278*%
X147100000Y-89000000D03*
X148200000Y-89000000D03*
X148200000Y-86750000D03*
X147100000Y-86750000D03*
%TD*%
%TO.C,D46*%
X72100000Y-129000000D03*
X73200000Y-129000000D03*
X73200000Y-126750000D03*
X72100000Y-126750000D03*
%TD*%
%TO.C,D225*%
X132100000Y-64000000D03*
X133200000Y-64000000D03*
X133200000Y-61750000D03*
X132100000Y-61750000D03*
%TD*%
%TO.C,D356*%
X172100000Y-79000000D03*
X173200000Y-79000000D03*
X173200000Y-76750000D03*
X172100000Y-76750000D03*
%TD*%
%TO.C,D339*%
X167100000Y-74000000D03*
X168200000Y-74000000D03*
X168200000Y-71750000D03*
X167100000Y-71750000D03*
%TD*%
%TO.C,D249*%
X137100000Y-104000000D03*
X138200000Y-104000000D03*
X138200000Y-101750000D03*
X137100000Y-101750000D03*
%TD*%
D12*
%TO.C,Q16*%
X222375000Y-135350000D03*
X225375000Y-136300000D03*
X225375000Y-134400000D03*
%TD*%
D10*
%TO.C,D445*%
X197100000Y-124000000D03*
X198200000Y-124000000D03*
X198200000Y-121750000D03*
X197100000Y-121750000D03*
%TD*%
%TO.C,D60*%
X77100000Y-119000000D03*
X78200000Y-119000000D03*
X78200000Y-116750000D03*
X77100000Y-116750000D03*
%TD*%
%TO.C,D194*%
X122100000Y-69000000D03*
X123200000Y-69000000D03*
X123200000Y-66750000D03*
X122100000Y-66750000D03*
%TD*%
%TO.C,D169*%
X112100000Y-104000000D03*
X113200000Y-104000000D03*
X113200000Y-101750000D03*
X112100000Y-101750000D03*
%TD*%
D13*
%TO.C,R15*%
X182075000Y-40825000D03*
X180075000Y-40825000D03*
%TD*%
D10*
%TO.C,D409*%
X187100000Y-104000000D03*
X188200000Y-104000000D03*
X188200000Y-101750000D03*
X187100000Y-101750000D03*
%TD*%
%TO.C,D150*%
X107100000Y-89000000D03*
X108200000Y-89000000D03*
X108200000Y-86750000D03*
X107100000Y-86750000D03*
%TD*%
D23*
%TO.C,D534*%
X250225000Y-38825000D03*
X250225000Y-40575000D03*
%TD*%
D10*
%TO.C,D123*%
X97100000Y-114000000D03*
X98200000Y-114000000D03*
X98200000Y-111750000D03*
X97100000Y-111750000D03*
%TD*%
%TO.C,D220*%
X127100000Y-119000000D03*
X128200000Y-119000000D03*
X128200000Y-116750000D03*
X127100000Y-116750000D03*
%TD*%
%TO.C,D141*%
X102100000Y-124000000D03*
X103200000Y-124000000D03*
X103200000Y-121750000D03*
X102100000Y-121750000D03*
%TD*%
%TO.C,D120*%
X97100000Y-99000000D03*
X98200000Y-99000000D03*
X98200000Y-96750000D03*
X97100000Y-96750000D03*
%TD*%
%TO.C,D140*%
X102100000Y-119000000D03*
X103200000Y-119000000D03*
X103200000Y-116750000D03*
X102100000Y-116750000D03*
%TD*%
%TO.C,D33*%
X72100000Y-64000000D03*
X73200000Y-64000000D03*
X73200000Y-61750000D03*
X72100000Y-61750000D03*
%TD*%
D24*
%TO.C,C21*%
X203750000Y-31287500D03*
X203750000Y-29212500D03*
%TD*%
D10*
%TO.C,D219*%
X127100000Y-114000000D03*
X128200000Y-114000000D03*
X128200000Y-111750000D03*
X127100000Y-111750000D03*
%TD*%
%TO.C,D367*%
X172100000Y-134000000D03*
X173200000Y-134000000D03*
X173200000Y-131750000D03*
X172100000Y-131750000D03*
%TD*%
%TO.C,D452*%
X202100000Y-79000000D03*
X203200000Y-79000000D03*
X203200000Y-76750000D03*
X202100000Y-76750000D03*
%TD*%
D13*
%TO.C,R8*%
X183900000Y-31800000D03*
X181900000Y-31800000D03*
%TD*%
D25*
%TO.C,U3*%
X199832500Y-35425000D03*
X198562500Y-35425000D03*
X197292500Y-35425000D03*
X196022500Y-35425000D03*
X194752500Y-35425000D03*
X193482500Y-35425000D03*
X192212500Y-35425000D03*
X192212500Y-40375000D03*
X193482500Y-40375000D03*
X194752500Y-40375000D03*
X196022500Y-40375000D03*
X197292500Y-40375000D03*
X198562500Y-40375000D03*
X199832500Y-40375000D03*
%TD*%
D10*
%TO.C,D400*%
X182100000Y-139000000D03*
X183200000Y-139000000D03*
X183200000Y-136750000D03*
X182100000Y-136750000D03*
%TD*%
%TO.C,D77*%
X82100000Y-124000000D03*
X83200000Y-124000000D03*
X83200000Y-121750000D03*
X82100000Y-121750000D03*
%TD*%
%TO.C,D260*%
X142100000Y-79000000D03*
X143200000Y-79000000D03*
X143200000Y-76750000D03*
X142100000Y-76750000D03*
%TD*%
D12*
%TO.C,Q3*%
X222375000Y-70350000D03*
X225375000Y-71300000D03*
X225375000Y-69400000D03*
%TD*%
D10*
%TO.C,D35*%
X72100000Y-74000000D03*
X73200000Y-74000000D03*
X73200000Y-71750000D03*
X72100000Y-71750000D03*
%TD*%
D13*
%TO.C,R33*%
X209850000Y-44450000D03*
X207850000Y-44450000D03*
%TD*%
D10*
%TO.C,D195*%
X122100000Y-74000000D03*
X123200000Y-74000000D03*
X123200000Y-71750000D03*
X122100000Y-71750000D03*
%TD*%
%TO.C,D467*%
X207100000Y-74000000D03*
X208200000Y-74000000D03*
X208200000Y-71750000D03*
X207100000Y-71750000D03*
%TD*%
%TO.C,D179*%
X117100000Y-74000000D03*
X118200000Y-74000000D03*
X118200000Y-71750000D03*
X117100000Y-71750000D03*
%TD*%
%TO.C,D398*%
X182100000Y-129000000D03*
X183200000Y-129000000D03*
X183200000Y-126750000D03*
X182100000Y-126750000D03*
%TD*%
%TO.C,D488*%
X212100000Y-99000000D03*
X213200000Y-99000000D03*
X213200000Y-96750000D03*
X212100000Y-96750000D03*
%TD*%
%TO.C,D396*%
X182100000Y-119000000D03*
X183200000Y-119000000D03*
X183200000Y-116750000D03*
X182100000Y-116750000D03*
%TD*%
%TO.C,D307*%
X157100000Y-74000000D03*
X158200000Y-74000000D03*
X158200000Y-71750000D03*
X157100000Y-71750000D03*
%TD*%
%TO.C,D139*%
X102100000Y-114000000D03*
X103200000Y-114000000D03*
X103200000Y-111750000D03*
X102100000Y-111750000D03*
%TD*%
%TO.C,D298*%
X152100000Y-109000000D03*
X153200000Y-109000000D03*
X153200000Y-106750000D03*
X152100000Y-106750000D03*
%TD*%
%TO.C,D335*%
X162100000Y-134000000D03*
X163200000Y-134000000D03*
X163200000Y-131750000D03*
X162100000Y-131750000D03*
%TD*%
%TO.C,D374*%
X177100000Y-89000000D03*
X178200000Y-89000000D03*
X178200000Y-86750000D03*
X177100000Y-86750000D03*
%TD*%
%TO.C,D171*%
X112100000Y-114000000D03*
X113200000Y-114000000D03*
X113200000Y-111750000D03*
X112100000Y-111750000D03*
%TD*%
%TO.C,D329*%
X162100000Y-104000000D03*
X163200000Y-104000000D03*
X163200000Y-101750000D03*
X162100000Y-101750000D03*
%TD*%
D15*
%TO.C,R29*%
X234425000Y-39075000D03*
X234425000Y-37075000D03*
%TD*%
D10*
%TO.C,D31*%
X67100000Y-134000000D03*
X68200000Y-134000000D03*
X68200000Y-131750000D03*
X67100000Y-131750000D03*
%TD*%
%TO.C,D62*%
X77100000Y-129000000D03*
X78200000Y-129000000D03*
X78200000Y-126750000D03*
X77100000Y-126750000D03*
%TD*%
%TO.C,D68*%
X82100000Y-79000000D03*
X83200000Y-79000000D03*
X83200000Y-76750000D03*
X82100000Y-76750000D03*
%TD*%
%TO.C,D29*%
X67100000Y-124000000D03*
X68200000Y-124000000D03*
X68200000Y-121750000D03*
X67100000Y-121750000D03*
%TD*%
%TO.C,D309*%
X157100000Y-84000000D03*
X158200000Y-84000000D03*
X158200000Y-81750000D03*
X157100000Y-81750000D03*
%TD*%
%TO.C,D176*%
X112100000Y-139000000D03*
X113200000Y-139000000D03*
X113200000Y-136750000D03*
X112100000Y-136750000D03*
%TD*%
%TO.C,D266*%
X142100000Y-109000000D03*
X143200000Y-109000000D03*
X143200000Y-106750000D03*
X142100000Y-106750000D03*
%TD*%
%TO.C,D422*%
X192100000Y-89000000D03*
X193200000Y-89000000D03*
X193200000Y-86750000D03*
X192100000Y-86750000D03*
%TD*%
%TO.C,D305*%
X157100000Y-64000000D03*
X158200000Y-64000000D03*
X158200000Y-61750000D03*
X157100000Y-61750000D03*
%TD*%
%TO.C,D149*%
X107100000Y-84000000D03*
X108200000Y-84000000D03*
X108200000Y-81750000D03*
X107100000Y-81750000D03*
%TD*%
%TO.C,D109*%
X92100000Y-124000000D03*
X93200000Y-124000000D03*
X93200000Y-121750000D03*
X92100000Y-121750000D03*
%TD*%
%TO.C,D373*%
X177100000Y-84000000D03*
X178200000Y-84000000D03*
X178200000Y-81750000D03*
X177100000Y-81750000D03*
%TD*%
D26*
%TO.C,D530*%
X128450000Y-37725000D03*
X130500000Y-37725000D03*
%TD*%
D10*
%TO.C,D346*%
X167100000Y-109000000D03*
X168200000Y-109000000D03*
X168200000Y-106750000D03*
X167100000Y-106750000D03*
%TD*%
%TO.C,D328*%
X162100000Y-99000000D03*
X163200000Y-99000000D03*
X163200000Y-96750000D03*
X162100000Y-96750000D03*
%TD*%
%TO.C,D10*%
X62100000Y-109000000D03*
X63200000Y-109000000D03*
X63200000Y-106750000D03*
X62100000Y-106750000D03*
%TD*%
D26*
%TO.C,D528*%
X92725000Y-42675000D03*
X94775000Y-42675000D03*
%TD*%
D10*
%TO.C,D119*%
X97100000Y-94000000D03*
X98200000Y-94000000D03*
X98200000Y-91750000D03*
X97100000Y-91750000D03*
%TD*%
%TO.C,D480*%
X207100000Y-139000000D03*
X208200000Y-139000000D03*
X208200000Y-136750000D03*
X207100000Y-136750000D03*
%TD*%
%TO.C,D460*%
X202100000Y-119000000D03*
X203200000Y-119000000D03*
X203200000Y-116750000D03*
X202100000Y-116750000D03*
%TD*%
D24*
%TO.C,C15*%
X239900000Y-39087500D03*
X239900000Y-37012500D03*
%TD*%
D10*
%TO.C,D86*%
X87100000Y-89000000D03*
X88200000Y-89000000D03*
X88200000Y-86750000D03*
X87100000Y-86750000D03*
%TD*%
%TO.C,D407*%
X187100000Y-94000000D03*
X188200000Y-94000000D03*
X188200000Y-91750000D03*
X187100000Y-91750000D03*
%TD*%
%TO.C,D177*%
X117100000Y-64000000D03*
X118200000Y-64000000D03*
X118200000Y-61750000D03*
X117100000Y-61750000D03*
%TD*%
%TO.C,D487*%
X212100000Y-94000000D03*
X213200000Y-94000000D03*
X213200000Y-91750000D03*
X212100000Y-91750000D03*
%TD*%
%TO.C,D216*%
X127100000Y-99000000D03*
X128200000Y-99000000D03*
X128200000Y-96750000D03*
X127100000Y-96750000D03*
%TD*%
%TO.C,D49*%
X77100000Y-64000000D03*
X78200000Y-64000000D03*
X78200000Y-61750000D03*
X77100000Y-61750000D03*
%TD*%
%TO.C,D64*%
X77100000Y-139000000D03*
X78200000Y-139000000D03*
X78200000Y-136750000D03*
X77100000Y-136750000D03*
%TD*%
%TO.C,D368*%
X172100000Y-139000000D03*
X173200000Y-139000000D03*
X173200000Y-136750000D03*
X172100000Y-136750000D03*
%TD*%
%TO.C,D45*%
X72100000Y-124000000D03*
X73200000Y-124000000D03*
X73200000Y-121750000D03*
X72100000Y-121750000D03*
%TD*%
%TO.C,D454*%
X202100000Y-89000000D03*
X203200000Y-89000000D03*
X203200000Y-86750000D03*
X202100000Y-86750000D03*
%TD*%
%TO.C,D470*%
X207100000Y-89000000D03*
X208200000Y-89000000D03*
X208200000Y-86750000D03*
X207100000Y-86750000D03*
%TD*%
%TO.C,D16*%
X62100000Y-139000000D03*
X63200000Y-139000000D03*
X63200000Y-136750000D03*
X62100000Y-136750000D03*
%TD*%
%TO.C,D323*%
X162100000Y-74000000D03*
X163200000Y-74000000D03*
X163200000Y-71750000D03*
X162100000Y-71750000D03*
%TD*%
D27*
%TO.C,F1*%
X234437500Y-128225000D03*
X237412500Y-128225000D03*
%TD*%
D10*
%TO.C,D361*%
X172100000Y-104000000D03*
X173200000Y-104000000D03*
X173200000Y-101750000D03*
X172100000Y-101750000D03*
%TD*%
%TO.C,D40*%
X72100000Y-99000000D03*
X73200000Y-99000000D03*
X73200000Y-96750000D03*
X72100000Y-96750000D03*
%TD*%
%TO.C,D366*%
X172100000Y-129000000D03*
X173200000Y-129000000D03*
X173200000Y-126750000D03*
X172100000Y-126750000D03*
%TD*%
%TO.C,D235*%
X132100000Y-114000000D03*
X133200000Y-114000000D03*
X133200000Y-111750000D03*
X132100000Y-111750000D03*
%TD*%
%TO.C,D301*%
X152100000Y-124000000D03*
X153200000Y-124000000D03*
X153200000Y-121750000D03*
X152100000Y-121750000D03*
%TD*%
%TO.C,D392*%
X182100000Y-99000000D03*
X183200000Y-99000000D03*
X183200000Y-96750000D03*
X182100000Y-96750000D03*
%TD*%
%TO.C,D25*%
X67100000Y-104000000D03*
X68200000Y-104000000D03*
X68200000Y-101750000D03*
X67100000Y-101750000D03*
%TD*%
%TO.C,D267*%
X142100000Y-114000000D03*
X143200000Y-114000000D03*
X143200000Y-111750000D03*
X142100000Y-111750000D03*
%TD*%
%TO.C,D369*%
X177100000Y-64000000D03*
X178200000Y-64000000D03*
X178200000Y-61750000D03*
X177100000Y-61750000D03*
%TD*%
%TO.C,D431*%
X192100000Y-134000000D03*
X193200000Y-134000000D03*
X193200000Y-131750000D03*
X192100000Y-131750000D03*
%TD*%
%TO.C,D281*%
X147100000Y-104000000D03*
X148200000Y-104000000D03*
X148200000Y-101750000D03*
X147100000Y-101750000D03*
%TD*%
D28*
%TO.C,U9*%
X155225000Y-37425000D03*
D29*
X152375000Y-33200000D03*
X152375000Y-33850000D03*
X152375000Y-34500000D03*
X152375000Y-35150000D03*
X152375000Y-35800000D03*
X152375000Y-36450000D03*
X152375000Y-37100000D03*
X152375000Y-37750000D03*
X152375000Y-38400000D03*
X152375000Y-39050000D03*
X152375000Y-39700000D03*
X152375000Y-40350000D03*
X152375000Y-41000000D03*
X152375000Y-41650000D03*
X158075000Y-41650000D03*
X158075000Y-41000000D03*
X158075000Y-40350000D03*
X158075000Y-39700000D03*
X158075000Y-39050000D03*
X158075000Y-38400000D03*
X158075000Y-37750000D03*
X158075000Y-37100000D03*
X158075000Y-36450000D03*
X158075000Y-35800000D03*
X158075000Y-35150000D03*
X158075000Y-34500000D03*
X158075000Y-33850000D03*
X158075000Y-33200000D03*
%TD*%
D10*
%TO.C,D376*%
X177100000Y-99000000D03*
X178200000Y-99000000D03*
X178200000Y-96750000D03*
X177100000Y-96750000D03*
%TD*%
%TO.C,D178*%
X117100000Y-69000000D03*
X118200000Y-69000000D03*
X118200000Y-66750000D03*
X117100000Y-66750000D03*
%TD*%
%TO.C,D160*%
X107100000Y-139000000D03*
X108200000Y-139000000D03*
X108200000Y-136750000D03*
X107100000Y-136750000D03*
%TD*%
%TO.C,D30*%
X67100000Y-129000000D03*
X68200000Y-129000000D03*
X68200000Y-126750000D03*
X67100000Y-126750000D03*
%TD*%
D30*
%TO.C,R37*%
X238100000Y-60650000D03*
X240100000Y-60650000D03*
%TD*%
D10*
%TO.C,D340*%
X167100000Y-79000000D03*
X168200000Y-79000000D03*
X168200000Y-76750000D03*
X167100000Y-76750000D03*
%TD*%
D26*
%TO.C,D529*%
X111750000Y-37725000D03*
X113800000Y-37725000D03*
%TD*%
D31*
%TO.C,C3*%
X246760000Y-65942500D03*
X246760000Y-68017500D03*
%TD*%
D10*
%TO.C,D413*%
X187100000Y-124000000D03*
X188200000Y-124000000D03*
X188200000Y-121750000D03*
X187100000Y-121750000D03*
%TD*%
%TO.C,D12*%
X62100000Y-119000000D03*
X63200000Y-119000000D03*
X63200000Y-116750000D03*
X62100000Y-116750000D03*
%TD*%
%TO.C,D144*%
X102100000Y-139000000D03*
X103200000Y-139000000D03*
X103200000Y-136750000D03*
X102100000Y-136750000D03*
%TD*%
%TO.C,D363*%
X172100000Y-114000000D03*
X173200000Y-114000000D03*
X173200000Y-111750000D03*
X172100000Y-111750000D03*
%TD*%
D32*
%TO.C,D532*%
X164225000Y-32300000D03*
X164225000Y-30250000D03*
%TD*%
D10*
%TO.C,D47*%
X72100000Y-134000000D03*
X73200000Y-134000000D03*
X73200000Y-131750000D03*
X72100000Y-131750000D03*
%TD*%
%TO.C,D125*%
X97100000Y-124000000D03*
X98200000Y-124000000D03*
X98200000Y-121750000D03*
X97100000Y-121750000D03*
%TD*%
%TO.C,D317*%
X157100000Y-124000000D03*
X158200000Y-124000000D03*
X158200000Y-121750000D03*
X157100000Y-121750000D03*
%TD*%
%TO.C,D389*%
X182100000Y-84000000D03*
X183200000Y-84000000D03*
X183200000Y-81750000D03*
X182100000Y-81750000D03*
%TD*%
%TO.C,D263*%
X142100000Y-94000000D03*
X143200000Y-94000000D03*
X143200000Y-91750000D03*
X142100000Y-91750000D03*
%TD*%
%TO.C,D63*%
X77100000Y-134000000D03*
X78200000Y-134000000D03*
X78200000Y-131750000D03*
X77100000Y-131750000D03*
%TD*%
%TO.C,D448*%
X197100000Y-139000000D03*
X198200000Y-139000000D03*
X198200000Y-136750000D03*
X197100000Y-136750000D03*
%TD*%
%TO.C,D115*%
X97100000Y-74000000D03*
X98200000Y-74000000D03*
X98200000Y-71750000D03*
X97100000Y-71750000D03*
%TD*%
%TO.C,D165*%
X112100000Y-84000000D03*
X113200000Y-84000000D03*
X113200000Y-81750000D03*
X112100000Y-81750000D03*
%TD*%
%TO.C,D222*%
X127100000Y-129000000D03*
X128200000Y-129000000D03*
X128200000Y-126750000D03*
X127100000Y-126750000D03*
%TD*%
%TO.C,D297*%
X152100000Y-104000000D03*
X153200000Y-104000000D03*
X153200000Y-101750000D03*
X152100000Y-101750000D03*
%TD*%
D18*
%TO.C,R23*%
X110700000Y-29050000D03*
X110700000Y-31050000D03*
%TD*%
D26*
%TO.C,D531*%
X145050000Y-37750000D03*
X147100000Y-37750000D03*
%TD*%
D10*
%TO.C,D507*%
X217100000Y-114000000D03*
X218200000Y-114000000D03*
X218200000Y-111750000D03*
X217100000Y-111750000D03*
%TD*%
%TO.C,D289*%
X152100000Y-64000000D03*
X153200000Y-64000000D03*
X153200000Y-61750000D03*
X152100000Y-61750000D03*
%TD*%
%TO.C,D375*%
X177100000Y-94000000D03*
X178200000Y-94000000D03*
X178200000Y-91750000D03*
X177100000Y-91750000D03*
%TD*%
%TO.C,D421*%
X192100000Y-84000000D03*
X193200000Y-84000000D03*
X193200000Y-81750000D03*
X192100000Y-81750000D03*
%TD*%
%TO.C,D37*%
X72100000Y-84000000D03*
X73200000Y-84000000D03*
X73200000Y-81750000D03*
X72100000Y-81750000D03*
%TD*%
%TO.C,D283*%
X147100000Y-114000000D03*
X148200000Y-114000000D03*
X148200000Y-111750000D03*
X147100000Y-111750000D03*
%TD*%
%TO.C,D322*%
X162100000Y-69000000D03*
X163200000Y-69000000D03*
X163200000Y-66750000D03*
X162100000Y-66750000D03*
%TD*%
%TO.C,D508*%
X217100000Y-119000000D03*
X218200000Y-119000000D03*
X218200000Y-116750000D03*
X217100000Y-116750000D03*
%TD*%
%TO.C,D379*%
X177100000Y-114000000D03*
X178200000Y-114000000D03*
X178200000Y-111750000D03*
X177100000Y-111750000D03*
%TD*%
%TO.C,D159*%
X107100000Y-134000000D03*
X108200000Y-134000000D03*
X108200000Y-131750000D03*
X107100000Y-131750000D03*
%TD*%
D15*
%TO.C,R11*%
X111775000Y-35175000D03*
X111775000Y-33175000D03*
%TD*%
D10*
%TO.C,D43*%
X72100000Y-114000000D03*
X73200000Y-114000000D03*
X73200000Y-111750000D03*
X72100000Y-111750000D03*
%TD*%
%TO.C,D1*%
X62100000Y-64000000D03*
X63200000Y-64000000D03*
X63200000Y-61750000D03*
X62100000Y-61750000D03*
%TD*%
%TO.C,D127*%
X97100000Y-134000000D03*
X98200000Y-134000000D03*
X98200000Y-131750000D03*
X97100000Y-131750000D03*
%TD*%
D30*
%TO.C,R30*%
X231875000Y-52475000D03*
X233875000Y-52475000D03*
%TD*%
D10*
%TO.C,D285*%
X147100000Y-124000000D03*
X148200000Y-124000000D03*
X148200000Y-121750000D03*
X147100000Y-121750000D03*
%TD*%
D11*
%TO.C,C17*%
X242362500Y-129325000D03*
X244437500Y-129325000D03*
%TD*%
D10*
%TO.C,D90*%
X87100000Y-109000000D03*
X88200000Y-109000000D03*
X88200000Y-106750000D03*
X87100000Y-106750000D03*
%TD*%
%TO.C,D268*%
X142100000Y-119000000D03*
X143200000Y-119000000D03*
X143200000Y-116750000D03*
X142100000Y-116750000D03*
%TD*%
%TO.C,D471*%
X207100000Y-94000000D03*
X208200000Y-94000000D03*
X208200000Y-91750000D03*
X207100000Y-91750000D03*
%TD*%
D16*
%TO.C,J3*%
X244790000Y-134865000D03*
D17*
X242250000Y-134865000D03*
X239710000Y-134865000D03*
%TD*%
D10*
%TO.C,D82*%
X87100000Y-69000000D03*
X88200000Y-69000000D03*
X88200000Y-66750000D03*
X87100000Y-66750000D03*
%TD*%
%TO.C,D108*%
X92100000Y-119000000D03*
X93200000Y-119000000D03*
X93200000Y-116750000D03*
X92100000Y-116750000D03*
%TD*%
D33*
%TO.C,H3*%
X55900000Y-142100000D03*
%TD*%
D18*
%TO.C,R22*%
X92725000Y-34000000D03*
X92725000Y-36000000D03*
%TD*%
D24*
%TO.C,C13*%
X173325000Y-33200000D03*
X173325000Y-31125000D03*
%TD*%
D10*
%TO.C,D406*%
X187100000Y-89000000D03*
X188200000Y-89000000D03*
X188200000Y-86750000D03*
X187100000Y-86750000D03*
%TD*%
%TO.C,D147*%
X107100000Y-74000000D03*
X108200000Y-74000000D03*
X108200000Y-71750000D03*
X107100000Y-71750000D03*
%TD*%
%TO.C,D221*%
X127100000Y-124000000D03*
X128200000Y-124000000D03*
X128200000Y-121750000D03*
X127100000Y-121750000D03*
%TD*%
%TO.C,D143*%
X102100000Y-134000000D03*
X103200000Y-134000000D03*
X103200000Y-131750000D03*
X102100000Y-131750000D03*
%TD*%
%TO.C,D271*%
X142100000Y-134000000D03*
X143200000Y-134000000D03*
X143200000Y-131750000D03*
X142100000Y-131750000D03*
%TD*%
D24*
%TO.C,C2*%
X246975000Y-59087500D03*
X246975000Y-57012500D03*
%TD*%
D10*
%TO.C,D157*%
X107100000Y-124000000D03*
X108200000Y-124000000D03*
X108200000Y-121750000D03*
X107100000Y-121750000D03*
%TD*%
%TO.C,D444*%
X197100000Y-119000000D03*
X198200000Y-119000000D03*
X198200000Y-116750000D03*
X197100000Y-116750000D03*
%TD*%
%TO.C,D341*%
X167100000Y-84000000D03*
X168200000Y-84000000D03*
X168200000Y-81750000D03*
X167100000Y-81750000D03*
%TD*%
%TO.C,D67*%
X82100000Y-74000000D03*
X83200000Y-74000000D03*
X83200000Y-71750000D03*
X82100000Y-71750000D03*
%TD*%
%TO.C,D163*%
X112100000Y-74000000D03*
X113200000Y-74000000D03*
X113200000Y-71750000D03*
X112100000Y-71750000D03*
%TD*%
%TO.C,D175*%
X112100000Y-134000000D03*
X113200000Y-134000000D03*
X113200000Y-131750000D03*
X112100000Y-131750000D03*
%TD*%
%TO.C,D362*%
X172100000Y-109000000D03*
X173200000Y-109000000D03*
X173200000Y-106750000D03*
X172100000Y-106750000D03*
%TD*%
%TO.C,D275*%
X147100000Y-74000000D03*
X148200000Y-74000000D03*
X148200000Y-71750000D03*
X147100000Y-71750000D03*
%TD*%
%TO.C,D273*%
X147100000Y-64000000D03*
X148200000Y-64000000D03*
X148200000Y-61750000D03*
X147100000Y-61750000D03*
%TD*%
D24*
%TO.C,C23*%
X101500000Y-26637500D03*
X101500000Y-24562500D03*
%TD*%
D10*
%TO.C,D427*%
X192100000Y-114000000D03*
X193200000Y-114000000D03*
X193200000Y-111750000D03*
X192100000Y-111750000D03*
%TD*%
%TO.C,D146*%
X107100000Y-69000000D03*
X108200000Y-69000000D03*
X108200000Y-66750000D03*
X107100000Y-66750000D03*
%TD*%
D13*
%TO.C,R34*%
X209825000Y-46950000D03*
X207825000Y-46950000D03*
%TD*%
D10*
%TO.C,D254*%
X137100000Y-129000000D03*
X138200000Y-129000000D03*
X138200000Y-126750000D03*
X137100000Y-126750000D03*
%TD*%
%TO.C,D385*%
X182100000Y-64000000D03*
X183200000Y-64000000D03*
X183200000Y-61750000D03*
X182100000Y-61750000D03*
%TD*%
%TO.C,D344*%
X167100000Y-99000000D03*
X168200000Y-99000000D03*
X168200000Y-96750000D03*
X167100000Y-96750000D03*
%TD*%
%TO.C,D387*%
X182100000Y-74000000D03*
X183200000Y-74000000D03*
X183200000Y-71750000D03*
X182100000Y-71750000D03*
%TD*%
%TO.C,D103*%
X92100000Y-94000000D03*
X93200000Y-94000000D03*
X93200000Y-91750000D03*
X92100000Y-91750000D03*
%TD*%
D15*
%TO.C,R19*%
X141050000Y-26612500D03*
X141050000Y-24612500D03*
%TD*%
D10*
%TO.C,D162*%
X112100000Y-69000000D03*
X113200000Y-69000000D03*
X113200000Y-66750000D03*
X112100000Y-66750000D03*
%TD*%
%TO.C,D432*%
X192100000Y-139000000D03*
X193200000Y-139000000D03*
X193200000Y-136750000D03*
X192100000Y-136750000D03*
%TD*%
%TO.C,D449*%
X202100000Y-64000000D03*
X203200000Y-64000000D03*
X203200000Y-61750000D03*
X202100000Y-61750000D03*
%TD*%
%TO.C,D481*%
X212100000Y-64000000D03*
X213200000Y-64000000D03*
X213200000Y-61750000D03*
X212100000Y-61750000D03*
%TD*%
%TO.C,D397*%
X182100000Y-124000000D03*
X183200000Y-124000000D03*
X183200000Y-121750000D03*
X182100000Y-121750000D03*
%TD*%
D12*
%TO.C,Q12*%
X222375000Y-115350000D03*
X225375000Y-116300000D03*
X225375000Y-114400000D03*
%TD*%
D10*
%TO.C,D411*%
X187100000Y-114000000D03*
X188200000Y-114000000D03*
X188200000Y-111750000D03*
X187100000Y-111750000D03*
%TD*%
%TO.C,D315*%
X157100000Y-114000000D03*
X158200000Y-114000000D03*
X158200000Y-111750000D03*
X157100000Y-111750000D03*
%TD*%
%TO.C,D490*%
X212100000Y-109000000D03*
X213200000Y-109000000D03*
X213200000Y-106750000D03*
X212100000Y-106750000D03*
%TD*%
%TO.C,D59*%
X77100000Y-114000000D03*
X78200000Y-114000000D03*
X78200000Y-111750000D03*
X77100000Y-111750000D03*
%TD*%
%TO.C,D438*%
X197100000Y-89000000D03*
X198200000Y-89000000D03*
X198200000Y-86750000D03*
X197100000Y-86750000D03*
%TD*%
D34*
%TO.C,U11*%
X212700000Y-29215000D03*
X212700000Y-30485000D03*
X212700000Y-31755000D03*
X212700000Y-33025000D03*
X212700000Y-34295000D03*
X212700000Y-35565000D03*
X212700000Y-36835000D03*
X212700000Y-38105000D03*
X212700000Y-39375000D03*
X212700000Y-40645000D03*
X212700000Y-41915000D03*
X212700000Y-43185000D03*
X212700000Y-44455000D03*
X212700000Y-45725000D03*
D35*
X214465000Y-46975000D03*
X215735000Y-46975000D03*
X217005000Y-46975000D03*
X218275000Y-46975000D03*
X219545000Y-46975000D03*
X220815000Y-46975000D03*
X222085000Y-46975000D03*
X223355000Y-46975000D03*
X224625000Y-46975000D03*
X225895000Y-46975000D03*
X227165000Y-46975000D03*
X228435000Y-46975000D03*
D34*
X230200000Y-45725000D03*
X230200000Y-44455000D03*
X230200000Y-43185000D03*
X230200000Y-41915000D03*
X230200000Y-40645000D03*
X230200000Y-39375000D03*
X230200000Y-38105000D03*
X230200000Y-36835000D03*
X230200000Y-35565000D03*
X230200000Y-34295000D03*
X230200000Y-33025000D03*
X230200000Y-31755000D03*
X230200000Y-30485000D03*
X230200000Y-29215000D03*
D36*
X218550000Y-36235000D03*
X218550000Y-37635000D03*
X219250000Y-35535000D03*
X219250000Y-36935000D03*
X219250000Y-38335000D03*
X219950000Y-36235000D03*
D37*
X219950000Y-36935000D03*
D36*
X219950000Y-37635000D03*
X220650000Y-35535000D03*
X220650000Y-36935000D03*
X220650000Y-38335000D03*
X221350000Y-36235000D03*
X221350000Y-37635000D03*
%TD*%
D12*
%TO.C,Q9*%
X222375000Y-100350000D03*
X225375000Y-101300000D03*
X225375000Y-99400000D03*
%TD*%
D24*
%TO.C,C10*%
X121950000Y-26662500D03*
X121950000Y-24587500D03*
%TD*%
D10*
%TO.C,D131*%
X102100000Y-74000000D03*
X103200000Y-74000000D03*
X103200000Y-71750000D03*
X102100000Y-71750000D03*
%TD*%
%TO.C,D11*%
X62100000Y-114000000D03*
X63200000Y-114000000D03*
X63200000Y-111750000D03*
X62100000Y-111750000D03*
%TD*%
%TO.C,D324*%
X162100000Y-79000000D03*
X163200000Y-79000000D03*
X163200000Y-76750000D03*
X162100000Y-76750000D03*
%TD*%
%TO.C,D269*%
X142100000Y-124000000D03*
X143200000Y-124000000D03*
X143200000Y-121750000D03*
X142100000Y-121750000D03*
%TD*%
%TO.C,D284*%
X147100000Y-119000000D03*
X148200000Y-119000000D03*
X148200000Y-116750000D03*
X147100000Y-116750000D03*
%TD*%
%TO.C,D201*%
X122100000Y-104000000D03*
X123200000Y-104000000D03*
X123200000Y-101750000D03*
X122100000Y-101750000D03*
%TD*%
%TO.C,D343*%
X167100000Y-94000000D03*
X168200000Y-94000000D03*
X168200000Y-91750000D03*
X167100000Y-91750000D03*
%TD*%
%TO.C,D264*%
X142100000Y-99000000D03*
X143200000Y-99000000D03*
X143200000Y-96750000D03*
X142100000Y-96750000D03*
%TD*%
%TO.C,D92*%
X87100000Y-119000000D03*
X88200000Y-119000000D03*
X88200000Y-116750000D03*
X87100000Y-116750000D03*
%TD*%
%TO.C,D244*%
X137100000Y-79000000D03*
X138200000Y-79000000D03*
X138200000Y-76750000D03*
X137100000Y-76750000D03*
%TD*%
%TO.C,D9*%
X62100000Y-104000000D03*
X63200000Y-104000000D03*
X63200000Y-101750000D03*
X62100000Y-101750000D03*
%TD*%
%TO.C,D311*%
X157100000Y-94000000D03*
X158200000Y-94000000D03*
X158200000Y-91750000D03*
X157100000Y-91750000D03*
%TD*%
%TO.C,D238*%
X132100000Y-129000000D03*
X133200000Y-129000000D03*
X133200000Y-126750000D03*
X132100000Y-126750000D03*
%TD*%
%TO.C,D28*%
X67100000Y-119000000D03*
X68200000Y-119000000D03*
X68200000Y-116750000D03*
X67100000Y-116750000D03*
%TD*%
%TO.C,D419*%
X192100000Y-74000000D03*
X193200000Y-74000000D03*
X193200000Y-71750000D03*
X192100000Y-71750000D03*
%TD*%
D15*
%TO.C,R2*%
X247525000Y-53300000D03*
X247525000Y-51300000D03*
%TD*%
D10*
%TO.C,D439*%
X197100000Y-94000000D03*
X198200000Y-94000000D03*
X198200000Y-91750000D03*
X197100000Y-91750000D03*
%TD*%
D38*
%TO.C,SW2*%
X184575000Y-23525000D03*
X193675000Y-23525000D03*
X184575000Y-28025000D03*
X193675000Y-28025000D03*
%TD*%
D10*
%TO.C,D101*%
X92100000Y-84000000D03*
X93200000Y-84000000D03*
X93200000Y-81750000D03*
X92100000Y-81750000D03*
%TD*%
%TO.C,D382*%
X177100000Y-129000000D03*
X178200000Y-129000000D03*
X178200000Y-126750000D03*
X177100000Y-126750000D03*
%TD*%
%TO.C,D214*%
X127100000Y-89000000D03*
X128200000Y-89000000D03*
X128200000Y-86750000D03*
X127100000Y-86750000D03*
%TD*%
%TO.C,D100*%
X92100000Y-79000000D03*
X93200000Y-79000000D03*
X93200000Y-76750000D03*
X92100000Y-76750000D03*
%TD*%
%TO.C,D391*%
X182100000Y-94000000D03*
X183200000Y-94000000D03*
X183200000Y-91750000D03*
X182100000Y-91750000D03*
%TD*%
D23*
%TO.C,D516*%
X245300000Y-46575000D03*
X245300000Y-48325000D03*
%TD*%
D10*
%TO.C,D69*%
X82100000Y-84000000D03*
X83200000Y-84000000D03*
X83200000Y-81750000D03*
X82100000Y-81750000D03*
%TD*%
%TO.C,D233*%
X132100000Y-104000000D03*
X133200000Y-104000000D03*
X133200000Y-101750000D03*
X132100000Y-101750000D03*
%TD*%
%TO.C,D135*%
X102100000Y-94000000D03*
X103200000Y-94000000D03*
X103200000Y-91750000D03*
X102100000Y-91750000D03*
%TD*%
%TO.C,D153*%
X107100000Y-104000000D03*
X108200000Y-104000000D03*
X108200000Y-101750000D03*
X107100000Y-101750000D03*
%TD*%
%TO.C,D291*%
X152100000Y-74000000D03*
X153200000Y-74000000D03*
X153200000Y-71750000D03*
X152100000Y-71750000D03*
%TD*%
%TO.C,D145*%
X107100000Y-64000000D03*
X108200000Y-64000000D03*
X108200000Y-61750000D03*
X107100000Y-61750000D03*
%TD*%
D24*
%TO.C,C20*%
X178025000Y-28012500D03*
X178025000Y-25937500D03*
%TD*%
D10*
%TO.C,D483*%
X212100000Y-74000000D03*
X213200000Y-74000000D03*
X213200000Y-71750000D03*
X212100000Y-71750000D03*
%TD*%
%TO.C,D463*%
X202100000Y-134000000D03*
X203200000Y-134000000D03*
X203200000Y-131750000D03*
X202100000Y-131750000D03*
%TD*%
%TO.C,D377*%
X177100000Y-104000000D03*
X178200000Y-104000000D03*
X178200000Y-101750000D03*
X177100000Y-101750000D03*
%TD*%
%TO.C,D98*%
X92100000Y-69000000D03*
X93200000Y-69000000D03*
X93200000Y-66750000D03*
X92100000Y-66750000D03*
%TD*%
%TO.C,D489*%
X212100000Y-104000000D03*
X213200000Y-104000000D03*
X213200000Y-101750000D03*
X212100000Y-101750000D03*
%TD*%
D12*
%TO.C,Q7*%
X222375000Y-90350000D03*
X225375000Y-91300000D03*
X225375000Y-89400000D03*
%TD*%
D10*
%TO.C,D252*%
X137100000Y-119000000D03*
X138200000Y-119000000D03*
X138200000Y-116750000D03*
X137100000Y-116750000D03*
%TD*%
%TO.C,D274*%
X147100000Y-69000000D03*
X148200000Y-69000000D03*
X148200000Y-66750000D03*
X147100000Y-66750000D03*
%TD*%
%TO.C,D75*%
X82100000Y-114000000D03*
X83200000Y-114000000D03*
X83200000Y-111750000D03*
X82100000Y-111750000D03*
%TD*%
%TO.C,D228*%
X132100000Y-79000000D03*
X133200000Y-79000000D03*
X133200000Y-76750000D03*
X132100000Y-76750000D03*
%TD*%
%TO.C,D476*%
X207100000Y-119000000D03*
X208200000Y-119000000D03*
X208200000Y-116750000D03*
X207100000Y-116750000D03*
%TD*%
D12*
%TO.C,Q2*%
X222375000Y-65350000D03*
X225375000Y-66300000D03*
X225375000Y-64400000D03*
%TD*%
D10*
%TO.C,D495*%
X212100000Y-134000000D03*
X213200000Y-134000000D03*
X213200000Y-131750000D03*
X212100000Y-131750000D03*
%TD*%
%TO.C,D347*%
X167100000Y-114000000D03*
X168200000Y-114000000D03*
X168200000Y-111750000D03*
X167100000Y-111750000D03*
%TD*%
%TO.C,D85*%
X87100000Y-84000000D03*
X88200000Y-84000000D03*
X88200000Y-81750000D03*
X87100000Y-81750000D03*
%TD*%
%TO.C,D128*%
X97100000Y-139000000D03*
X98200000Y-139000000D03*
X98200000Y-136750000D03*
X97100000Y-136750000D03*
%TD*%
%TO.C,D156*%
X107100000Y-119000000D03*
X108200000Y-119000000D03*
X108200000Y-116750000D03*
X107100000Y-116750000D03*
%TD*%
%TO.C,D300*%
X152100000Y-119000000D03*
X153200000Y-119000000D03*
X153200000Y-116750000D03*
X152100000Y-116750000D03*
%TD*%
%TO.C,D48*%
X72100000Y-139000000D03*
X73200000Y-139000000D03*
X73200000Y-136750000D03*
X72100000Y-136750000D03*
%TD*%
%TO.C,D32*%
X67100000Y-139000000D03*
X68200000Y-139000000D03*
X68200000Y-136750000D03*
X67100000Y-136750000D03*
%TD*%
%TO.C,D250*%
X137100000Y-109000000D03*
X138200000Y-109000000D03*
X138200000Y-106750000D03*
X137100000Y-106750000D03*
%TD*%
%TO.C,D364*%
X172100000Y-119000000D03*
X173200000Y-119000000D03*
X173200000Y-116750000D03*
X172100000Y-116750000D03*
%TD*%
%TO.C,D279*%
X147100000Y-94000000D03*
X148200000Y-94000000D03*
X148200000Y-91750000D03*
X147100000Y-91750000D03*
%TD*%
%TO.C,D512*%
X217100000Y-139000000D03*
X218200000Y-139000000D03*
X218200000Y-136750000D03*
X217100000Y-136750000D03*
%TD*%
%TO.C,D414*%
X187100000Y-129000000D03*
X188200000Y-129000000D03*
X188200000Y-126750000D03*
X187100000Y-126750000D03*
%TD*%
%TO.C,D15*%
X62100000Y-134000000D03*
X63200000Y-134000000D03*
X63200000Y-131750000D03*
X62100000Y-131750000D03*
%TD*%
D18*
%TO.C,R35*%
X249525000Y-55475000D03*
X249525000Y-57475000D03*
%TD*%
D10*
%TO.C,D386*%
X182100000Y-69000000D03*
X183200000Y-69000000D03*
X183200000Y-66750000D03*
X182100000Y-66750000D03*
%TD*%
%TO.C,D212*%
X127100000Y-79000000D03*
X128200000Y-79000000D03*
X128200000Y-76750000D03*
X127100000Y-76750000D03*
%TD*%
%TO.C,D42*%
X72100000Y-109000000D03*
X73200000Y-109000000D03*
X73200000Y-106750000D03*
X72100000Y-106750000D03*
%TD*%
%TO.C,D287*%
X147100000Y-134000000D03*
X148200000Y-134000000D03*
X148200000Y-131750000D03*
X147100000Y-131750000D03*
%TD*%
%TO.C,D189*%
X117100000Y-124000000D03*
X118200000Y-124000000D03*
X118200000Y-121750000D03*
X117100000Y-121750000D03*
%TD*%
%TO.C,D261*%
X142100000Y-84000000D03*
X143200000Y-84000000D03*
X143200000Y-81750000D03*
X142100000Y-81750000D03*
%TD*%
%TO.C,D227*%
X132100000Y-74000000D03*
X133200000Y-74000000D03*
X133200000Y-71750000D03*
X132100000Y-71750000D03*
%TD*%
%TO.C,D202*%
X122100000Y-109000000D03*
X123200000Y-109000000D03*
X123200000Y-106750000D03*
X122100000Y-106750000D03*
%TD*%
%TO.C,D306*%
X157100000Y-69000000D03*
X158200000Y-69000000D03*
X158200000Y-66750000D03*
X157100000Y-66750000D03*
%TD*%
%TO.C,D441*%
X197100000Y-104000000D03*
X198200000Y-104000000D03*
X198200000Y-101750000D03*
X197100000Y-101750000D03*
%TD*%
%TO.C,D174*%
X112100000Y-129000000D03*
X113200000Y-129000000D03*
X113200000Y-126750000D03*
X112100000Y-126750000D03*
%TD*%
D24*
%TO.C,C19*%
X237075000Y-39087500D03*
X237075000Y-37012500D03*
%TD*%
D12*
%TO.C,Q14*%
X222375000Y-125350000D03*
X225375000Y-126300000D03*
X225375000Y-124400000D03*
%TD*%
D10*
%TO.C,D168*%
X112100000Y-99000000D03*
X113200000Y-99000000D03*
X113200000Y-96750000D03*
X112100000Y-96750000D03*
%TD*%
%TO.C,D461*%
X202100000Y-124000000D03*
X203200000Y-124000000D03*
X203200000Y-121750000D03*
X202100000Y-121750000D03*
%TD*%
D24*
%TO.C,C25*%
X135825000Y-26650000D03*
X135825000Y-24575000D03*
%TD*%
D10*
%TO.C,D332*%
X162100000Y-119000000D03*
X163200000Y-119000000D03*
X163200000Y-116750000D03*
X162100000Y-116750000D03*
%TD*%
%TO.C,D510*%
X217100000Y-129000000D03*
X218200000Y-129000000D03*
X218200000Y-126750000D03*
X217100000Y-126750000D03*
%TD*%
%TO.C,D475*%
X207100000Y-114000000D03*
X208200000Y-114000000D03*
X208200000Y-111750000D03*
X207100000Y-111750000D03*
%TD*%
D15*
%TO.C,R21*%
X175950000Y-33162500D03*
X175950000Y-31162500D03*
%TD*%
D24*
%TO.C,C14*%
X180950000Y-28012500D03*
X180950000Y-25937500D03*
%TD*%
D10*
%TO.C,D331*%
X162100000Y-114000000D03*
X163200000Y-114000000D03*
X163200000Y-111750000D03*
X162100000Y-111750000D03*
%TD*%
%TO.C,D371*%
X177100000Y-74000000D03*
X178200000Y-74000000D03*
X178200000Y-71750000D03*
X177100000Y-71750000D03*
%TD*%
%TO.C,D327*%
X162100000Y-94000000D03*
X163200000Y-94000000D03*
X163200000Y-91750000D03*
X162100000Y-91750000D03*
%TD*%
D18*
%TO.C,R26*%
X161675000Y-30275000D03*
X161675000Y-32275000D03*
%TD*%
D10*
%TO.C,D350*%
X167100000Y-129000000D03*
X168200000Y-129000000D03*
X168200000Y-126750000D03*
X167100000Y-126750000D03*
%TD*%
%TO.C,D81*%
X87100000Y-64000000D03*
X88200000Y-64000000D03*
X88200000Y-61750000D03*
X87100000Y-61750000D03*
%TD*%
%TO.C,D502*%
X217100000Y-89000000D03*
X218200000Y-89000000D03*
X218200000Y-86750000D03*
X217100000Y-86750000D03*
%TD*%
%TO.C,D76*%
X82100000Y-119000000D03*
X83200000Y-119000000D03*
X83200000Y-116750000D03*
X82100000Y-116750000D03*
%TD*%
%TO.C,D107*%
X92100000Y-114000000D03*
X93200000Y-114000000D03*
X93200000Y-111750000D03*
X92100000Y-111750000D03*
%TD*%
%TO.C,D484*%
X212100000Y-79000000D03*
X213200000Y-79000000D03*
X213200000Y-76750000D03*
X212100000Y-76750000D03*
%TD*%
%TO.C,D456*%
X202100000Y-99000000D03*
X203200000Y-99000000D03*
X203200000Y-96750000D03*
X202100000Y-96750000D03*
%TD*%
D24*
%TO.C,C9*%
X104100000Y-26637500D03*
X104100000Y-24562500D03*
%TD*%
D10*
%TO.C,D58*%
X77100000Y-109000000D03*
X78200000Y-109000000D03*
X78200000Y-106750000D03*
X77100000Y-106750000D03*
%TD*%
%TO.C,D104*%
X92100000Y-99000000D03*
X93200000Y-99000000D03*
X93200000Y-96750000D03*
X92100000Y-96750000D03*
%TD*%
%TO.C,D196*%
X122100000Y-79000000D03*
X123200000Y-79000000D03*
X123200000Y-76750000D03*
X122100000Y-76750000D03*
%TD*%
%TO.C,D302*%
X152100000Y-129000000D03*
X153200000Y-129000000D03*
X153200000Y-126750000D03*
X152100000Y-126750000D03*
%TD*%
%TO.C,D66*%
X82100000Y-69000000D03*
X83200000Y-69000000D03*
X83200000Y-66750000D03*
X82100000Y-66750000D03*
%TD*%
%TO.C,D496*%
X212100000Y-139000000D03*
X213200000Y-139000000D03*
X213200000Y-136750000D03*
X212100000Y-136750000D03*
%TD*%
D13*
%TO.C,R38*%
X233875000Y-55025000D03*
X231875000Y-55025000D03*
%TD*%
D10*
%TO.C,D111*%
X92100000Y-134000000D03*
X93200000Y-134000000D03*
X93200000Y-131750000D03*
X92100000Y-131750000D03*
%TD*%
%TO.C,D181*%
X117100000Y-84000000D03*
X118200000Y-84000000D03*
X118200000Y-81750000D03*
X117100000Y-81750000D03*
%TD*%
%TO.C,D506*%
X217100000Y-109000000D03*
X218200000Y-109000000D03*
X218200000Y-106750000D03*
X217100000Y-106750000D03*
%TD*%
%TO.C,D230*%
X132100000Y-89000000D03*
X133200000Y-89000000D03*
X133200000Y-86750000D03*
X132100000Y-86750000D03*
%TD*%
%TO.C,D469*%
X207100000Y-84000000D03*
X208200000Y-84000000D03*
X208200000Y-81750000D03*
X207100000Y-81750000D03*
%TD*%
%TO.C,D124*%
X97100000Y-119000000D03*
X98200000Y-119000000D03*
X98200000Y-116750000D03*
X97100000Y-116750000D03*
%TD*%
D39*
%TO.C,J7*%
X253870000Y-52770000D03*
X253870000Y-46990000D03*
D40*
X252645000Y-53080000D03*
X252645000Y-52280000D03*
D41*
X252645000Y-51130000D03*
X252645000Y-50130000D03*
X252645000Y-49630000D03*
X252645000Y-48630000D03*
D40*
X252645000Y-47480000D03*
X252645000Y-46680000D03*
X252645000Y-46680000D03*
X252645000Y-47480000D03*
D41*
X252645000Y-48130000D03*
X252645000Y-49130000D03*
X252645000Y-50630000D03*
X252645000Y-51630000D03*
D40*
X252645000Y-52280000D03*
X252645000Y-53080000D03*
D42*
X253370000Y-54200000D03*
D43*
X257550000Y-54200000D03*
D42*
X253370000Y-45560000D03*
D43*
X257550000Y-45560000D03*
%TD*%
D10*
%TO.C,D239*%
X132100000Y-134000000D03*
X133200000Y-134000000D03*
X133200000Y-131750000D03*
X132100000Y-131750000D03*
%TD*%
%TO.C,D34*%
X72100000Y-69000000D03*
X73200000Y-69000000D03*
X73200000Y-66750000D03*
X72100000Y-66750000D03*
%TD*%
%TO.C,D272*%
X142100000Y-139000000D03*
X143200000Y-139000000D03*
X143200000Y-136750000D03*
X142100000Y-136750000D03*
%TD*%
%TO.C,D345*%
X167100000Y-104000000D03*
X168200000Y-104000000D03*
X168200000Y-101750000D03*
X167100000Y-101750000D03*
%TD*%
%TO.C,D2*%
X62100000Y-69000000D03*
X63200000Y-69000000D03*
X63200000Y-66750000D03*
X62100000Y-66750000D03*
%TD*%
%TO.C,D333*%
X162100000Y-124000000D03*
X163200000Y-124000000D03*
X163200000Y-121750000D03*
X162100000Y-121750000D03*
%TD*%
%TO.C,D455*%
X202100000Y-94000000D03*
X203200000Y-94000000D03*
X203200000Y-91750000D03*
X202100000Y-91750000D03*
%TD*%
%TO.C,D433*%
X197100000Y-64000000D03*
X198200000Y-64000000D03*
X198200000Y-61750000D03*
X197100000Y-61750000D03*
%TD*%
%TO.C,D190*%
X117100000Y-129000000D03*
X118200000Y-129000000D03*
X118200000Y-126750000D03*
X117100000Y-126750000D03*
%TD*%
%TO.C,D114*%
X97100000Y-69000000D03*
X98200000Y-69000000D03*
X98200000Y-66750000D03*
X97100000Y-66750000D03*
%TD*%
%TO.C,D217*%
X127100000Y-104000000D03*
X128200000Y-104000000D03*
X128200000Y-101750000D03*
X127100000Y-101750000D03*
%TD*%
%TO.C,D237*%
X132100000Y-124000000D03*
X133200000Y-124000000D03*
X133200000Y-121750000D03*
X132100000Y-121750000D03*
%TD*%
D18*
%TO.C,R28*%
X201175000Y-29250000D03*
X201175000Y-31250000D03*
%TD*%
D10*
%TO.C,D94*%
X87100000Y-129000000D03*
X88200000Y-129000000D03*
X88200000Y-126750000D03*
X87100000Y-126750000D03*
%TD*%
%TO.C,D210*%
X127100000Y-69000000D03*
X128200000Y-69000000D03*
X128200000Y-66750000D03*
X127100000Y-66750000D03*
%TD*%
%TO.C,D180*%
X117100000Y-79000000D03*
X118200000Y-79000000D03*
X118200000Y-76750000D03*
X117100000Y-76750000D03*
%TD*%
%TO.C,D394*%
X182100000Y-109000000D03*
X183200000Y-109000000D03*
X183200000Y-106750000D03*
X182100000Y-106750000D03*
%TD*%
D13*
%TO.C,R31*%
X233875000Y-57575000D03*
X231875000Y-57575000D03*
%TD*%
D10*
%TO.C,D257*%
X142100000Y-64000000D03*
X143200000Y-64000000D03*
X143200000Y-61750000D03*
X142100000Y-61750000D03*
%TD*%
D15*
%TO.C,R18*%
X124575000Y-26625000D03*
X124575000Y-24625000D03*
%TD*%
D31*
%TO.C,C1*%
X257550000Y-56742500D03*
X257550000Y-58817500D03*
%TD*%
D10*
%TO.C,D468*%
X207100000Y-79000000D03*
X208200000Y-79000000D03*
X208200000Y-76750000D03*
X207100000Y-76750000D03*
%TD*%
%TO.C,D277*%
X147100000Y-84000000D03*
X148200000Y-84000000D03*
X148200000Y-81750000D03*
X147100000Y-81750000D03*
%TD*%
%TO.C,D44*%
X72100000Y-119000000D03*
X73200000Y-119000000D03*
X73200000Y-116750000D03*
X72100000Y-116750000D03*
%TD*%
%TO.C,D408*%
X187100000Y-99000000D03*
X188200000Y-99000000D03*
X188200000Y-96750000D03*
X187100000Y-96750000D03*
%TD*%
D24*
%TO.C,C16*%
X206300000Y-31287500D03*
X206300000Y-29212500D03*
%TD*%
D10*
%TO.C,D501*%
X217100000Y-84000000D03*
X218200000Y-84000000D03*
X218200000Y-81750000D03*
X217100000Y-81750000D03*
%TD*%
%TO.C,D437*%
X197100000Y-84000000D03*
X198200000Y-84000000D03*
X198200000Y-81750000D03*
X197100000Y-81750000D03*
%TD*%
%TO.C,D292*%
X152100000Y-79000000D03*
X153200000Y-79000000D03*
X153200000Y-76750000D03*
X152100000Y-76750000D03*
%TD*%
%TO.C,D173*%
X112100000Y-124000000D03*
X113200000Y-124000000D03*
X113200000Y-121750000D03*
X112100000Y-121750000D03*
%TD*%
%TO.C,D393*%
X182100000Y-104000000D03*
X183200000Y-104000000D03*
X183200000Y-101750000D03*
X182100000Y-101750000D03*
%TD*%
%TO.C,D236*%
X132100000Y-119000000D03*
X133200000Y-119000000D03*
X133200000Y-116750000D03*
X132100000Y-116750000D03*
%TD*%
%TO.C,D14*%
X62100000Y-129000000D03*
X63200000Y-129000000D03*
X63200000Y-126750000D03*
X62100000Y-126750000D03*
%TD*%
%TO.C,D442*%
X197100000Y-109000000D03*
X198200000Y-109000000D03*
X198200000Y-106750000D03*
X197100000Y-106750000D03*
%TD*%
%TO.C,D91*%
X87100000Y-114000000D03*
X88200000Y-114000000D03*
X88200000Y-111750000D03*
X87100000Y-111750000D03*
%TD*%
%TO.C,D199*%
X122100000Y-94000000D03*
X123200000Y-94000000D03*
X123200000Y-91750000D03*
X122100000Y-91750000D03*
%TD*%
%TO.C,D395*%
X182100000Y-114000000D03*
X183200000Y-114000000D03*
X183200000Y-111750000D03*
X182100000Y-111750000D03*
%TD*%
%TO.C,D417*%
X192100000Y-64000000D03*
X193200000Y-64000000D03*
X193200000Y-61750000D03*
X192100000Y-61750000D03*
%TD*%
%TO.C,D209*%
X127100000Y-64000000D03*
X128200000Y-64000000D03*
X128200000Y-61750000D03*
X127100000Y-61750000D03*
%TD*%
%TO.C,D130*%
X102100000Y-69000000D03*
X103200000Y-69000000D03*
X103200000Y-66750000D03*
X102100000Y-66750000D03*
%TD*%
%TO.C,D203*%
X122100000Y-114000000D03*
X123200000Y-114000000D03*
X123200000Y-111750000D03*
X122100000Y-111750000D03*
%TD*%
%TO.C,D241*%
X137100000Y-64000000D03*
X138200000Y-64000000D03*
X138200000Y-61750000D03*
X137100000Y-61750000D03*
%TD*%
%TO.C,D234*%
X132100000Y-109000000D03*
X133200000Y-109000000D03*
X133200000Y-106750000D03*
X132100000Y-106750000D03*
%TD*%
D24*
%TO.C,C8*%
X85137500Y-33750000D03*
X85137500Y-31675000D03*
%TD*%
D10*
%TO.C,D472*%
X207100000Y-99000000D03*
X208200000Y-99000000D03*
X208200000Y-96750000D03*
X207100000Y-96750000D03*
%TD*%
%TO.C,D459*%
X202100000Y-114000000D03*
X203200000Y-114000000D03*
X203200000Y-111750000D03*
X202100000Y-111750000D03*
%TD*%
%TO.C,D462*%
X202100000Y-129000000D03*
X203200000Y-129000000D03*
X203200000Y-126750000D03*
X202100000Y-126750000D03*
%TD*%
D44*
%TO.C,U12*%
X245785000Y-126850000D03*
X245785000Y-125900000D03*
X245785000Y-124950000D03*
X242365000Y-124950000D03*
X242365000Y-125900000D03*
X242365000Y-126850000D03*
%TD*%
D10*
%TO.C,D474*%
X207100000Y-109000000D03*
X208200000Y-109000000D03*
X208200000Y-106750000D03*
X207100000Y-106750000D03*
%TD*%
%TO.C,D359*%
X172100000Y-94000000D03*
X173200000Y-94000000D03*
X173200000Y-91750000D03*
X172100000Y-91750000D03*
%TD*%
%TO.C,D243*%
X137100000Y-74000000D03*
X138200000Y-74000000D03*
X138200000Y-71750000D03*
X137100000Y-71750000D03*
%TD*%
%TO.C,D482*%
X212100000Y-69000000D03*
X213200000Y-69000000D03*
X213200000Y-66750000D03*
X212100000Y-66750000D03*
%TD*%
D28*
%TO.C,U7*%
X121425000Y-34225000D03*
D29*
X118575000Y-30000000D03*
X118575000Y-30650000D03*
X118575000Y-31300000D03*
X118575000Y-31950000D03*
X118575000Y-32600000D03*
X118575000Y-33250000D03*
X118575000Y-33900000D03*
X118575000Y-34550000D03*
X118575000Y-35200000D03*
X118575000Y-35850000D03*
X118575000Y-36500000D03*
X118575000Y-37150000D03*
X118575000Y-37800000D03*
X118575000Y-38450000D03*
X124275000Y-38450000D03*
X124275000Y-37800000D03*
X124275000Y-37150000D03*
X124275000Y-36500000D03*
X124275000Y-35850000D03*
X124275000Y-35200000D03*
X124275000Y-34550000D03*
X124275000Y-33900000D03*
X124275000Y-33250000D03*
X124275000Y-32600000D03*
X124275000Y-31950000D03*
X124275000Y-31300000D03*
X124275000Y-30650000D03*
X124275000Y-30000000D03*
%TD*%
D10*
%TO.C,D204*%
X122100000Y-119000000D03*
X123200000Y-119000000D03*
X123200000Y-116750000D03*
X122100000Y-116750000D03*
%TD*%
%TO.C,D436*%
X197100000Y-79000000D03*
X198200000Y-79000000D03*
X198200000Y-76750000D03*
X197100000Y-76750000D03*
%TD*%
%TO.C,D232*%
X132100000Y-99000000D03*
X133200000Y-99000000D03*
X133200000Y-96750000D03*
X132100000Y-96750000D03*
%TD*%
%TO.C,D142*%
X102100000Y-129000000D03*
X103200000Y-129000000D03*
X103200000Y-126750000D03*
X102100000Y-126750000D03*
%TD*%
%TO.C,D447*%
X197100000Y-134000000D03*
X198200000Y-134000000D03*
X198200000Y-131750000D03*
X197100000Y-131750000D03*
%TD*%
D16*
%TO.C,J4*%
X251850000Y-116237500D03*
D17*
X251850000Y-113697500D03*
%TD*%
D10*
%TO.C,D504*%
X217100000Y-99000000D03*
X218200000Y-99000000D03*
X218200000Y-96750000D03*
X217100000Y-96750000D03*
%TD*%
%TO.C,D299*%
X152100000Y-114000000D03*
X153200000Y-114000000D03*
X153200000Y-111750000D03*
X152100000Y-111750000D03*
%TD*%
%TO.C,D186*%
X117100000Y-109000000D03*
X118200000Y-109000000D03*
X118200000Y-106750000D03*
X117100000Y-106750000D03*
%TD*%
%TO.C,D390*%
X182100000Y-89000000D03*
X183200000Y-89000000D03*
X183200000Y-86750000D03*
X182100000Y-86750000D03*
%TD*%
%TO.C,D89*%
X87100000Y-104000000D03*
X88200000Y-104000000D03*
X88200000Y-101750000D03*
X87100000Y-101750000D03*
%TD*%
%TO.C,D17*%
X67100000Y-64000000D03*
X68200000Y-64000000D03*
X68200000Y-61750000D03*
X67100000Y-61750000D03*
%TD*%
D31*
%TO.C,C6*%
X202075000Y-40387500D03*
X202075000Y-42462500D03*
%TD*%
D10*
%TO.C,D412*%
X187100000Y-119000000D03*
X188200000Y-119000000D03*
X188200000Y-116750000D03*
X187100000Y-116750000D03*
%TD*%
%TO.C,D316*%
X157100000Y-119000000D03*
X158200000Y-119000000D03*
X158200000Y-116750000D03*
X157100000Y-116750000D03*
%TD*%
%TO.C,D286*%
X147100000Y-129000000D03*
X148200000Y-129000000D03*
X148200000Y-126750000D03*
X147100000Y-126750000D03*
%TD*%
%TO.C,D218*%
X127100000Y-109000000D03*
X128200000Y-109000000D03*
X128200000Y-106750000D03*
X127100000Y-106750000D03*
%TD*%
%TO.C,D380*%
X177100000Y-119000000D03*
X178200000Y-119000000D03*
X178200000Y-116750000D03*
X177100000Y-116750000D03*
%TD*%
%TO.C,D425*%
X192100000Y-104000000D03*
X193200000Y-104000000D03*
X193200000Y-101750000D03*
X192100000Y-101750000D03*
%TD*%
%TO.C,D231*%
X132100000Y-94000000D03*
X133200000Y-94000000D03*
X133200000Y-91750000D03*
X132100000Y-91750000D03*
%TD*%
%TO.C,D129*%
X102100000Y-64000000D03*
X103200000Y-64000000D03*
X103200000Y-61750000D03*
X102100000Y-61750000D03*
%TD*%
%TO.C,D112*%
X92100000Y-139000000D03*
X93200000Y-139000000D03*
X93200000Y-136750000D03*
X92100000Y-136750000D03*
%TD*%
%TO.C,D71*%
X82100000Y-94000000D03*
X83200000Y-94000000D03*
X83200000Y-91750000D03*
X82100000Y-91750000D03*
%TD*%
%TO.C,D24*%
X67100000Y-99000000D03*
X68200000Y-99000000D03*
X68200000Y-96750000D03*
X67100000Y-96750000D03*
%TD*%
%TO.C,D446*%
X197100000Y-129000000D03*
X198200000Y-129000000D03*
X198200000Y-126750000D03*
X197100000Y-126750000D03*
%TD*%
%TO.C,D429*%
X192100000Y-124000000D03*
X193200000Y-124000000D03*
X193200000Y-121750000D03*
X192100000Y-121750000D03*
%TD*%
%TO.C,D53*%
X77100000Y-84000000D03*
X78200000Y-84000000D03*
X78200000Y-81750000D03*
X77100000Y-81750000D03*
%TD*%
%TO.C,D511*%
X217100000Y-134000000D03*
X218200000Y-134000000D03*
X218200000Y-131750000D03*
X217100000Y-131750000D03*
%TD*%
D21*
%TO.C,C5*%
X241937500Y-78525000D03*
X239862500Y-78525000D03*
%TD*%
D10*
%TO.C,D256*%
X137100000Y-139000000D03*
X138200000Y-139000000D03*
X138200000Y-136750000D03*
X137100000Y-136750000D03*
%TD*%
%TO.C,D187*%
X117100000Y-114000000D03*
X118200000Y-114000000D03*
X118200000Y-111750000D03*
X117100000Y-111750000D03*
%TD*%
%TO.C,D166*%
X112100000Y-89000000D03*
X113200000Y-89000000D03*
X113200000Y-86750000D03*
X112100000Y-86750000D03*
%TD*%
%TO.C,D434*%
X197100000Y-69000000D03*
X198200000Y-69000000D03*
X198200000Y-66750000D03*
X197100000Y-66750000D03*
%TD*%
%TO.C,D118*%
X97100000Y-89000000D03*
X98200000Y-89000000D03*
X98200000Y-86750000D03*
X97100000Y-86750000D03*
%TD*%
D24*
%TO.C,C22*%
X82537500Y-33750000D03*
X82537500Y-31675000D03*
%TD*%
D10*
%TO.C,D95*%
X87100000Y-134000000D03*
X88200000Y-134000000D03*
X88200000Y-131750000D03*
X87100000Y-131750000D03*
%TD*%
%TO.C,D276*%
X147100000Y-79000000D03*
X148200000Y-79000000D03*
X148200000Y-76750000D03*
X147100000Y-76750000D03*
%TD*%
D33*
%TO.C,H4*%
X255150000Y-142100000D03*
%TD*%
D10*
%TO.C,D251*%
X137100000Y-114000000D03*
X138200000Y-114000000D03*
X138200000Y-111750000D03*
X137100000Y-111750000D03*
%TD*%
%TO.C,D245*%
X137100000Y-84000000D03*
X138200000Y-84000000D03*
X138200000Y-81750000D03*
X137100000Y-81750000D03*
%TD*%
%TO.C,D207*%
X122100000Y-134000000D03*
X123200000Y-134000000D03*
X123200000Y-131750000D03*
X122100000Y-131750000D03*
%TD*%
%TO.C,D428*%
X192100000Y-119000000D03*
X193200000Y-119000000D03*
X193200000Y-116750000D03*
X192100000Y-116750000D03*
%TD*%
%TO.C,D213*%
X127100000Y-84000000D03*
X128200000Y-84000000D03*
X128200000Y-81750000D03*
X127100000Y-81750000D03*
%TD*%
%TO.C,D372*%
X177100000Y-79000000D03*
X178200000Y-79000000D03*
X178200000Y-76750000D03*
X177100000Y-76750000D03*
%TD*%
%TO.C,D388*%
X182100000Y-79000000D03*
X183200000Y-79000000D03*
X183200000Y-76750000D03*
X182100000Y-76750000D03*
%TD*%
D24*
%TO.C,C4*%
X254790000Y-67237500D03*
X254790000Y-65162500D03*
%TD*%
D10*
%TO.C,D79*%
X82100000Y-134000000D03*
X83200000Y-134000000D03*
X83200000Y-131750000D03*
X82100000Y-131750000D03*
%TD*%
%TO.C,D198*%
X122100000Y-89000000D03*
X123200000Y-89000000D03*
X123200000Y-86750000D03*
X122100000Y-86750000D03*
%TD*%
%TO.C,D313*%
X157100000Y-104000000D03*
X158200000Y-104000000D03*
X158200000Y-101750000D03*
X157100000Y-101750000D03*
%TD*%
%TO.C,D503*%
X217100000Y-94000000D03*
X218200000Y-94000000D03*
X218200000Y-91750000D03*
X217100000Y-91750000D03*
%TD*%
%TO.C,D191*%
X117100000Y-134000000D03*
X118200000Y-134000000D03*
X118200000Y-131750000D03*
X117100000Y-131750000D03*
%TD*%
%TO.C,D57*%
X77100000Y-104000000D03*
X78200000Y-104000000D03*
X78200000Y-101750000D03*
X77100000Y-101750000D03*
%TD*%
%TO.C,D18*%
X67100000Y-69000000D03*
X68200000Y-69000000D03*
X68200000Y-66750000D03*
X67100000Y-66750000D03*
%TD*%
%TO.C,D126*%
X97100000Y-129000000D03*
X98200000Y-129000000D03*
X98200000Y-126750000D03*
X97100000Y-126750000D03*
%TD*%
%TO.C,D22*%
X67100000Y-89000000D03*
X68200000Y-89000000D03*
X68200000Y-86750000D03*
X67100000Y-86750000D03*
%TD*%
%TO.C,D215*%
X127100000Y-94000000D03*
X128200000Y-94000000D03*
X128200000Y-91750000D03*
X127100000Y-91750000D03*
%TD*%
D33*
%TO.C,H1*%
X55900000Y-25350000D03*
%TD*%
D10*
%TO.C,D295*%
X152100000Y-94000000D03*
X153200000Y-94000000D03*
X153200000Y-91750000D03*
X152100000Y-91750000D03*
%TD*%
%TO.C,D491*%
X212100000Y-114000000D03*
X213200000Y-114000000D03*
X213200000Y-111750000D03*
X212100000Y-111750000D03*
%TD*%
D22*
%TO.C,D515*%
X245300000Y-53250000D03*
X245300000Y-51500000D03*
%TD*%
D10*
%TO.C,D223*%
X127100000Y-134000000D03*
X128200000Y-134000000D03*
X128200000Y-131750000D03*
X127100000Y-131750000D03*
%TD*%
%TO.C,D325*%
X162100000Y-84000000D03*
X163200000Y-84000000D03*
X163200000Y-81750000D03*
X162100000Y-81750000D03*
%TD*%
%TO.C,D494*%
X212100000Y-129000000D03*
X213200000Y-129000000D03*
X213200000Y-126750000D03*
X212100000Y-126750000D03*
%TD*%
D45*
%TO.C,U2*%
X232650000Y-81217500D03*
X232650000Y-82487500D03*
X232650000Y-83757500D03*
X232650000Y-85027500D03*
X232650000Y-86297500D03*
X232650000Y-87567500D03*
X232650000Y-88837500D03*
X232650000Y-90107500D03*
X232650000Y-91377500D03*
X232650000Y-92647500D03*
X232650000Y-93917500D03*
X232650000Y-95187500D03*
X241950000Y-95187500D03*
X241950000Y-93917500D03*
X241950000Y-92647500D03*
X241950000Y-91377500D03*
X241950000Y-90107500D03*
X241950000Y-88837500D03*
X241950000Y-87567500D03*
X241950000Y-86297500D03*
X241950000Y-85027500D03*
X241950000Y-83757500D03*
X241950000Y-82487500D03*
X241950000Y-81217500D03*
%TD*%
D10*
%TO.C,D378*%
X177100000Y-109000000D03*
X178200000Y-109000000D03*
X178200000Y-106750000D03*
X177100000Y-106750000D03*
%TD*%
%TO.C,D161*%
X112100000Y-64000000D03*
X113200000Y-64000000D03*
X113200000Y-61750000D03*
X112100000Y-61750000D03*
%TD*%
%TO.C,D74*%
X82100000Y-109000000D03*
X83200000Y-109000000D03*
X83200000Y-106750000D03*
X82100000Y-106750000D03*
%TD*%
%TO.C,D420*%
X192100000Y-79000000D03*
X193200000Y-79000000D03*
X193200000Y-76750000D03*
X192100000Y-76750000D03*
%TD*%
%TO.C,D6*%
X62100000Y-89000000D03*
X63200000Y-89000000D03*
X63200000Y-86750000D03*
X62100000Y-86750000D03*
%TD*%
%TO.C,D224*%
X127100000Y-139000000D03*
X128200000Y-139000000D03*
X128200000Y-136750000D03*
X127100000Y-136750000D03*
%TD*%
%TO.C,D84*%
X87100000Y-79000000D03*
X88200000Y-79000000D03*
X88200000Y-76750000D03*
X87100000Y-76750000D03*
%TD*%
D15*
%TO.C,R16*%
X87762500Y-33712500D03*
X87762500Y-31712500D03*
%TD*%
D10*
%TO.C,D102*%
X92100000Y-89000000D03*
X93200000Y-89000000D03*
X93200000Y-86750000D03*
X92100000Y-86750000D03*
%TD*%
%TO.C,D211*%
X127100000Y-74000000D03*
X128200000Y-74000000D03*
X128200000Y-71750000D03*
X127100000Y-71750000D03*
%TD*%
%TO.C,D54*%
X77100000Y-89000000D03*
X78200000Y-89000000D03*
X78200000Y-86750000D03*
X77100000Y-86750000D03*
%TD*%
%TO.C,D492*%
X212100000Y-119000000D03*
X213200000Y-119000000D03*
X213200000Y-116750000D03*
X212100000Y-116750000D03*
%TD*%
D16*
%TO.C,J1*%
X256850000Y-34810000D03*
D17*
X256850000Y-37350000D03*
X256850000Y-39890000D03*
%TD*%
D10*
%TO.C,D182*%
X117100000Y-89000000D03*
X118200000Y-89000000D03*
X118200000Y-86750000D03*
X117100000Y-86750000D03*
%TD*%
%TO.C,D154*%
X107100000Y-109000000D03*
X108200000Y-109000000D03*
X108200000Y-106750000D03*
X107100000Y-106750000D03*
%TD*%
D28*
%TO.C,U8*%
X137950000Y-34175000D03*
D29*
X135100000Y-29950000D03*
X135100000Y-30600000D03*
X135100000Y-31250000D03*
X135100000Y-31900000D03*
X135100000Y-32550000D03*
X135100000Y-33200000D03*
X135100000Y-33850000D03*
X135100000Y-34500000D03*
X135100000Y-35150000D03*
X135100000Y-35800000D03*
X135100000Y-36450000D03*
X135100000Y-37100000D03*
X135100000Y-37750000D03*
X135100000Y-38400000D03*
X140800000Y-38400000D03*
X140800000Y-37750000D03*
X140800000Y-37100000D03*
X140800000Y-36450000D03*
X140800000Y-35800000D03*
X140800000Y-35150000D03*
X140800000Y-34500000D03*
X140800000Y-33850000D03*
X140800000Y-33200000D03*
X140800000Y-32550000D03*
X140800000Y-31900000D03*
X140800000Y-31250000D03*
X140800000Y-30600000D03*
X140800000Y-29950000D03*
%TD*%
D10*
%TO.C,D355*%
X172100000Y-74000000D03*
X173200000Y-74000000D03*
X173200000Y-71750000D03*
X172100000Y-71750000D03*
%TD*%
%TO.C,D352*%
X167100000Y-139000000D03*
X168200000Y-139000000D03*
X168200000Y-136750000D03*
X167100000Y-136750000D03*
%TD*%
%TO.C,D255*%
X137100000Y-134000000D03*
X138200000Y-134000000D03*
X138200000Y-131750000D03*
X137100000Y-131750000D03*
%TD*%
D24*
%TO.C,C11*%
X138425000Y-26650000D03*
X138425000Y-24575000D03*
%TD*%
D10*
%TO.C,D493*%
X212100000Y-124000000D03*
X213200000Y-124000000D03*
X213200000Y-121750000D03*
X212100000Y-121750000D03*
%TD*%
D24*
%TO.C,C24*%
X119350000Y-26662500D03*
X119350000Y-24587500D03*
%TD*%
D10*
%TO.C,D21*%
X67100000Y-84000000D03*
X68200000Y-84000000D03*
X68200000Y-81750000D03*
X67100000Y-81750000D03*
%TD*%
%TO.C,D337*%
X167100000Y-64000000D03*
X168200000Y-64000000D03*
X168200000Y-61750000D03*
X167100000Y-61750000D03*
%TD*%
%TO.C,D39*%
X72100000Y-94000000D03*
X73200000Y-94000000D03*
X73200000Y-91750000D03*
X72100000Y-91750000D03*
%TD*%
%TO.C,D321*%
X162100000Y-64000000D03*
X163200000Y-64000000D03*
X163200000Y-61750000D03*
X162100000Y-61750000D03*
%TD*%
%TO.C,D270*%
X142100000Y-129000000D03*
X143200000Y-129000000D03*
X143200000Y-126750000D03*
X142100000Y-126750000D03*
%TD*%
%TO.C,D304*%
X152100000Y-139000000D03*
X153200000Y-139000000D03*
X153200000Y-136750000D03*
X152100000Y-136750000D03*
%TD*%
%TO.C,D410*%
X187100000Y-109000000D03*
X188200000Y-109000000D03*
X188200000Y-106750000D03*
X187100000Y-106750000D03*
%TD*%
%TO.C,D99*%
X92100000Y-74000000D03*
X93200000Y-74000000D03*
X93200000Y-71750000D03*
X92100000Y-71750000D03*
%TD*%
%TO.C,D349*%
X167100000Y-124000000D03*
X168200000Y-124000000D03*
X168200000Y-121750000D03*
X167100000Y-121750000D03*
%TD*%
%TO.C,D122*%
X97100000Y-109000000D03*
X98200000Y-109000000D03*
X98200000Y-106750000D03*
X97100000Y-106750000D03*
%TD*%
%TO.C,D383*%
X177100000Y-134000000D03*
X178200000Y-134000000D03*
X178200000Y-131750000D03*
X177100000Y-131750000D03*
%TD*%
%TO.C,D282*%
X147100000Y-109000000D03*
X148200000Y-109000000D03*
X148200000Y-106750000D03*
X147100000Y-106750000D03*
%TD*%
%TO.C,D360*%
X172100000Y-99000000D03*
X173200000Y-99000000D03*
X173200000Y-96750000D03*
X172100000Y-96750000D03*
%TD*%
%TO.C,D151*%
X107100000Y-94000000D03*
X108200000Y-94000000D03*
X108200000Y-91750000D03*
X107100000Y-91750000D03*
%TD*%
%TO.C,D404*%
X187100000Y-79000000D03*
X188200000Y-79000000D03*
X188200000Y-76750000D03*
X187100000Y-76750000D03*
%TD*%
%TO.C,D477*%
X207100000Y-124000000D03*
X208200000Y-124000000D03*
X208200000Y-121750000D03*
X207100000Y-121750000D03*
%TD*%
%TO.C,D87*%
X87100000Y-94000000D03*
X88200000Y-94000000D03*
X88200000Y-91750000D03*
X87100000Y-91750000D03*
%TD*%
D33*
%TO.C,H2*%
X255150000Y-25350000D03*
%TD*%
D10*
%TO.C,D312*%
X157100000Y-99000000D03*
X158200000Y-99000000D03*
X158200000Y-96750000D03*
X157100000Y-96750000D03*
%TD*%
%TO.C,D97*%
X92100000Y-64000000D03*
X93200000Y-64000000D03*
X93200000Y-61750000D03*
X92100000Y-61750000D03*
%TD*%
%TO.C,D170*%
X112100000Y-109000000D03*
X113200000Y-109000000D03*
X113200000Y-106750000D03*
X112100000Y-106750000D03*
%TD*%
%TO.C,D110*%
X92100000Y-129000000D03*
X93200000Y-129000000D03*
X93200000Y-126750000D03*
X92100000Y-126750000D03*
%TD*%
%TO.C,D399*%
X182100000Y-134000000D03*
X183200000Y-134000000D03*
X183200000Y-131750000D03*
X182100000Y-131750000D03*
%TD*%
%TO.C,D105*%
X92100000Y-104000000D03*
X93200000Y-104000000D03*
X93200000Y-101750000D03*
X92100000Y-101750000D03*
%TD*%
%TO.C,D72*%
X82100000Y-99000000D03*
X83200000Y-99000000D03*
X83200000Y-96750000D03*
X82100000Y-96750000D03*
%TD*%
D28*
%TO.C,U10*%
X172925000Y-40925000D03*
D29*
X170075000Y-36700000D03*
X170075000Y-37350000D03*
X170075000Y-38000000D03*
X170075000Y-38650000D03*
X170075000Y-39300000D03*
X170075000Y-39950000D03*
X170075000Y-40600000D03*
X170075000Y-41250000D03*
X170075000Y-41900000D03*
X170075000Y-42550000D03*
X170075000Y-43200000D03*
X170075000Y-43850000D03*
X170075000Y-44500000D03*
X170075000Y-45150000D03*
X175775000Y-45150000D03*
X175775000Y-44500000D03*
X175775000Y-43850000D03*
X175775000Y-43200000D03*
X175775000Y-42550000D03*
X175775000Y-41900000D03*
X175775000Y-41250000D03*
X175775000Y-40600000D03*
X175775000Y-39950000D03*
X175775000Y-39300000D03*
X175775000Y-38650000D03*
X175775000Y-38000000D03*
X175775000Y-37350000D03*
X175775000Y-36700000D03*
%TD*%
D10*
%TO.C,D96*%
X87100000Y-139000000D03*
X88200000Y-139000000D03*
X88200000Y-136750000D03*
X87100000Y-136750000D03*
%TD*%
%TO.C,D83*%
X87100000Y-74000000D03*
X88200000Y-74000000D03*
X88200000Y-71750000D03*
X87100000Y-71750000D03*
%TD*%
D28*
%TO.C,U6*%
X103525000Y-34250000D03*
D29*
X100675000Y-30025000D03*
X100675000Y-30675000D03*
X100675000Y-31325000D03*
X100675000Y-31975000D03*
X100675000Y-32625000D03*
X100675000Y-33275000D03*
X100675000Y-33925000D03*
X100675000Y-34575000D03*
X100675000Y-35225000D03*
X100675000Y-35875000D03*
X100675000Y-36525000D03*
X100675000Y-37175000D03*
X100675000Y-37825000D03*
X100675000Y-38475000D03*
X106375000Y-38475000D03*
X106375000Y-37825000D03*
X106375000Y-37175000D03*
X106375000Y-36525000D03*
X106375000Y-35875000D03*
X106375000Y-35225000D03*
X106375000Y-34575000D03*
X106375000Y-33925000D03*
X106375000Y-33275000D03*
X106375000Y-32625000D03*
X106375000Y-31975000D03*
X106375000Y-31325000D03*
X106375000Y-30675000D03*
X106375000Y-30025000D03*
%TD*%
D12*
%TO.C,Q8*%
X222375000Y-95350000D03*
X225375000Y-96300000D03*
X225375000Y-94400000D03*
%TD*%
D10*
%TO.C,D334*%
X162100000Y-129000000D03*
X163200000Y-129000000D03*
X163200000Y-126750000D03*
X162100000Y-126750000D03*
%TD*%
D12*
%TO.C,Q17*%
X222375000Y-140350000D03*
X225375000Y-141300000D03*
X225375000Y-139400000D03*
%TD*%
D10*
%TO.C,D262*%
X142100000Y-89000000D03*
X143200000Y-89000000D03*
X143200000Y-86750000D03*
X142100000Y-86750000D03*
%TD*%
D28*
%TO.C,U5*%
X84400000Y-41650000D03*
D29*
X81550000Y-37425000D03*
X81550000Y-38075000D03*
X81550000Y-38725000D03*
X81550000Y-39375000D03*
X81550000Y-40025000D03*
X81550000Y-40675000D03*
X81550000Y-41325000D03*
X81550000Y-41975000D03*
X81550000Y-42625000D03*
X81550000Y-43275000D03*
X81550000Y-43925000D03*
X81550000Y-44575000D03*
X81550000Y-45225000D03*
X81550000Y-45875000D03*
X87250000Y-45875000D03*
X87250000Y-45225000D03*
X87250000Y-44575000D03*
X87250000Y-43925000D03*
X87250000Y-43275000D03*
X87250000Y-42625000D03*
X87250000Y-41975000D03*
X87250000Y-41325000D03*
X87250000Y-40675000D03*
X87250000Y-40025000D03*
X87250000Y-39375000D03*
X87250000Y-38725000D03*
X87250000Y-38075000D03*
X87250000Y-37425000D03*
%TD*%
D10*
%TO.C,D226*%
X132100000Y-69000000D03*
X133200000Y-69000000D03*
X133200000Y-66750000D03*
X132100000Y-66750000D03*
%TD*%
%TO.C,D320*%
X157100000Y-139000000D03*
X158200000Y-139000000D03*
X158200000Y-136750000D03*
X157100000Y-136750000D03*
%TD*%
%TO.C,D505*%
X217100000Y-104000000D03*
X218200000Y-104000000D03*
X218200000Y-101750000D03*
X217100000Y-101750000D03*
%TD*%
D15*
%TO.C,R27*%
X183600000Y-45075000D03*
X183600000Y-43075000D03*
%TD*%
D24*
%TO.C,C27*%
X170725000Y-33200000D03*
X170725000Y-31125000D03*
%TD*%
%TO.C,C12*%
X155475000Y-30212500D03*
X155475000Y-28137500D03*
%TD*%
D10*
%TO.C,D19*%
X67100000Y-74000000D03*
X68200000Y-74000000D03*
X68200000Y-71750000D03*
X67100000Y-71750000D03*
%TD*%
%TO.C,D8*%
X62100000Y-99000000D03*
X63200000Y-99000000D03*
X63200000Y-96750000D03*
X62100000Y-96750000D03*
%TD*%
D12*
%TO.C,Q4*%
X222375000Y-75350000D03*
X225375000Y-76300000D03*
X225375000Y-74400000D03*
%TD*%
D46*
%TO.C,SW3*%
X247300000Y-31650000D03*
X247300000Y-40750000D03*
X242800000Y-31650000D03*
X242800000Y-40750000D03*
%TD*%
D10*
%TO.C,D418*%
X192100000Y-69000000D03*
X193200000Y-69000000D03*
X193200000Y-66750000D03*
X192100000Y-66750000D03*
%TD*%
%TO.C,D41*%
X72100000Y-104000000D03*
X73200000Y-104000000D03*
X73200000Y-101750000D03*
X72100000Y-101750000D03*
%TD*%
%TO.C,D80*%
X82100000Y-139000000D03*
X83200000Y-139000000D03*
X83200000Y-136750000D03*
X82100000Y-136750000D03*
%TD*%
D18*
%TO.C,R25*%
X145125000Y-29125000D03*
X145125000Y-31125000D03*
%TD*%
D10*
%TO.C,D500*%
X217100000Y-79000000D03*
X218200000Y-79000000D03*
X218200000Y-76750000D03*
X217100000Y-76750000D03*
%TD*%
D12*
%TO.C,Q13*%
X222375000Y-120350000D03*
X225375000Y-121300000D03*
X225375000Y-119400000D03*
%TD*%
D10*
%TO.C,D50*%
X77100000Y-69000000D03*
X78200000Y-69000000D03*
X78200000Y-66750000D03*
X77100000Y-66750000D03*
%TD*%
%TO.C,D430*%
X192100000Y-129000000D03*
X193200000Y-129000000D03*
X193200000Y-126750000D03*
X192100000Y-126750000D03*
%TD*%
%TO.C,D303*%
X152100000Y-134000000D03*
X153200000Y-134000000D03*
X153200000Y-131750000D03*
X152100000Y-131750000D03*
%TD*%
%TO.C,D184*%
X117100000Y-99000000D03*
X118200000Y-99000000D03*
X118200000Y-96750000D03*
X117100000Y-96750000D03*
%TD*%
%TO.C,D55*%
X77100000Y-94000000D03*
X78200000Y-94000000D03*
X78200000Y-91750000D03*
X77100000Y-91750000D03*
%TD*%
D47*
%TO.C,C28*%
X253200000Y-122100000D03*
X253200000Y-127700000D03*
%TD*%
D10*
%TO.C,D338*%
X167100000Y-69000000D03*
X168200000Y-69000000D03*
X168200000Y-66750000D03*
X167100000Y-66750000D03*
%TD*%
%TO.C,D330*%
X162100000Y-109000000D03*
X163200000Y-109000000D03*
X163200000Y-106750000D03*
X162100000Y-106750000D03*
%TD*%
%TO.C,D426*%
X192100000Y-109000000D03*
X193200000Y-109000000D03*
X193200000Y-106750000D03*
X192100000Y-106750000D03*
%TD*%
%TO.C,D242*%
X137100000Y-69000000D03*
X138200000Y-69000000D03*
X138200000Y-66750000D03*
X137100000Y-66750000D03*
%TD*%
D15*
%TO.C,R12*%
X128525000Y-35300000D03*
X128525000Y-33300000D03*
%TD*%
D24*
%TO.C,C26*%
X152875000Y-30212500D03*
X152875000Y-28137500D03*
%TD*%
D48*
%TO.C,D514*%
X249075000Y-135200000D03*
X249075000Y-139850000D03*
%TD*%
D10*
%TO.C,D370*%
X177100000Y-69000000D03*
X178200000Y-69000000D03*
X178200000Y-66750000D03*
X177100000Y-66750000D03*
%TD*%
%TO.C,D405*%
X187100000Y-84000000D03*
X188200000Y-84000000D03*
X188200000Y-81750000D03*
X187100000Y-81750000D03*
%TD*%
D15*
%TO.C,R13*%
X145050000Y-35350000D03*
X145050000Y-33350000D03*
%TD*%
D10*
%TO.C,D354*%
X172100000Y-69000000D03*
X173200000Y-69000000D03*
X173200000Y-66750000D03*
X172100000Y-66750000D03*
%TD*%
%TO.C,D403*%
X187100000Y-74000000D03*
X188200000Y-74000000D03*
X188200000Y-71750000D03*
X187100000Y-71750000D03*
%TD*%
D49*
%TO.C,Q1*%
X238200000Y-120850000D03*
X237250000Y-123850000D03*
X239150000Y-123850000D03*
%TD*%
D10*
%TO.C,D148*%
X107100000Y-79000000D03*
X108200000Y-79000000D03*
X108200000Y-76750000D03*
X107100000Y-76750000D03*
%TD*%
%TO.C,D61*%
X77100000Y-124000000D03*
X78200000Y-124000000D03*
X78200000Y-121750000D03*
X77100000Y-121750000D03*
%TD*%
%TO.C,D132*%
X102100000Y-79000000D03*
X103200000Y-79000000D03*
X103200000Y-76750000D03*
X102100000Y-76750000D03*
%TD*%
%TO.C,D466*%
X207100000Y-69000000D03*
X208200000Y-69000000D03*
X208200000Y-66750000D03*
X207100000Y-66750000D03*
%TD*%
D18*
%TO.C,R3*%
X247550000Y-46225000D03*
X247550000Y-48225000D03*
%TD*%
D10*
%TO.C,D479*%
X207100000Y-134000000D03*
X208200000Y-134000000D03*
X208200000Y-131750000D03*
X207100000Y-131750000D03*
%TD*%
%TO.C,D258*%
X142100000Y-69000000D03*
X143200000Y-69000000D03*
X143200000Y-66750000D03*
X142100000Y-66750000D03*
%TD*%
%TO.C,D314*%
X157100000Y-109000000D03*
X158200000Y-109000000D03*
X158200000Y-106750000D03*
X157100000Y-106750000D03*
%TD*%
D18*
%TO.C,R24*%
X128525000Y-29025000D03*
X128525000Y-31025000D03*
%TD*%
D10*
%TO.C,D465*%
X207100000Y-64000000D03*
X208200000Y-64000000D03*
X208200000Y-61750000D03*
X207100000Y-61750000D03*
%TD*%
M02*
