%TF.GenerationSoftware,KiCad,Pcbnew,9.0.6*%
%TF.CreationDate,2026-03-07T16:21:01-05:00*%
%TF.ProjectId,Matrix,4d617472-6978-42e6-9b69-6361645f7063,rev?*%
%TF.SameCoordinates,Original*%
%TF.FileFunction,Legend,Bot*%
%TF.FilePolarity,Positive*%
%FSLAX46Y46*%
G04 Gerber Fmt 4.6, Leading zero omitted, Abs format (unit mm)*
G04 Created by KiCad (PCBNEW 9.0.6) date 2026-03-07 16:21:01*
%MOMM*%
%LPD*%
G01*
G04 APERTURE LIST*
%ADD10C,0.150000*%
%ADD11C,0.100000*%
%ADD12C,0.120000*%
G04 APERTURE END LIST*
D10*
X188329819Y-39070833D02*
X187853628Y-38737500D01*
X188329819Y-38499405D02*
X187329819Y-38499405D01*
X187329819Y-38499405D02*
X187329819Y-38880357D01*
X187329819Y-38880357D02*
X187377438Y-38975595D01*
X187377438Y-38975595D02*
X187425057Y-39023214D01*
X187425057Y-39023214D02*
X187520295Y-39070833D01*
X187520295Y-39070833D02*
X187663152Y-39070833D01*
X187663152Y-39070833D02*
X187758390Y-39023214D01*
X187758390Y-39023214D02*
X187806009Y-38975595D01*
X187806009Y-38975595D02*
X187853628Y-38880357D01*
X187853628Y-38880357D02*
X187853628Y-38499405D01*
X187329819Y-39975595D02*
X187329819Y-39499405D01*
X187329819Y-39499405D02*
X187806009Y-39451786D01*
X187806009Y-39451786D02*
X187758390Y-39499405D01*
X187758390Y-39499405D02*
X187710771Y-39594643D01*
X187710771Y-39594643D02*
X187710771Y-39832738D01*
X187710771Y-39832738D02*
X187758390Y-39927976D01*
X187758390Y-39927976D02*
X187806009Y-39975595D01*
X187806009Y-39975595D02*
X187901247Y-40023214D01*
X187901247Y-40023214D02*
X188139342Y-40023214D01*
X188139342Y-40023214D02*
X188234580Y-39975595D01*
X188234580Y-39975595D02*
X188282200Y-39927976D01*
X188282200Y-39927976D02*
X188329819Y-39832738D01*
X188329819Y-39832738D02*
X188329819Y-39594643D01*
X188329819Y-39594643D02*
X188282200Y-39499405D01*
X188282200Y-39499405D02*
X188234580Y-39451786D01*
X75391666Y-33379819D02*
X75724999Y-32903628D01*
X75963094Y-33379819D02*
X75963094Y-32379819D01*
X75963094Y-32379819D02*
X75582142Y-32379819D01*
X75582142Y-32379819D02*
X75486904Y-32427438D01*
X75486904Y-32427438D02*
X75439285Y-32475057D01*
X75439285Y-32475057D02*
X75391666Y-32570295D01*
X75391666Y-32570295D02*
X75391666Y-32713152D01*
X75391666Y-32713152D02*
X75439285Y-32808390D01*
X75439285Y-32808390D02*
X75486904Y-32856009D01*
X75486904Y-32856009D02*
X75582142Y-32903628D01*
X75582142Y-32903628D02*
X75963094Y-32903628D01*
X74534523Y-32713152D02*
X74534523Y-33379819D01*
X74772618Y-32332200D02*
X75010713Y-33046485D01*
X75010713Y-33046485D02*
X74391666Y-33046485D01*
X259015475Y-81454819D02*
X259015475Y-80454819D01*
X259015475Y-80454819D02*
X258777380Y-80454819D01*
X258777380Y-80454819D02*
X258634523Y-80502438D01*
X258634523Y-80502438D02*
X258539285Y-80597676D01*
X258539285Y-80597676D02*
X258491666Y-80692914D01*
X258491666Y-80692914D02*
X258444047Y-80883390D01*
X258444047Y-80883390D02*
X258444047Y-81026247D01*
X258444047Y-81026247D02*
X258491666Y-81216723D01*
X258491666Y-81216723D02*
X258539285Y-81311961D01*
X258539285Y-81311961D02*
X258634523Y-81407200D01*
X258634523Y-81407200D02*
X258777380Y-81454819D01*
X258777380Y-81454819D02*
X259015475Y-81454819D01*
X257539285Y-80454819D02*
X258015475Y-80454819D01*
X258015475Y-80454819D02*
X258063094Y-80931009D01*
X258063094Y-80931009D02*
X258015475Y-80883390D01*
X258015475Y-80883390D02*
X257920237Y-80835771D01*
X257920237Y-80835771D02*
X257682142Y-80835771D01*
X257682142Y-80835771D02*
X257586904Y-80883390D01*
X257586904Y-80883390D02*
X257539285Y-80931009D01*
X257539285Y-80931009D02*
X257491666Y-81026247D01*
X257491666Y-81026247D02*
X257491666Y-81264342D01*
X257491666Y-81264342D02*
X257539285Y-81359580D01*
X257539285Y-81359580D02*
X257586904Y-81407200D01*
X257586904Y-81407200D02*
X257682142Y-81454819D01*
X257682142Y-81454819D02*
X257920237Y-81454819D01*
X257920237Y-81454819D02*
X258015475Y-81407200D01*
X258015475Y-81407200D02*
X258063094Y-81359580D01*
X257110713Y-80550057D02*
X257063094Y-80502438D01*
X257063094Y-80502438D02*
X256967856Y-80454819D01*
X256967856Y-80454819D02*
X256729761Y-80454819D01*
X256729761Y-80454819D02*
X256634523Y-80502438D01*
X256634523Y-80502438D02*
X256586904Y-80550057D01*
X256586904Y-80550057D02*
X256539285Y-80645295D01*
X256539285Y-80645295D02*
X256539285Y-80740533D01*
X256539285Y-80740533D02*
X256586904Y-80883390D01*
X256586904Y-80883390D02*
X257158332Y-81454819D01*
X257158332Y-81454819D02*
X256539285Y-81454819D01*
X255920237Y-80454819D02*
X255824999Y-80454819D01*
X255824999Y-80454819D02*
X255729761Y-80502438D01*
X255729761Y-80502438D02*
X255682142Y-80550057D01*
X255682142Y-80550057D02*
X255634523Y-80645295D01*
X255634523Y-80645295D02*
X255586904Y-80835771D01*
X255586904Y-80835771D02*
X255586904Y-81073866D01*
X255586904Y-81073866D02*
X255634523Y-81264342D01*
X255634523Y-81264342D02*
X255682142Y-81359580D01*
X255682142Y-81359580D02*
X255729761Y-81407200D01*
X255729761Y-81407200D02*
X255824999Y-81454819D01*
X255824999Y-81454819D02*
X255920237Y-81454819D01*
X255920237Y-81454819D02*
X256015475Y-81407200D01*
X256015475Y-81407200D02*
X256063094Y-81359580D01*
X256063094Y-81359580D02*
X256110713Y-81264342D01*
X256110713Y-81264342D02*
X256158332Y-81073866D01*
X256158332Y-81073866D02*
X256158332Y-80835771D01*
X256158332Y-80835771D02*
X256110713Y-80645295D01*
X256110713Y-80645295D02*
X256063094Y-80550057D01*
X256063094Y-80550057D02*
X256015475Y-80502438D01*
X256015475Y-80502438D02*
X255920237Y-80454819D01*
X259015475Y-87294819D02*
X259015475Y-86294819D01*
X259015475Y-86294819D02*
X258777380Y-86294819D01*
X258777380Y-86294819D02*
X258634523Y-86342438D01*
X258634523Y-86342438D02*
X258539285Y-86437676D01*
X258539285Y-86437676D02*
X258491666Y-86532914D01*
X258491666Y-86532914D02*
X258444047Y-86723390D01*
X258444047Y-86723390D02*
X258444047Y-86866247D01*
X258444047Y-86866247D02*
X258491666Y-87056723D01*
X258491666Y-87056723D02*
X258539285Y-87151961D01*
X258539285Y-87151961D02*
X258634523Y-87247200D01*
X258634523Y-87247200D02*
X258777380Y-87294819D01*
X258777380Y-87294819D02*
X259015475Y-87294819D01*
X257539285Y-86294819D02*
X258015475Y-86294819D01*
X258015475Y-86294819D02*
X258063094Y-86771009D01*
X258063094Y-86771009D02*
X258015475Y-86723390D01*
X258015475Y-86723390D02*
X257920237Y-86675771D01*
X257920237Y-86675771D02*
X257682142Y-86675771D01*
X257682142Y-86675771D02*
X257586904Y-86723390D01*
X257586904Y-86723390D02*
X257539285Y-86771009D01*
X257539285Y-86771009D02*
X257491666Y-86866247D01*
X257491666Y-86866247D02*
X257491666Y-87104342D01*
X257491666Y-87104342D02*
X257539285Y-87199580D01*
X257539285Y-87199580D02*
X257586904Y-87247200D01*
X257586904Y-87247200D02*
X257682142Y-87294819D01*
X257682142Y-87294819D02*
X257920237Y-87294819D01*
X257920237Y-87294819D02*
X258015475Y-87247200D01*
X258015475Y-87247200D02*
X258063094Y-87199580D01*
X256539285Y-87294819D02*
X257110713Y-87294819D01*
X256824999Y-87294819D02*
X256824999Y-86294819D01*
X256824999Y-86294819D02*
X256920237Y-86437676D01*
X256920237Y-86437676D02*
X257015475Y-86532914D01*
X257015475Y-86532914D02*
X257110713Y-86580533D01*
X256205951Y-86294819D02*
X255539285Y-86294819D01*
X255539285Y-86294819D02*
X255967856Y-87294819D01*
X183241666Y-33629819D02*
X183574999Y-33153628D01*
X183813094Y-33629819D02*
X183813094Y-32629819D01*
X183813094Y-32629819D02*
X183432142Y-32629819D01*
X183432142Y-32629819D02*
X183336904Y-32677438D01*
X183336904Y-32677438D02*
X183289285Y-32725057D01*
X183289285Y-32725057D02*
X183241666Y-32820295D01*
X183241666Y-32820295D02*
X183241666Y-32963152D01*
X183241666Y-32963152D02*
X183289285Y-33058390D01*
X183289285Y-33058390D02*
X183336904Y-33106009D01*
X183336904Y-33106009D02*
X183432142Y-33153628D01*
X183432142Y-33153628D02*
X183813094Y-33153628D01*
X182908332Y-32629819D02*
X182241666Y-32629819D01*
X182241666Y-32629819D02*
X182670237Y-33629819D01*
X259015475Y-85344819D02*
X259015475Y-84344819D01*
X259015475Y-84344819D02*
X258777380Y-84344819D01*
X258777380Y-84344819D02*
X258634523Y-84392438D01*
X258634523Y-84392438D02*
X258539285Y-84487676D01*
X258539285Y-84487676D02*
X258491666Y-84582914D01*
X258491666Y-84582914D02*
X258444047Y-84773390D01*
X258444047Y-84773390D02*
X258444047Y-84916247D01*
X258444047Y-84916247D02*
X258491666Y-85106723D01*
X258491666Y-85106723D02*
X258539285Y-85201961D01*
X258539285Y-85201961D02*
X258634523Y-85297200D01*
X258634523Y-85297200D02*
X258777380Y-85344819D01*
X258777380Y-85344819D02*
X259015475Y-85344819D01*
X257539285Y-84344819D02*
X258015475Y-84344819D01*
X258015475Y-84344819D02*
X258063094Y-84821009D01*
X258063094Y-84821009D02*
X258015475Y-84773390D01*
X258015475Y-84773390D02*
X257920237Y-84725771D01*
X257920237Y-84725771D02*
X257682142Y-84725771D01*
X257682142Y-84725771D02*
X257586904Y-84773390D01*
X257586904Y-84773390D02*
X257539285Y-84821009D01*
X257539285Y-84821009D02*
X257491666Y-84916247D01*
X257491666Y-84916247D02*
X257491666Y-85154342D01*
X257491666Y-85154342D02*
X257539285Y-85249580D01*
X257539285Y-85249580D02*
X257586904Y-85297200D01*
X257586904Y-85297200D02*
X257682142Y-85344819D01*
X257682142Y-85344819D02*
X257920237Y-85344819D01*
X257920237Y-85344819D02*
X258015475Y-85297200D01*
X258015475Y-85297200D02*
X258063094Y-85249580D01*
X256539285Y-85344819D02*
X257110713Y-85344819D01*
X256824999Y-85344819D02*
X256824999Y-84344819D01*
X256824999Y-84344819D02*
X256920237Y-84487676D01*
X256920237Y-84487676D02*
X257015475Y-84582914D01*
X257015475Y-84582914D02*
X257110713Y-84630533D01*
X255967856Y-84773390D02*
X256063094Y-84725771D01*
X256063094Y-84725771D02*
X256110713Y-84678152D01*
X256110713Y-84678152D02*
X256158332Y-84582914D01*
X256158332Y-84582914D02*
X256158332Y-84535295D01*
X256158332Y-84535295D02*
X256110713Y-84440057D01*
X256110713Y-84440057D02*
X256063094Y-84392438D01*
X256063094Y-84392438D02*
X255967856Y-84344819D01*
X255967856Y-84344819D02*
X255777380Y-84344819D01*
X255777380Y-84344819D02*
X255682142Y-84392438D01*
X255682142Y-84392438D02*
X255634523Y-84440057D01*
X255634523Y-84440057D02*
X255586904Y-84535295D01*
X255586904Y-84535295D02*
X255586904Y-84582914D01*
X255586904Y-84582914D02*
X255634523Y-84678152D01*
X255634523Y-84678152D02*
X255682142Y-84725771D01*
X255682142Y-84725771D02*
X255777380Y-84773390D01*
X255777380Y-84773390D02*
X255967856Y-84773390D01*
X255967856Y-84773390D02*
X256063094Y-84821009D01*
X256063094Y-84821009D02*
X256110713Y-84868628D01*
X256110713Y-84868628D02*
X256158332Y-84963866D01*
X256158332Y-84963866D02*
X256158332Y-85154342D01*
X256158332Y-85154342D02*
X256110713Y-85249580D01*
X256110713Y-85249580D02*
X256063094Y-85297200D01*
X256063094Y-85297200D02*
X255967856Y-85344819D01*
X255967856Y-85344819D02*
X255777380Y-85344819D01*
X255777380Y-85344819D02*
X255682142Y-85297200D01*
X255682142Y-85297200D02*
X255634523Y-85249580D01*
X255634523Y-85249580D02*
X255586904Y-85154342D01*
X255586904Y-85154342D02*
X255586904Y-84963866D01*
X255586904Y-84963866D02*
X255634523Y-84868628D01*
X255634523Y-84868628D02*
X255682142Y-84821009D01*
X255682142Y-84821009D02*
X255777380Y-84773390D01*
X259015475Y-83394819D02*
X259015475Y-82394819D01*
X259015475Y-82394819D02*
X258777380Y-82394819D01*
X258777380Y-82394819D02*
X258634523Y-82442438D01*
X258634523Y-82442438D02*
X258539285Y-82537676D01*
X258539285Y-82537676D02*
X258491666Y-82632914D01*
X258491666Y-82632914D02*
X258444047Y-82823390D01*
X258444047Y-82823390D02*
X258444047Y-82966247D01*
X258444047Y-82966247D02*
X258491666Y-83156723D01*
X258491666Y-83156723D02*
X258539285Y-83251961D01*
X258539285Y-83251961D02*
X258634523Y-83347200D01*
X258634523Y-83347200D02*
X258777380Y-83394819D01*
X258777380Y-83394819D02*
X259015475Y-83394819D01*
X257539285Y-82394819D02*
X258015475Y-82394819D01*
X258015475Y-82394819D02*
X258063094Y-82871009D01*
X258063094Y-82871009D02*
X258015475Y-82823390D01*
X258015475Y-82823390D02*
X257920237Y-82775771D01*
X257920237Y-82775771D02*
X257682142Y-82775771D01*
X257682142Y-82775771D02*
X257586904Y-82823390D01*
X257586904Y-82823390D02*
X257539285Y-82871009D01*
X257539285Y-82871009D02*
X257491666Y-82966247D01*
X257491666Y-82966247D02*
X257491666Y-83204342D01*
X257491666Y-83204342D02*
X257539285Y-83299580D01*
X257539285Y-83299580D02*
X257586904Y-83347200D01*
X257586904Y-83347200D02*
X257682142Y-83394819D01*
X257682142Y-83394819D02*
X257920237Y-83394819D01*
X257920237Y-83394819D02*
X258015475Y-83347200D01*
X258015475Y-83347200D02*
X258063094Y-83299580D01*
X256539285Y-83394819D02*
X257110713Y-83394819D01*
X256824999Y-83394819D02*
X256824999Y-82394819D01*
X256824999Y-82394819D02*
X256920237Y-82537676D01*
X256920237Y-82537676D02*
X257015475Y-82632914D01*
X257015475Y-82632914D02*
X257110713Y-82680533D01*
X256063094Y-83394819D02*
X255872618Y-83394819D01*
X255872618Y-83394819D02*
X255777380Y-83347200D01*
X255777380Y-83347200D02*
X255729761Y-83299580D01*
X255729761Y-83299580D02*
X255634523Y-83156723D01*
X255634523Y-83156723D02*
X255586904Y-82966247D01*
X255586904Y-82966247D02*
X255586904Y-82585295D01*
X255586904Y-82585295D02*
X255634523Y-82490057D01*
X255634523Y-82490057D02*
X255682142Y-82442438D01*
X255682142Y-82442438D02*
X255777380Y-82394819D01*
X255777380Y-82394819D02*
X255967856Y-82394819D01*
X255967856Y-82394819D02*
X256063094Y-82442438D01*
X256063094Y-82442438D02*
X256110713Y-82490057D01*
X256110713Y-82490057D02*
X256158332Y-82585295D01*
X256158332Y-82585295D02*
X256158332Y-82823390D01*
X256158332Y-82823390D02*
X256110713Y-82918628D01*
X256110713Y-82918628D02*
X256063094Y-82966247D01*
X256063094Y-82966247D02*
X255967856Y-83013866D01*
X255967856Y-83013866D02*
X255777380Y-83013866D01*
X255777380Y-83013866D02*
X255682142Y-82966247D01*
X255682142Y-82966247D02*
X255634523Y-82918628D01*
X255634523Y-82918628D02*
X255586904Y-82823390D01*
X180879819Y-36833333D02*
X180403628Y-36500000D01*
X180879819Y-36261905D02*
X179879819Y-36261905D01*
X179879819Y-36261905D02*
X179879819Y-36642857D01*
X179879819Y-36642857D02*
X179927438Y-36738095D01*
X179927438Y-36738095D02*
X179975057Y-36785714D01*
X179975057Y-36785714D02*
X180070295Y-36833333D01*
X180070295Y-36833333D02*
X180213152Y-36833333D01*
X180213152Y-36833333D02*
X180308390Y-36785714D01*
X180308390Y-36785714D02*
X180356009Y-36738095D01*
X180356009Y-36738095D02*
X180403628Y-36642857D01*
X180403628Y-36642857D02*
X180403628Y-36261905D01*
X179879819Y-37690476D02*
X179879819Y-37500000D01*
X179879819Y-37500000D02*
X179927438Y-37404762D01*
X179927438Y-37404762D02*
X179975057Y-37357143D01*
X179975057Y-37357143D02*
X180117914Y-37261905D01*
X180117914Y-37261905D02*
X180308390Y-37214286D01*
X180308390Y-37214286D02*
X180689342Y-37214286D01*
X180689342Y-37214286D02*
X180784580Y-37261905D01*
X180784580Y-37261905D02*
X180832200Y-37309524D01*
X180832200Y-37309524D02*
X180879819Y-37404762D01*
X180879819Y-37404762D02*
X180879819Y-37595238D01*
X180879819Y-37595238D02*
X180832200Y-37690476D01*
X180832200Y-37690476D02*
X180784580Y-37738095D01*
X180784580Y-37738095D02*
X180689342Y-37785714D01*
X180689342Y-37785714D02*
X180451247Y-37785714D01*
X180451247Y-37785714D02*
X180356009Y-37738095D01*
X180356009Y-37738095D02*
X180308390Y-37690476D01*
X180308390Y-37690476D02*
X180260771Y-37595238D01*
X180260771Y-37595238D02*
X180260771Y-37404762D01*
X180260771Y-37404762D02*
X180308390Y-37309524D01*
X180308390Y-37309524D02*
X180356009Y-37261905D01*
X180356009Y-37261905D02*
X180451247Y-37214286D01*
X188741666Y-34159580D02*
X188789285Y-34207200D01*
X188789285Y-34207200D02*
X188932142Y-34254819D01*
X188932142Y-34254819D02*
X189027380Y-34254819D01*
X189027380Y-34254819D02*
X189170237Y-34207200D01*
X189170237Y-34207200D02*
X189265475Y-34111961D01*
X189265475Y-34111961D02*
X189313094Y-34016723D01*
X189313094Y-34016723D02*
X189360713Y-33826247D01*
X189360713Y-33826247D02*
X189360713Y-33683390D01*
X189360713Y-33683390D02*
X189313094Y-33492914D01*
X189313094Y-33492914D02*
X189265475Y-33397676D01*
X189265475Y-33397676D02*
X189170237Y-33302438D01*
X189170237Y-33302438D02*
X189027380Y-33254819D01*
X189027380Y-33254819D02*
X188932142Y-33254819D01*
X188932142Y-33254819D02*
X188789285Y-33302438D01*
X188789285Y-33302438D02*
X188741666Y-33350057D01*
X188408332Y-33254819D02*
X187741666Y-33254819D01*
X187741666Y-33254819D02*
X188170237Y-34254819D01*
X193361904Y-41929819D02*
X193361904Y-42739342D01*
X193361904Y-42739342D02*
X193314285Y-42834580D01*
X193314285Y-42834580D02*
X193266666Y-42882200D01*
X193266666Y-42882200D02*
X193171428Y-42929819D01*
X193171428Y-42929819D02*
X192980952Y-42929819D01*
X192980952Y-42929819D02*
X192885714Y-42882200D01*
X192885714Y-42882200D02*
X192838095Y-42834580D01*
X192838095Y-42834580D02*
X192790476Y-42739342D01*
X192790476Y-42739342D02*
X192790476Y-41929819D01*
X191885714Y-42263152D02*
X191885714Y-42929819D01*
X192123809Y-41882200D02*
X192361904Y-42596485D01*
X192361904Y-42596485D02*
X191742857Y-42596485D01*
X185216666Y-43629819D02*
X185549999Y-43153628D01*
X185788094Y-43629819D02*
X185788094Y-42629819D01*
X185788094Y-42629819D02*
X185407142Y-42629819D01*
X185407142Y-42629819D02*
X185311904Y-42677438D01*
X185311904Y-42677438D02*
X185264285Y-42725057D01*
X185264285Y-42725057D02*
X185216666Y-42820295D01*
X185216666Y-42820295D02*
X185216666Y-42963152D01*
X185216666Y-42963152D02*
X185264285Y-43058390D01*
X185264285Y-43058390D02*
X185311904Y-43106009D01*
X185311904Y-43106009D02*
X185407142Y-43153628D01*
X185407142Y-43153628D02*
X185788094Y-43153628D01*
X184740475Y-43629819D02*
X184549999Y-43629819D01*
X184549999Y-43629819D02*
X184454761Y-43582200D01*
X184454761Y-43582200D02*
X184407142Y-43534580D01*
X184407142Y-43534580D02*
X184311904Y-43391723D01*
X184311904Y-43391723D02*
X184264285Y-43201247D01*
X184264285Y-43201247D02*
X184264285Y-42820295D01*
X184264285Y-42820295D02*
X184311904Y-42725057D01*
X184311904Y-42725057D02*
X184359523Y-42677438D01*
X184359523Y-42677438D02*
X184454761Y-42629819D01*
X184454761Y-42629819D02*
X184645237Y-42629819D01*
X184645237Y-42629819D02*
X184740475Y-42677438D01*
X184740475Y-42677438D02*
X184788094Y-42725057D01*
X184788094Y-42725057D02*
X184835713Y-42820295D01*
X184835713Y-42820295D02*
X184835713Y-43058390D01*
X184835713Y-43058390D02*
X184788094Y-43153628D01*
X184788094Y-43153628D02*
X184740475Y-43201247D01*
X184740475Y-43201247D02*
X184645237Y-43248866D01*
X184645237Y-43248866D02*
X184454761Y-43248866D01*
X184454761Y-43248866D02*
X184359523Y-43201247D01*
X184359523Y-43201247D02*
X184311904Y-43153628D01*
X184311904Y-43153628D02*
X184264285Y-43058390D01*
D11*
X245659524Y-54345080D02*
X245659524Y-55345080D01*
X245659524Y-55345080D02*
X245897619Y-55345080D01*
X245897619Y-55345080D02*
X246040476Y-55297461D01*
X246040476Y-55297461D02*
X246135714Y-55202223D01*
X246135714Y-55202223D02*
X246183333Y-55106985D01*
X246183333Y-55106985D02*
X246230952Y-54916509D01*
X246230952Y-54916509D02*
X246230952Y-54773652D01*
X246230952Y-54773652D02*
X246183333Y-54583176D01*
X246183333Y-54583176D02*
X246135714Y-54487938D01*
X246135714Y-54487938D02*
X246040476Y-54392700D01*
X246040476Y-54392700D02*
X245897619Y-54345080D01*
X245897619Y-54345080D02*
X245659524Y-54345080D01*
X247135714Y-55345080D02*
X246659524Y-55345080D01*
X246659524Y-55345080D02*
X246611905Y-54868890D01*
X246611905Y-54868890D02*
X246659524Y-54916509D01*
X246659524Y-54916509D02*
X246754762Y-54964128D01*
X246754762Y-54964128D02*
X246992857Y-54964128D01*
X246992857Y-54964128D02*
X247088095Y-54916509D01*
X247088095Y-54916509D02*
X247135714Y-54868890D01*
X247135714Y-54868890D02*
X247183333Y-54773652D01*
X247183333Y-54773652D02*
X247183333Y-54535557D01*
X247183333Y-54535557D02*
X247135714Y-54440319D01*
X247135714Y-54440319D02*
X247088095Y-54392700D01*
X247088095Y-54392700D02*
X246992857Y-54345080D01*
X246992857Y-54345080D02*
X246754762Y-54345080D01*
X246754762Y-54345080D02*
X246659524Y-54392700D01*
X246659524Y-54392700D02*
X246611905Y-54440319D01*
X248135714Y-54345080D02*
X247564286Y-54345080D01*
X247850000Y-54345080D02*
X247850000Y-55345080D01*
X247850000Y-55345080D02*
X247754762Y-55202223D01*
X247754762Y-55202223D02*
X247659524Y-55106985D01*
X247659524Y-55106985D02*
X247564286Y-55059366D01*
X248469048Y-55345080D02*
X249088095Y-55345080D01*
X249088095Y-55345080D02*
X248754762Y-54964128D01*
X248754762Y-54964128D02*
X248897619Y-54964128D01*
X248897619Y-54964128D02*
X248992857Y-54916509D01*
X248992857Y-54916509D02*
X249040476Y-54868890D01*
X249040476Y-54868890D02*
X249088095Y-54773652D01*
X249088095Y-54773652D02*
X249088095Y-54535557D01*
X249088095Y-54535557D02*
X249040476Y-54440319D01*
X249040476Y-54440319D02*
X248992857Y-54392700D01*
X248992857Y-54392700D02*
X248897619Y-54345080D01*
X248897619Y-54345080D02*
X248611905Y-54345080D01*
X248611905Y-54345080D02*
X248516667Y-54392700D01*
X248516667Y-54392700D02*
X248469048Y-54440319D01*
X251140475Y-123069919D02*
X251140475Y-122069919D01*
X251140475Y-122069919D02*
X250902380Y-122069919D01*
X250902380Y-122069919D02*
X250759523Y-122117538D01*
X250759523Y-122117538D02*
X250664285Y-122212776D01*
X250664285Y-122212776D02*
X250616666Y-122308014D01*
X250616666Y-122308014D02*
X250569047Y-122498490D01*
X250569047Y-122498490D02*
X250569047Y-122641347D01*
X250569047Y-122641347D02*
X250616666Y-122831823D01*
X250616666Y-122831823D02*
X250664285Y-122927061D01*
X250664285Y-122927061D02*
X250759523Y-123022300D01*
X250759523Y-123022300D02*
X250902380Y-123069919D01*
X250902380Y-123069919D02*
X251140475Y-123069919D01*
X249664285Y-122069919D02*
X250140475Y-122069919D01*
X250140475Y-122069919D02*
X250188094Y-122546109D01*
X250188094Y-122546109D02*
X250140475Y-122498490D01*
X250140475Y-122498490D02*
X250045237Y-122450871D01*
X250045237Y-122450871D02*
X249807142Y-122450871D01*
X249807142Y-122450871D02*
X249711904Y-122498490D01*
X249711904Y-122498490D02*
X249664285Y-122546109D01*
X249664285Y-122546109D02*
X249616666Y-122641347D01*
X249616666Y-122641347D02*
X249616666Y-122879442D01*
X249616666Y-122879442D02*
X249664285Y-122974680D01*
X249664285Y-122974680D02*
X249711904Y-123022300D01*
X249711904Y-123022300D02*
X249807142Y-123069919D01*
X249807142Y-123069919D02*
X250045237Y-123069919D01*
X250045237Y-123069919D02*
X250140475Y-123022300D01*
X250140475Y-123022300D02*
X250188094Y-122974680D01*
X249283332Y-122069919D02*
X248664285Y-122069919D01*
X248664285Y-122069919D02*
X248997618Y-122450871D01*
X248997618Y-122450871D02*
X248854761Y-122450871D01*
X248854761Y-122450871D02*
X248759523Y-122498490D01*
X248759523Y-122498490D02*
X248711904Y-122546109D01*
X248711904Y-122546109D02*
X248664285Y-122641347D01*
X248664285Y-122641347D02*
X248664285Y-122879442D01*
X248664285Y-122879442D02*
X248711904Y-122974680D01*
X248711904Y-122974680D02*
X248759523Y-123022300D01*
X248759523Y-123022300D02*
X248854761Y-123069919D01*
X248854761Y-123069919D02*
X249140475Y-123069919D01*
X249140475Y-123069919D02*
X249235713Y-123022300D01*
X249235713Y-123022300D02*
X249283332Y-122974680D01*
X247759523Y-122069919D02*
X248235713Y-122069919D01*
X248235713Y-122069919D02*
X248283332Y-122546109D01*
X248283332Y-122546109D02*
X248235713Y-122498490D01*
X248235713Y-122498490D02*
X248140475Y-122450871D01*
X248140475Y-122450871D02*
X247902380Y-122450871D01*
X247902380Y-122450871D02*
X247807142Y-122498490D01*
X247807142Y-122498490D02*
X247759523Y-122546109D01*
X247759523Y-122546109D02*
X247711904Y-122641347D01*
X247711904Y-122641347D02*
X247711904Y-122879442D01*
X247711904Y-122879442D02*
X247759523Y-122974680D01*
X247759523Y-122974680D02*
X247807142Y-123022300D01*
X247807142Y-123022300D02*
X247902380Y-123069919D01*
X247902380Y-123069919D02*
X248140475Y-123069919D01*
X248140475Y-123069919D02*
X248235713Y-123022300D01*
X248235713Y-123022300D02*
X248283332Y-122974680D01*
D12*
%TO.C,R5*%
X185402064Y-38515000D02*
X184947936Y-38515000D01*
X185402064Y-39985000D02*
X184947936Y-39985000D01*
%TO.C,R4*%
X74465000Y-35372936D02*
X74465000Y-35827064D01*
X75935000Y-35372936D02*
X75935000Y-35827064D01*
%TO.C,D520*%
X252065000Y-80150000D02*
X254525000Y-80150000D01*
X252065000Y-81620000D02*
X252065000Y-80150000D01*
X254525000Y-81620000D02*
X252065000Y-81620000D01*
%TO.C,D517*%
X252065000Y-85990000D02*
X254525000Y-85990000D01*
X252065000Y-87460000D02*
X252065000Y-85990000D01*
X254525000Y-87460000D02*
X252065000Y-87460000D01*
%TO.C,R7*%
X183302064Y-34115000D02*
X182847936Y-34115000D01*
X183302064Y-35585000D02*
X182847936Y-35585000D01*
%TO.C,D518*%
X252065000Y-84040000D02*
X254525000Y-84040000D01*
X252065000Y-85510000D02*
X252065000Y-84040000D01*
X254525000Y-85510000D02*
X252065000Y-85510000D01*
%TO.C,D519*%
X252065000Y-82090000D02*
X254525000Y-82090000D01*
X252065000Y-83560000D02*
X252065000Y-82090000D01*
X254525000Y-83560000D02*
X252065000Y-83560000D01*
%TO.C,R6*%
X183302064Y-36315000D02*
X182847936Y-36315000D01*
X183302064Y-37785000D02*
X182847936Y-37785000D01*
%TO.C,C7*%
X187865000Y-36711252D02*
X187865000Y-36188748D01*
X189335000Y-36711252D02*
X189335000Y-36188748D01*
%TO.C,U4*%
X191590000Y-35840000D02*
X191590000Y-39960000D01*
X191590000Y-39960000D02*
X191655000Y-39960000D01*
X191655000Y-35840000D02*
X191590000Y-35840000D01*
X200395000Y-39960000D02*
X200460000Y-39960000D01*
X200460000Y-35840000D02*
X200395000Y-35840000D01*
X200460000Y-39960000D02*
X200460000Y-35840000D01*
X191655000Y-35300000D02*
X191325000Y-35540000D01*
X191325000Y-35060000D01*
X191655000Y-35300000D01*
G36*
X191655000Y-35300000D02*
G01*
X191325000Y-35540000D01*
X191325000Y-35060000D01*
X191655000Y-35300000D01*
G37*
%TO.C,R9*%
X185402064Y-40715000D02*
X184947936Y-40715000D01*
X185402064Y-42185000D02*
X184947936Y-42185000D01*
%TO.C,D513*%
X245675000Y-54087500D02*
X245675000Y-47077500D01*
X248975000Y-54087500D02*
X245675000Y-54087500D01*
X248975000Y-54087500D02*
X248975000Y-47077500D01*
%TO.C,D535*%
X253985000Y-118412500D02*
X246975000Y-118412500D01*
X253985000Y-118412500D02*
X253985000Y-121712500D01*
X253985000Y-121712500D02*
X246975000Y-121712500D01*
%TD*%
M02*
