M48
; DRILL file {KiCad 9.0.6} date 2026-03-07T16:21:18-0500
; FORMAT={-:-/ absolute / metric / decimal}
; #@! TF.CreationDate,2026-03-07T16:21:18-05:00
; #@! TF.GenerationSoftware,Kicad,Pcbnew,9.0.6
; #@! TF.FileFunction,Plated,1,4,PTH
FMAT,2
METRIC
; #@! TA.AperFunction,Plated,PTH,ViaDrill
T1C0.300
; #@! TA.AperFunction,Plated,PTH,ComponentDrill
T2C0.300
; #@! TA.AperFunction,Plated,PTH,ComponentDrill
T3C0.600
; #@! TA.AperFunction,Plated,PTH,ComponentDrill
T4C1.000
%
G90
G05
T1
X60.8Y-61.75
X60.8Y-66.75
X60.8Y-71.75
X60.8Y-76.75
X60.8Y-81.75
X60.8Y-86.75
X60.8Y-91.75
X60.8Y-96.75
X60.8Y-101.75
X60.8Y-106.75
X60.8Y-111.75
X60.8Y-116.75
X60.8Y-121.75
X60.8Y-126.75
X60.8Y-131.75
X60.8Y-136.75
X64.5Y-61.75
X64.5Y-66.75
X64.5Y-71.75
X64.5Y-76.75
X64.5Y-81.75
X64.5Y-86.75
X64.5Y-91.75
X64.5Y-96.75
X64.5Y-101.75
X64.5Y-106.75
X64.5Y-111.75
X64.5Y-116.75
X64.5Y-121.75
X64.5Y-126.75
X64.5Y-131.75
X64.5Y-136.75
X65.15Y-64.0
X65.15Y-69.0
X65.15Y-74.0
X65.15Y-79.0
X65.15Y-84.0
X65.15Y-89.0
X65.15Y-94.0
X65.15Y-99.0
X65.15Y-104.0
X65.15Y-109.0
X65.15Y-114.0
X65.15Y-119.0
X65.15Y-124.0
X65.15Y-129.0
X65.15Y-134.0
X65.15Y-139.0
X65.8Y-61.75
X65.8Y-66.75
X65.8Y-71.75
X65.8Y-76.75
X65.8Y-81.75
X65.8Y-86.75
X65.8Y-91.75
X65.8Y-96.75
X65.8Y-101.75
X65.8Y-106.75
X65.8Y-111.75
X65.8Y-116.75
X65.8Y-121.75
X65.8Y-126.75
X65.8Y-131.75
X65.8Y-136.75
X67.8Y-56.625
X69.5Y-61.75
X69.5Y-66.75
X69.5Y-71.75
X69.5Y-76.75
X69.5Y-81.75
X69.5Y-86.75
X69.5Y-91.75
X69.5Y-96.75
X69.5Y-101.75
X69.5Y-106.75
X69.5Y-111.75
X69.5Y-116.75
X69.5Y-121.75
X69.5Y-126.75
X69.5Y-131.75
X69.5Y-136.75
X70.15Y-64.0
X70.15Y-69.0
X70.15Y-74.0
X70.15Y-79.0
X70.15Y-84.0
X70.15Y-89.0
X70.15Y-94.0
X70.15Y-99.0
X70.15Y-104.0
X70.15Y-109.0
X70.15Y-114.0
X70.15Y-119.0
X70.15Y-124.0
X70.15Y-129.0
X70.15Y-134.0
X70.15Y-139.0
X70.8Y-61.75
X70.8Y-66.75
X70.8Y-71.75
X70.8Y-76.75
X70.8Y-81.75
X70.8Y-86.75
X70.8Y-91.75
X70.8Y-96.75
X70.8Y-101.75
X70.8Y-106.75
X70.8Y-111.75
X70.8Y-116.75
X70.8Y-121.75
X70.8Y-126.75
X70.8Y-131.75
X70.8Y-136.75
X72.725Y-56.525
X74.5Y-61.75
X74.5Y-66.75
X74.5Y-71.75
X74.5Y-76.75
X74.5Y-81.75
X74.5Y-86.75
X74.5Y-91.75
X74.5Y-96.75
X74.5Y-101.75
X74.5Y-106.75
X74.5Y-111.75
X74.5Y-116.75
X74.5Y-121.75
X74.5Y-126.75
X74.5Y-131.75
X74.5Y-136.75
X75.15Y-64.0
X75.15Y-69.0
X75.15Y-74.0
X75.15Y-79.0
X75.15Y-84.0
X75.15Y-89.0
X75.15Y-94.0
X75.15Y-99.0
X75.15Y-104.0
X75.15Y-109.0
X75.15Y-114.0
X75.15Y-119.0
X75.15Y-124.0
X75.15Y-129.0
X75.15Y-134.0
X75.15Y-139.0
X75.8Y-61.75
X75.8Y-66.75
X75.8Y-71.75
X75.8Y-76.75
X75.8Y-81.75
X75.8Y-86.75
X75.8Y-91.75
X75.8Y-96.75
X75.8Y-101.75
X75.8Y-106.75
X75.8Y-111.75
X75.8Y-116.75
X75.8Y-121.75
X75.8Y-126.75
X75.8Y-131.75
X75.8Y-136.75
X77.225Y-26.775
X77.6Y-56.6
X78.3Y-26.05
X79.3Y-25.35
X79.5Y-61.75
X79.5Y-66.75
X79.5Y-71.75
X79.5Y-76.75
X79.5Y-81.75
X79.5Y-86.75
X79.5Y-91.75
X79.5Y-96.75
X79.5Y-101.75
X79.5Y-106.75
X79.5Y-111.75
X79.5Y-116.75
X79.5Y-121.75
X79.5Y-126.75
X79.5Y-131.75
X79.5Y-136.75
X80.125Y-40.025
X80.15Y-64.0
X80.15Y-69.0
X80.15Y-74.0
X80.15Y-79.0
X80.15Y-84.0
X80.15Y-89.0
X80.15Y-94.0
X80.15Y-99.0
X80.15Y-104.0
X80.15Y-109.0
X80.15Y-114.0
X80.15Y-119.0
X80.15Y-124.0
X80.15Y-129.0
X80.15Y-134.0
X80.15Y-139.0
X80.225Y-24.65
X80.8Y-61.75
X80.8Y-66.75
X80.8Y-71.75
X80.8Y-76.75
X80.8Y-81.75
X80.8Y-86.75
X80.8Y-91.75
X80.8Y-96.75
X80.8Y-101.75
X80.8Y-106.75
X80.8Y-111.75
X80.8Y-116.75
X80.8Y-121.75
X80.8Y-126.75
X80.8Y-131.75
X80.8Y-136.75
X81.575Y-35.675
X82.475Y-56.7
X83.025Y-47.85
X83.05Y-35.575
X83.75Y-48.9
X84.5Y-61.75
X84.5Y-66.75
X84.5Y-71.75
X84.5Y-76.75
X84.5Y-81.75
X84.5Y-86.75
X84.5Y-91.75
X84.5Y-96.75
X84.5Y-101.75
X84.5Y-106.75
X84.5Y-111.75
X84.5Y-116.75
X84.5Y-121.75
X84.5Y-126.75
X84.5Y-131.75
X84.5Y-136.75
X84.65Y-47.9
X85.125Y-29.9
X85.15Y-35.425
X85.15Y-64.0
X85.15Y-69.0
X85.15Y-74.0
X85.15Y-79.0
X85.15Y-84.0
X85.15Y-89.0
X85.15Y-94.0
X85.15Y-99.0
X85.15Y-104.0
X85.15Y-109.0
X85.15Y-114.0
X85.15Y-119.0
X85.15Y-124.0
X85.15Y-129.0
X85.15Y-134.0
X85.15Y-139.0
X85.375Y-48.95
X85.8Y-61.75
X85.8Y-66.75
X85.8Y-71.75
X85.8Y-76.75
X85.8Y-81.75
X85.8Y-86.75
X85.8Y-91.75
X85.8Y-96.75
X85.8Y-101.75
X85.8Y-106.75
X85.8Y-111.75
X85.8Y-116.75
X85.8Y-121.75
X85.8Y-126.75
X85.8Y-131.75
X85.8Y-136.75
X86.0Y-47.925
X86.725Y-35.575
X87.0Y-57.425
X87.025Y-48.925
X87.825Y-47.675
X88.1Y-35.6
X88.7Y-37.425
X88.7Y-38.725
X89.175Y-40.025
X89.5Y-61.75
X89.5Y-66.75
X89.5Y-71.75
X89.5Y-76.75
X89.5Y-81.75
X89.5Y-86.75
X89.5Y-91.75
X89.5Y-96.75
X89.5Y-101.75
X89.5Y-106.75
X89.5Y-111.75
X89.5Y-116.75
X89.5Y-121.75
X89.5Y-126.75
X89.5Y-131.75
X89.5Y-136.75
X90.15Y-64.0
X90.15Y-69.0
X90.15Y-74.0
X90.15Y-79.0
X90.15Y-84.0
X90.15Y-89.0
X90.15Y-94.0
X90.15Y-99.0
X90.15Y-104.0
X90.15Y-109.0
X90.15Y-114.0
X90.15Y-119.0
X90.15Y-124.0
X90.15Y-129.0
X90.15Y-134.0
X90.15Y-139.0
X90.3Y-38.375
X90.8Y-61.75
X90.8Y-66.75
X90.8Y-71.75
X90.8Y-76.75
X90.8Y-81.75
X90.8Y-86.75
X90.8Y-91.75
X90.8Y-96.75
X90.8Y-101.75
X90.8Y-106.75
X90.8Y-111.75
X90.8Y-116.75
X90.8Y-121.75
X90.8Y-126.75
X90.8Y-131.75
X90.8Y-136.75
X94.475Y-34.0
X94.5Y-61.75
X94.5Y-66.75
X94.5Y-71.75
X94.5Y-76.75
X94.5Y-81.75
X94.5Y-86.75
X94.5Y-91.75
X94.5Y-96.75
X94.5Y-101.75
X94.5Y-106.75
X94.5Y-111.75
X94.5Y-116.75
X94.5Y-121.75
X94.5Y-126.75
X94.5Y-131.75
X94.5Y-136.75
X94.75Y-45.6
X94.775Y-40.7
X95.15Y-64.0
X95.15Y-69.0
X95.15Y-74.0
X95.15Y-79.0
X95.15Y-84.0
X95.15Y-89.0
X95.15Y-94.0
X95.15Y-99.0
X95.15Y-104.0
X95.15Y-109.0
X95.15Y-114.0
X95.15Y-119.0
X95.15Y-124.0
X95.15Y-129.0
X95.15Y-134.0
X95.15Y-139.0
X95.8Y-61.75
X95.8Y-66.75
X95.8Y-71.75
X95.8Y-76.75
X95.8Y-81.75
X95.8Y-86.75
X95.8Y-91.75
X95.8Y-96.75
X95.8Y-101.75
X95.8Y-106.75
X95.8Y-111.75
X95.8Y-116.75
X95.8Y-121.75
X95.8Y-126.75
X95.8Y-131.75
X95.8Y-136.75
X96.4Y-26.775
X97.475Y-26.05
X98.475Y-25.35
X99.2Y-32.625
X99.4Y-24.65
X99.5Y-61.75
X99.5Y-66.75
X99.5Y-71.75
X99.5Y-76.75
X99.5Y-81.75
X99.5Y-86.75
X99.5Y-91.75
X99.5Y-96.75
X99.5Y-101.75
X99.5Y-106.75
X99.5Y-111.75
X99.5Y-116.75
X99.5Y-121.75
X99.5Y-126.75
X99.5Y-131.75
X99.5Y-136.75
X100.15Y-64.0
X100.15Y-69.0
X100.15Y-74.0
X100.15Y-79.0
X100.15Y-84.0
X100.15Y-89.0
X100.15Y-94.0
X100.15Y-99.0
X100.15Y-104.0
X100.15Y-109.0
X100.15Y-114.0
X100.15Y-119.0
X100.15Y-124.0
X100.15Y-129.0
X100.15Y-134.0
X100.15Y-139.0
X100.675Y-28.475
X100.8Y-61.75
X100.8Y-66.75
X100.8Y-71.75
X100.8Y-76.75
X100.8Y-81.75
X100.8Y-86.75
X100.8Y-91.75
X100.8Y-96.75
X100.8Y-101.75
X100.8Y-106.75
X100.8Y-111.75
X100.8Y-116.75
X100.8Y-121.75
X100.8Y-126.75
X100.8Y-131.75
X100.8Y-136.75
X101.4Y-40.425
X101.875Y-41.5
X102.2Y-28.45
X102.65Y-40.425
X103.225Y-41.425
X103.675Y-49.75
X104.05Y-40.425
X104.1Y-22.925
X104.1Y-28.45
X104.5Y-61.75
X104.5Y-66.75
X104.5Y-71.75
X104.5Y-76.75
X104.5Y-81.75
X104.5Y-86.75
X104.5Y-91.75
X104.5Y-96.75
X104.5Y-101.75
X104.5Y-106.75
X104.5Y-111.75
X104.5Y-116.75
X104.5Y-121.75
X104.5Y-126.75
X104.5Y-131.75
X104.5Y-136.75
X104.75Y-41.4
X105.15Y-64.0
X105.15Y-69.0
X105.15Y-74.0
X105.15Y-79.0
X105.15Y-84.0
X105.15Y-89.0
X105.15Y-94.0
X105.15Y-99.0
X105.15Y-104.0
X105.15Y-109.0
X105.15Y-114.0
X105.15Y-119.0
X105.15Y-124.0
X105.15Y-129.0
X105.15Y-134.0
X105.15Y-139.0
X105.425Y-40.4
X105.775Y-49.75
X105.8Y-61.75
X105.8Y-66.75
X105.8Y-71.75
X105.8Y-76.75
X105.8Y-81.75
X105.8Y-86.75
X105.8Y-91.75
X105.8Y-96.75
X105.8Y-101.75
X105.8Y-106.75
X105.8Y-111.75
X105.8Y-116.75
X105.8Y-121.75
X105.8Y-126.75
X105.8Y-131.75
X105.8Y-136.75
X106.3Y-28.45
X107.75Y-32.625
X107.825Y-30.025
X107.825Y-31.325
X107.925Y-49.75
X108.95Y-31.35
X109.45Y-34.51
X109.5Y-61.75
X109.5Y-66.75
X109.5Y-71.75
X109.5Y-76.75
X109.5Y-81.75
X109.5Y-86.75
X109.5Y-91.75
X109.5Y-96.75
X109.5Y-101.75
X109.5Y-106.75
X109.5Y-111.75
X109.5Y-116.75
X109.5Y-121.75
X109.5Y-126.75
X109.5Y-131.75
X109.5Y-136.75
X109.95Y-49.75
X110.15Y-64.0
X110.15Y-69.0
X110.15Y-74.0
X110.15Y-79.0
X110.15Y-84.0
X110.15Y-89.0
X110.15Y-94.0
X110.15Y-99.0
X110.15Y-104.0
X110.15Y-109.0
X110.15Y-114.0
X110.15Y-119.0
X110.15Y-124.0
X110.15Y-129.0
X110.15Y-134.0
X110.15Y-139.0
X110.8Y-61.75
X110.8Y-66.75
X110.8Y-71.75
X110.8Y-76.75
X110.8Y-81.75
X110.8Y-86.75
X110.8Y-91.75
X110.8Y-96.75
X110.8Y-101.75
X110.8Y-106.75
X110.8Y-111.75
X110.8Y-116.75
X110.8Y-121.75
X110.8Y-126.75
X110.8Y-131.75
X110.8Y-136.75
X112.225Y-49.75
X113.75Y-34.0
X114.275Y-26.775
X114.425Y-49.75
X114.5Y-61.75
X114.5Y-66.75
X114.5Y-71.75
X114.5Y-76.75
X114.5Y-81.75
X114.5Y-86.75
X114.5Y-91.75
X114.5Y-96.75
X114.5Y-101.75
X114.5Y-106.75
X114.5Y-111.75
X114.5Y-116.75
X114.5Y-121.75
X114.5Y-126.75
X114.5Y-131.75
X114.5Y-136.75
X115.15Y-64.0
X115.15Y-69.0
X115.15Y-74.0
X115.15Y-79.0
X115.15Y-84.0
X115.15Y-89.0
X115.15Y-94.0
X115.15Y-99.0
X115.15Y-104.0
X115.15Y-109.0
X115.15Y-114.0
X115.15Y-119.0
X115.15Y-124.0
X115.15Y-129.0
X115.15Y-134.0
X115.15Y-139.0
X115.35Y-26.05
X115.8Y-61.75
X115.8Y-66.75
X115.8Y-71.75
X115.8Y-76.75
X115.8Y-81.75
X115.8Y-86.75
X115.8Y-91.75
X115.8Y-96.75
X115.8Y-101.75
X115.8Y-106.75
X115.8Y-111.75
X115.8Y-116.75
X115.8Y-121.75
X115.8Y-126.75
X115.8Y-131.75
X115.8Y-136.75
X116.35Y-25.35
X116.475Y-33.9
X116.475Y-35.2
X116.475Y-36.5
X116.475Y-37.8
X116.625Y-49.725
X117.1Y-32.6
X117.125Y-34.55
X117.125Y-35.85
X117.125Y-37.15
X117.125Y-38.45
X117.275Y-24.65
X118.575Y-28.475
X119.025Y-49.725
X119.5Y-61.75
X119.5Y-66.75
X119.5Y-71.75
X119.5Y-76.75
X119.5Y-81.75
X119.5Y-86.75
X119.5Y-91.75
X119.5Y-96.75
X119.5Y-101.75
X119.5Y-106.75
X119.5Y-111.75
X119.5Y-116.75
X119.5Y-121.75
X119.5Y-126.75
X119.5Y-131.75
X119.5Y-136.75
X120.15Y-64.0
X120.15Y-69.0
X120.15Y-74.0
X120.15Y-79.0
X120.15Y-84.0
X120.15Y-89.0
X120.15Y-94.0
X120.15Y-99.0
X120.15Y-104.0
X120.15Y-109.0
X120.15Y-114.0
X120.15Y-119.0
X120.15Y-124.0
X120.15Y-129.0
X120.15Y-134.0
X120.15Y-139.0
X120.275Y-28.45
X120.5Y-40.2
X120.8Y-61.75
X120.8Y-66.75
X120.8Y-71.75
X120.8Y-76.75
X120.8Y-81.75
X120.8Y-86.75
X120.8Y-91.75
X120.8Y-96.75
X120.8Y-101.75
X120.8Y-106.75
X120.8Y-111.75
X120.8Y-116.75
X120.8Y-121.75
X120.8Y-126.75
X120.8Y-131.75
X120.8Y-136.75
X120.975Y-41.275
X121.275Y-49.725
X121.75Y-40.2
X121.95Y-23.125
X121.95Y-28.45
X122.325Y-41.2
X123.15Y-40.2
X123.45Y-49.7
X123.775Y-28.45
X123.85Y-41.175
X124.5Y-61.75
X124.5Y-66.75
X124.5Y-71.75
X124.5Y-76.75
X124.5Y-81.75
X124.5Y-86.75
X124.5Y-91.75
X124.5Y-96.75
X124.5Y-101.75
X124.5Y-106.75
X124.5Y-111.75
X124.5Y-116.75
X124.5Y-121.75
X124.5Y-126.75
X124.5Y-131.75
X124.5Y-136.75
X124.525Y-40.175
X125.15Y-64.0
X125.15Y-69.0
X125.15Y-74.0
X125.15Y-79.0
X125.15Y-84.0
X125.15Y-89.0
X125.15Y-94.0
X125.15Y-99.0
X125.15Y-104.0
X125.15Y-109.0
X125.15Y-114.0
X125.15Y-119.0
X125.15Y-124.0
X125.15Y-129.0
X125.15Y-134.0
X125.15Y-139.0
X125.425Y-49.7
X125.725Y-30.0
X125.725Y-31.3
X125.725Y-32.6
X125.8Y-34.55
X125.8Y-35.85
X125.8Y-37.15
X125.8Y-38.45
X125.8Y-61.75
X125.8Y-66.75
X125.8Y-71.75
X125.8Y-76.75
X125.8Y-81.75
X125.8Y-86.75
X125.8Y-91.75
X125.8Y-96.75
X125.8Y-101.75
X125.8Y-106.75
X125.8Y-111.75
X125.8Y-116.75
X125.8Y-121.75
X125.8Y-126.75
X125.8Y-131.75
X125.8Y-136.75
X126.475Y-33.9
X126.475Y-35.2
X126.475Y-36.5
X126.475Y-37.8
X126.875Y-31.325
X127.875Y-49.675
X129.5Y-61.75
X129.5Y-66.75
X129.5Y-71.75
X129.5Y-76.75
X129.5Y-81.75
X129.5Y-86.75
X129.5Y-91.75
X129.5Y-96.75
X129.5Y-101.75
X129.5Y-106.75
X129.5Y-111.75
X129.5Y-116.75
X129.5Y-121.75
X129.5Y-126.75
X129.5Y-131.75
X129.5Y-136.75
X129.6Y-49.675
X130.06Y-34.14
X130.15Y-64.0
X130.15Y-69.0
X130.15Y-74.0
X130.15Y-79.0
X130.15Y-84.0
X130.15Y-89.0
X130.15Y-94.0
X130.15Y-99.0
X130.15Y-104.0
X130.15Y-109.0
X130.15Y-114.0
X130.15Y-119.0
X130.15Y-124.0
X130.15Y-129.0
X130.15Y-134.0
X130.15Y-139.0
X130.8Y-26.775
X130.8Y-61.75
X130.8Y-66.75
X130.8Y-71.75
X130.8Y-76.75
X130.8Y-81.75
X130.8Y-86.75
X130.8Y-91.75
X130.8Y-96.75
X130.8Y-101.75
X130.8Y-106.75
X130.8Y-111.75
X130.8Y-116.75
X130.8Y-121.75
X130.8Y-126.75
X130.8Y-131.75
X130.8Y-136.75
X131.025Y-49.675
X131.875Y-26.05
X132.4Y-49.675
X132.55Y-33.85
X132.55Y-35.15
X132.575Y-36.45
X132.575Y-37.75
X132.875Y-25.35
X133.4Y-34.5
X133.4Y-35.8
X133.425Y-37.1
X133.425Y-38.4
X133.625Y-32.55
X133.8Y-24.65
X134.5Y-61.75
X134.5Y-66.75
X134.5Y-71.75
X134.5Y-76.75
X134.5Y-81.75
X134.5Y-86.75
X134.5Y-91.75
X134.5Y-96.75
X134.5Y-101.75
X134.5Y-106.75
X134.5Y-111.75
X134.5Y-116.75
X134.5Y-121.75
X134.5Y-126.75
X134.5Y-131.75
X134.5Y-136.75
X134.65Y-49.65
X135.1Y-28.45
X135.15Y-64.0
X135.15Y-69.0
X135.15Y-74.0
X135.15Y-79.0
X135.15Y-84.0
X135.15Y-89.0
X135.15Y-94.0
X135.15Y-99.0
X135.15Y-104.0
X135.15Y-109.0
X135.15Y-114.0
X135.15Y-119.0
X135.15Y-124.0
X135.15Y-129.0
X135.15Y-134.0
X135.15Y-139.0
X135.8Y-61.75
X135.8Y-66.75
X135.8Y-71.75
X135.8Y-76.75
X135.8Y-81.75
X135.8Y-86.75
X135.8Y-91.75
X135.8Y-96.75
X135.8Y-101.75
X135.8Y-106.75
X135.8Y-111.75
X135.8Y-116.75
X135.8Y-121.75
X135.8Y-126.75
X135.8Y-131.75
X135.8Y-136.75
X136.55Y-28.425
X136.85Y-49.65
X136.95Y-40.175
X138.2Y-40.175
X138.4Y-28.425
X138.425Y-23.1
X139.1Y-49.65
X139.5Y-61.75
X139.5Y-66.75
X139.5Y-71.75
X139.5Y-76.75
X139.5Y-81.75
X139.5Y-86.75
X139.5Y-91.75
X139.5Y-96.75
X139.5Y-101.75
X139.5Y-106.75
X139.5Y-111.75
X139.5Y-116.75
X139.5Y-121.75
X139.5Y-126.75
X139.5Y-131.75
X139.5Y-136.75
X139.6Y-40.175
X140.15Y-64.0
X140.15Y-69.0
X140.15Y-74.0
X140.15Y-79.0
X140.15Y-84.0
X140.15Y-89.0
X140.15Y-94.0
X140.15Y-99.0
X140.15Y-104.0
X140.15Y-109.0
X140.15Y-114.0
X140.15Y-119.0
X140.15Y-124.0
X140.15Y-129.0
X140.15Y-134.0
X140.15Y-139.0
X140.35Y-28.425
X140.8Y-61.75
X140.8Y-66.75
X140.8Y-71.75
X140.8Y-76.75
X140.8Y-81.75
X140.8Y-86.75
X140.8Y-91.75
X140.8Y-96.75
X140.8Y-101.75
X140.8Y-106.75
X140.8Y-111.75
X140.8Y-116.75
X140.8Y-121.75
X140.8Y-126.75
X140.8Y-131.75
X140.8Y-136.75
X140.975Y-40.15
X141.375Y-49.65
X142.225Y-32.55
X142.25Y-29.95
X142.25Y-31.25
X142.4Y-34.5
X142.4Y-35.8
X142.4Y-37.1
X142.4Y-38.4
X143.075Y-33.85
X143.075Y-35.15
X143.075Y-36.45
X143.075Y-37.75
X143.5Y-31.3
X143.65Y-49.65
X144.5Y-61.75
X144.5Y-66.75
X144.5Y-71.75
X144.5Y-76.75
X144.5Y-81.75
X144.5Y-86.75
X144.5Y-91.75
X144.5Y-96.75
X144.5Y-101.75
X144.5Y-106.75
X144.5Y-111.75
X144.5Y-116.75
X144.5Y-121.75
X144.5Y-126.75
X144.5Y-131.75
X144.5Y-136.75
X145.15Y-64.0
X145.15Y-69.0
X145.15Y-74.0
X145.15Y-79.0
X145.15Y-84.0
X145.15Y-89.0
X145.15Y-94.0
X145.15Y-99.0
X145.15Y-104.0
X145.15Y-109.0
X145.15Y-114.0
X145.15Y-119.0
X145.15Y-124.0
X145.15Y-129.0
X145.15Y-134.0
X145.15Y-139.0
X145.8Y-61.75
X145.8Y-66.75
X145.8Y-71.75
X145.8Y-76.75
X145.8Y-81.75
X145.8Y-86.75
X145.8Y-91.75
X145.8Y-96.75
X145.8Y-101.75
X145.8Y-106.75
X145.8Y-111.75
X145.8Y-116.75
X145.8Y-121.75
X145.8Y-126.75
X145.8Y-131.75
X145.8Y-136.75
X145.825Y-49.65
X146.65Y-34.95
X147.325Y-26.775
X147.875Y-49.625
X148.4Y-26.05
X149.0Y-37.525
X149.4Y-25.35
X149.5Y-61.75
X149.5Y-66.75
X149.5Y-71.75
X149.5Y-76.75
X149.5Y-81.75
X149.5Y-86.75
X149.5Y-91.75
X149.5Y-96.75
X149.5Y-101.75
X149.5Y-106.75
X149.5Y-111.75
X149.5Y-116.75
X149.5Y-121.75
X149.5Y-126.75
X149.5Y-131.75
X149.5Y-136.75
X149.975Y-49.625
X150.15Y-64.0
X150.15Y-69.0
X150.15Y-74.0
X150.15Y-79.0
X150.15Y-84.0
X150.15Y-89.0
X150.15Y-94.0
X150.15Y-99.0
X150.15Y-104.0
X150.15Y-109.0
X150.15Y-114.0
X150.15Y-119.0
X150.15Y-124.0
X150.15Y-129.0
X150.15Y-134.0
X150.15Y-139.0
X150.325Y-24.65
X150.8Y-61.75
X150.8Y-66.75
X150.8Y-71.75
X150.8Y-76.75
X150.8Y-81.75
X150.8Y-86.75
X150.8Y-91.75
X150.8Y-96.75
X150.8Y-101.75
X150.8Y-106.75
X150.8Y-111.75
X150.8Y-116.75
X150.8Y-121.75
X150.8Y-126.75
X150.8Y-131.75
X150.8Y-136.75
X150.925Y-35.8
X151.275Y-28.125
X151.9Y-49.625
X152.35Y-31.725
X153.8Y-31.725
X154.5Y-61.75
X154.5Y-66.75
X154.5Y-71.75
X154.5Y-76.75
X154.5Y-81.75
X154.5Y-86.75
X154.5Y-91.75
X154.5Y-96.75
X154.5Y-101.75
X154.5Y-106.75
X154.5Y-111.75
X154.5Y-116.75
X154.5Y-121.75
X154.5Y-126.75
X154.5Y-131.75
X154.5Y-136.75
X155.15Y-64.0
X155.15Y-69.0
X155.15Y-74.0
X155.15Y-79.0
X155.15Y-84.0
X155.15Y-89.0
X155.15Y-94.0
X155.15Y-99.0
X155.15Y-104.0
X155.15Y-109.0
X155.15Y-114.0
X155.15Y-119.0
X155.15Y-124.0
X155.15Y-129.0
X155.15Y-134.0
X155.15Y-139.0
X155.475Y-31.65
X155.8Y-61.75
X155.8Y-66.75
X155.8Y-71.75
X155.8Y-76.75
X155.8Y-81.75
X155.8Y-86.75
X155.8Y-91.75
X155.8Y-96.75
X155.8Y-101.75
X155.8Y-106.75
X155.8Y-111.75
X155.8Y-116.75
X155.8Y-121.75
X155.8Y-126.75
X155.8Y-131.75
X155.8Y-136.75
X157.125Y-31.625
X159.5Y-35.8
X159.5Y-61.75
X159.5Y-66.75
X159.5Y-71.75
X159.5Y-76.75
X159.5Y-81.75
X159.5Y-86.75
X159.5Y-91.75
X159.5Y-96.75
X159.5Y-101.75
X159.5Y-106.75
X159.5Y-111.75
X159.5Y-116.75
X159.5Y-121.75
X159.5Y-126.75
X159.5Y-131.75
X159.5Y-136.75
X159.525Y-33.2
X159.525Y-34.5
X160.15Y-64.0
X160.15Y-69.0
X160.15Y-74.0
X160.15Y-79.0
X160.15Y-84.0
X160.15Y-89.0
X160.15Y-94.0
X160.15Y-99.0
X160.15Y-104.0
X160.15Y-109.0
X160.15Y-114.0
X160.15Y-119.0
X160.15Y-124.0
X160.15Y-129.0
X160.15Y-134.0
X160.15Y-139.0
X160.8Y-61.75
X160.8Y-66.75
X160.8Y-71.75
X160.8Y-76.75
X160.8Y-81.75
X160.8Y-86.75
X160.8Y-91.75
X160.8Y-96.75
X160.8Y-101.75
X160.8Y-106.75
X160.8Y-111.75
X160.8Y-116.75
X160.8Y-121.75
X160.8Y-126.75
X160.8Y-131.75
X160.8Y-136.75
X160.825Y-34.325
X162.925Y-28.75
X164.2Y-41.4
X164.5Y-61.75
X164.5Y-66.75
X164.5Y-71.75
X164.5Y-76.75
X164.5Y-81.75
X164.5Y-86.75
X164.5Y-91.75
X164.5Y-96.75
X164.5Y-101.75
X164.5Y-106.75
X164.5Y-111.75
X164.5Y-116.75
X164.5Y-121.75
X164.5Y-126.75
X164.5Y-131.75
X164.5Y-136.75
X165.15Y-64.0
X165.15Y-69.0
X165.15Y-74.0
X165.15Y-79.0
X165.15Y-84.0
X165.15Y-89.0
X165.15Y-94.0
X165.15Y-99.0
X165.15Y-104.0
X165.15Y-109.0
X165.15Y-114.0
X165.15Y-119.0
X165.15Y-124.0
X165.15Y-129.0
X165.15Y-134.0
X165.15Y-139.0
X165.75Y-26.775
X165.8Y-61.75
X165.8Y-66.75
X165.8Y-71.75
X165.8Y-76.75
X165.8Y-81.75
X165.8Y-86.75
X165.8Y-91.75
X165.8Y-96.75
X165.8Y-101.75
X165.8Y-106.75
X165.8Y-111.75
X165.8Y-116.75
X165.8Y-121.75
X165.8Y-126.75
X165.8Y-131.75
X165.8Y-136.75
X166.825Y-26.05
X167.825Y-25.35
X168.55Y-39.3
X168.75Y-24.65
X169.5Y-61.75
X169.5Y-66.75
X169.5Y-71.75
X169.5Y-76.75
X169.5Y-81.75
X169.5Y-86.75
X169.5Y-91.75
X169.5Y-96.75
X169.5Y-101.75
X169.5Y-106.75
X169.5Y-111.75
X169.5Y-116.75
X169.5Y-121.75
X169.5Y-126.75
X169.5Y-131.75
X169.5Y-136.75
X170.075Y-34.85
X170.15Y-64.0
X170.15Y-69.0
X170.15Y-74.0
X170.15Y-79.0
X170.15Y-84.0
X170.15Y-89.0
X170.15Y-94.0
X170.15Y-99.0
X170.15Y-104.0
X170.15Y-109.0
X170.15Y-114.0
X170.15Y-119.0
X170.15Y-124.0
X170.15Y-129.0
X170.15Y-134.0
X170.15Y-139.0
X170.8Y-61.75
X170.8Y-66.75
X170.8Y-71.75
X170.8Y-76.75
X170.8Y-81.75
X170.8Y-86.75
X170.8Y-91.75
X170.8Y-96.75
X170.8Y-101.75
X170.8Y-106.75
X170.8Y-111.75
X170.8Y-116.75
X170.8Y-121.75
X170.8Y-126.75
X170.8Y-131.75
X170.8Y-136.75
X171.8Y-34.875
X173.325Y-29.625
X173.325Y-34.9
X174.5Y-61.75
X174.5Y-66.75
X174.5Y-71.75
X174.5Y-76.75
X174.5Y-81.75
X174.5Y-86.75
X174.5Y-91.75
X174.5Y-96.75
X174.5Y-101.75
X174.5Y-106.75
X174.5Y-111.75
X174.5Y-116.75
X174.5Y-121.75
X174.5Y-126.75
X174.5Y-131.75
X174.5Y-136.75
X175.15Y-64.0
X175.15Y-69.0
X175.15Y-74.0
X175.15Y-79.0
X175.15Y-84.0
X175.15Y-89.0
X175.15Y-94.0
X175.15Y-99.0
X175.15Y-104.0
X175.15Y-109.0
X175.15Y-114.0
X175.15Y-119.0
X175.15Y-124.0
X175.15Y-129.0
X175.15Y-134.0
X175.15Y-139.0
X175.35Y-35.05
X175.775Y-55.65
X175.8Y-61.75
X175.8Y-66.75
X175.8Y-71.75
X175.8Y-76.75
X175.8Y-81.75
X175.8Y-86.75
X175.8Y-91.75
X175.8Y-96.75
X175.8Y-101.75
X175.8Y-106.75
X175.8Y-111.75
X175.8Y-116.75
X175.8Y-121.75
X175.8Y-126.75
X175.8Y-131.75
X175.8Y-136.75
X177.225Y-36.7
X177.225Y-38.0
X177.65Y-33.8
X178.225Y-52.55
X179.5Y-61.75
X179.5Y-66.75
X179.5Y-71.75
X179.5Y-76.75
X179.5Y-81.75
X179.5Y-86.75
X179.5Y-91.75
X179.5Y-96.75
X179.5Y-101.75
X179.5Y-106.75
X179.5Y-111.75
X179.5Y-116.75
X179.5Y-121.75
X179.5Y-126.75
X179.5Y-131.75
X179.5Y-136.75
X180.15Y-64.0
X180.15Y-69.0
X180.15Y-74.0
X180.15Y-79.0
X180.15Y-84.0
X180.15Y-89.0
X180.15Y-94.0
X180.15Y-99.0
X180.15Y-104.0
X180.15Y-109.0
X180.15Y-114.0
X180.15Y-119.0
X180.15Y-124.0
X180.15Y-129.0
X180.15Y-134.0
X180.15Y-139.0
X180.8Y-61.75
X180.8Y-66.75
X180.8Y-71.75
X180.8Y-76.75
X180.8Y-81.75
X180.8Y-86.75
X180.8Y-91.75
X180.8Y-96.75
X180.8Y-101.75
X180.8Y-106.75
X180.8Y-111.75
X180.8Y-116.75
X180.8Y-121.75
X180.8Y-126.75
X180.8Y-131.75
X180.8Y-136.75
X180.85Y-55.75
X180.95Y-23.525
X184.5Y-61.75
X184.5Y-66.75
X184.5Y-71.75
X184.5Y-76.75
X184.5Y-81.75
X184.5Y-86.75
X184.5Y-91.75
X184.5Y-96.75
X184.5Y-101.75
X184.5Y-106.75
X184.5Y-111.75
X184.5Y-116.75
X184.5Y-121.75
X184.5Y-126.75
X184.5Y-131.75
X184.5Y-136.75
X185.15Y-64.0
X185.15Y-69.0
X185.15Y-74.0
X185.15Y-79.0
X185.15Y-84.0
X185.15Y-89.0
X185.15Y-94.0
X185.15Y-99.0
X185.15Y-104.0
X185.15Y-109.0
X185.15Y-114.0
X185.15Y-119.0
X185.15Y-124.0
X185.15Y-129.0
X185.15Y-134.0
X185.15Y-139.0
X185.75Y-37.025
X185.8Y-34.85
X185.8Y-61.75
X185.8Y-66.75
X185.8Y-71.75
X185.8Y-76.75
X185.8Y-81.75
X185.8Y-86.75
X185.8Y-91.75
X185.8Y-96.75
X185.8Y-101.75
X185.8Y-106.75
X185.8Y-111.75
X185.8Y-116.75
X185.8Y-121.75
X185.8Y-126.75
X185.8Y-131.75
X185.8Y-136.75
X185.975Y-55.75
X186.425Y-32.85
X187.975Y-45.075
X188.6Y-32.3
X188.6Y-39.35
X189.5Y-61.75
X189.5Y-66.75
X189.5Y-71.75
X189.5Y-76.75
X189.5Y-81.75
X189.5Y-86.75
X189.5Y-91.75
X189.5Y-96.75
X189.5Y-101.75
X189.5Y-106.75
X189.5Y-111.75
X189.5Y-116.75
X189.5Y-121.75
X189.5Y-126.75
X189.5Y-131.75
X189.5Y-136.75
X190.15Y-64.0
X190.15Y-69.0
X190.15Y-74.0
X190.15Y-79.0
X190.15Y-84.0
X190.15Y-89.0
X190.15Y-94.0
X190.15Y-99.0
X190.15Y-104.0
X190.15Y-109.0
X190.15Y-114.0
X190.15Y-119.0
X190.15Y-124.0
X190.15Y-129.0
X190.15Y-134.0
X190.15Y-139.0
X190.525Y-35.4
X190.575Y-33.725
X190.8Y-61.75
X190.8Y-66.75
X190.8Y-71.75
X190.8Y-76.75
X190.8Y-81.75
X190.8Y-86.75
X190.8Y-91.75
X190.8Y-96.75
X190.8Y-101.75
X190.8Y-106.75
X190.8Y-111.75
X190.8Y-116.75
X190.8Y-121.75
X190.8Y-126.75
X190.8Y-131.75
X190.8Y-136.75
X190.95Y-55.75
X193.837Y-33.137
X194.5Y-61.75
X194.5Y-66.75
X194.5Y-71.75
X194.5Y-76.75
X194.5Y-81.75
X194.5Y-86.75
X194.5Y-91.75
X194.5Y-96.75
X194.5Y-101.75
X194.5Y-106.75
X194.5Y-111.75
X194.5Y-116.75
X194.5Y-121.75
X194.5Y-126.75
X194.5Y-131.75
X194.5Y-136.75
X194.75Y-42.175
X195.15Y-64.0
X195.15Y-69.0
X195.15Y-74.0
X195.15Y-79.0
X195.15Y-84.0
X195.15Y-89.0
X195.15Y-94.0
X195.15Y-99.0
X195.15Y-104.0
X195.15Y-109.0
X195.15Y-114.0
X195.15Y-119.0
X195.15Y-124.0
X195.15Y-129.0
X195.15Y-134.0
X195.15Y-139.0
X195.8Y-61.75
X195.8Y-66.75
X195.8Y-71.75
X195.8Y-76.75
X195.8Y-81.75
X195.8Y-86.75
X195.8Y-91.75
X195.8Y-96.75
X195.8Y-101.75
X195.8Y-106.75
X195.8Y-111.75
X195.8Y-116.75
X195.8Y-121.75
X195.8Y-126.75
X195.8Y-131.75
X195.8Y-136.75
X195.825Y-55.725
X196.025Y-33.3
X196.55Y-31.125
X197.325Y-42.275
X198.575Y-42.475
X199.5Y-61.75
X199.5Y-66.75
X199.5Y-71.75
X199.5Y-76.75
X199.5Y-81.75
X199.5Y-86.75
X199.5Y-91.75
X199.5Y-96.75
X199.5Y-101.75
X199.5Y-106.75
X199.5Y-111.75
X199.5Y-116.75
X199.5Y-121.75
X199.5Y-126.75
X199.5Y-131.75
X199.5Y-136.75
X200.15Y-64.0
X200.15Y-69.0
X200.15Y-74.0
X200.15Y-79.0
X200.15Y-84.0
X200.15Y-89.0
X200.15Y-94.0
X200.15Y-99.0
X200.15Y-104.0
X200.15Y-109.0
X200.15Y-114.0
X200.15Y-119.0
X200.15Y-124.0
X200.15Y-129.0
X200.15Y-134.0
X200.15Y-139.0
X200.8Y-61.75
X200.8Y-66.75
X200.8Y-71.75
X200.8Y-76.75
X200.8Y-81.75
X200.8Y-86.75
X200.8Y-91.75
X200.8Y-96.75
X200.8Y-101.75
X200.8Y-106.75
X200.8Y-111.75
X200.8Y-116.75
X200.8Y-121.75
X200.8Y-126.75
X200.8Y-131.75
X200.8Y-136.75
X200.975Y-55.725
X202.05Y-35.425
X204.0Y-40.4
X204.5Y-61.75
X204.5Y-66.75
X204.5Y-71.75
X204.5Y-76.75
X204.5Y-81.75
X204.5Y-86.75
X204.5Y-91.75
X204.5Y-96.75
X204.5Y-101.75
X204.5Y-106.75
X204.5Y-111.75
X204.5Y-116.75
X204.5Y-121.75
X204.5Y-126.75
X204.5Y-131.75
X204.5Y-136.75
X205.15Y-64.0
X205.15Y-69.0
X205.15Y-74.0
X205.15Y-79.0
X205.15Y-84.0
X205.15Y-89.0
X205.15Y-94.0
X205.15Y-99.0
X205.15Y-104.0
X205.15Y-109.0
X205.15Y-114.0
X205.15Y-119.0
X205.15Y-124.0
X205.15Y-129.0
X205.15Y-134.0
X205.15Y-139.0
X205.65Y-46.975
X205.675Y-44.45
X205.8Y-61.75
X205.8Y-66.75
X205.8Y-71.75
X205.8Y-76.75
X205.8Y-81.75
X205.8Y-86.75
X205.8Y-91.75
X205.8Y-96.75
X205.8Y-101.75
X205.8Y-106.75
X205.8Y-111.75
X205.8Y-116.75
X205.8Y-121.75
X205.8Y-126.75
X205.8Y-131.75
X205.8Y-136.75
X206.0Y-55.75
X206.875Y-40.65
X209.5Y-61.75
X209.5Y-66.75
X209.5Y-71.75
X209.5Y-76.75
X209.5Y-81.75
X209.5Y-86.75
X209.5Y-91.75
X209.5Y-96.75
X209.5Y-101.75
X209.5Y-106.75
X209.5Y-111.75
X209.5Y-116.75
X209.5Y-121.75
X209.5Y-126.75
X209.5Y-131.75
X209.5Y-136.75
X210.15Y-64.0
X210.15Y-69.0
X210.15Y-74.0
X210.15Y-79.0
X210.15Y-84.0
X210.15Y-89.0
X210.15Y-94.0
X210.15Y-99.0
X210.15Y-104.0
X210.15Y-109.0
X210.15Y-114.0
X210.15Y-119.0
X210.15Y-124.0
X210.15Y-129.0
X210.15Y-134.0
X210.15Y-139.0
X210.225Y-41.915
X210.55Y-55.75
X210.64Y-30.475
X210.65Y-29.215
X210.8Y-61.75
X210.8Y-66.75
X210.8Y-71.75
X210.8Y-76.75
X210.8Y-81.75
X210.8Y-86.75
X210.8Y-91.75
X210.8Y-96.75
X210.8Y-101.75
X210.8Y-106.75
X210.8Y-111.75
X210.8Y-116.75
X210.8Y-121.75
X210.8Y-126.75
X210.8Y-131.75
X210.8Y-136.75
X214.45Y-48.775
X214.5Y-61.75
X214.5Y-66.75
X214.5Y-71.75
X214.5Y-76.75
X214.5Y-81.75
X214.5Y-86.75
X214.5Y-91.75
X214.5Y-96.75
X214.5Y-101.75
X214.5Y-106.75
X214.5Y-111.75
X214.5Y-116.75
X214.5Y-121.75
X214.5Y-126.75
X214.5Y-131.75
X214.5Y-136.75
X215.15Y-64.0
X215.15Y-69.0
X215.15Y-74.0
X215.15Y-79.0
X215.15Y-84.0
X215.15Y-89.0
X215.15Y-94.0
X215.15Y-99.0
X215.15Y-104.0
X215.15Y-109.0
X215.15Y-114.0
X215.15Y-119.0
X215.15Y-124.0
X215.15Y-129.0
X215.15Y-134.0
X215.15Y-139.0
X215.8Y-61.75
X215.8Y-66.75
X215.8Y-71.75
X215.8Y-76.75
X215.8Y-81.75
X215.8Y-86.75
X215.8Y-91.75
X215.8Y-96.75
X215.8Y-101.75
X215.8Y-106.75
X215.8Y-111.75
X215.8Y-116.75
X215.8Y-121.75
X215.8Y-126.75
X215.8Y-131.75
X215.8Y-136.75
X219.5Y-61.75
X219.5Y-66.75
X219.5Y-71.75
X219.5Y-76.75
X219.5Y-81.75
X219.5Y-86.75
X219.5Y-91.75
X219.5Y-96.75
X219.5Y-101.75
X219.5Y-106.75
X219.5Y-111.75
X219.5Y-116.75
X219.5Y-121.75
X219.5Y-126.75
X219.5Y-131.75
X219.5Y-136.75
X220.15Y-64.0
X220.15Y-69.0
X220.15Y-74.0
X220.15Y-79.0
X220.15Y-84.0
X220.15Y-89.0
X220.15Y-94.0
X220.15Y-99.0
X220.15Y-104.0
X220.15Y-109.0
X220.15Y-114.0
X220.15Y-119.0
X220.15Y-124.0
X220.15Y-129.0
X220.15Y-134.0
X220.15Y-139.0
X225.65Y-48.8
X227.1Y-82.89
X227.2Y-77.76
X227.23Y-72.77
X227.24Y-67.7
X227.29Y-87.7
X227.33Y-92.74
X227.58Y-127.83
X227.59Y-122.74
X227.59Y-132.86
X227.6Y-64.4
X227.6Y-74.4
X227.6Y-79.4
X227.6Y-84.4
X227.6Y-89.4
X227.6Y-94.4
X227.6Y-97.65
X227.6Y-99.4
X227.6Y-102.78
X227.6Y-104.4
X227.6Y-107.69
X227.6Y-109.4
X227.6Y-114.4
X227.6Y-117.75
X227.6Y-119.4
X227.6Y-124.4
X227.6Y-129.4
X227.6Y-134.4
X227.6Y-137.78
X227.6Y-139.4
X227.61Y-112.75
X227.625Y-69.4
X230.3Y-57.575
X231.88Y-50.48
X232.36Y-43.58
X232.625Y-29.2
X232.65Y-96.325
X232.699Y-46.881
X232.725Y-35.575
X232.725Y-36.825
X232.725Y-38.1
X232.725Y-39.375
X233.301Y-46.279
X234.425Y-35.625
X235.225Y-134.865
X237.25Y-125.9
X238.4Y-35.125
X238.45Y-78.525
X239.875Y-33.025
X239.875Y-34.3
X240.375Y-125.9
X240.725Y-67.1
X240.93Y-120.07
X243.35Y-78.525
X244.0Y-120.062
X244.65Y-44.9
X245.325Y-55.0
X247.45Y-43.775
X247.525Y-55.2
X247.6Y-125.9
X248.175Y-122.775
X248.45Y-67.2
X248.46Y-65.95
X249.25Y-68.7
X249.55Y-47.48
X249.55Y-52.28
X249.875Y-31.575
X250.225Y-42.225
X250.61Y-64.46
X250.61Y-68.71
X250.8Y-46.2
X251.125Y-53.08
X251.325Y-34.825
X251.325Y-37.35
X252.15Y-138.225
X252.77Y-65.62
X253.2Y-130.4
X254.11Y-48.56
X254.11Y-50.12
X254.6Y-88.2
X255.425Y-58.775
T2
X83.1Y-37.2
X83.1Y-38.98
X83.1Y-40.76
X83.1Y-42.54
X83.1Y-44.32
X83.1Y-46.1
X84.4Y-37.2
X84.4Y-38.98
X84.4Y-40.76
X84.4Y-42.54
X84.4Y-44.32
X84.4Y-46.1
X85.7Y-37.2
X85.7Y-38.98
X85.7Y-40.76
X85.7Y-42.54
X85.7Y-44.32
X85.7Y-46.1
X102.225Y-29.8
X102.225Y-31.58
X102.225Y-33.36
X102.225Y-35.14
X102.225Y-36.92
X102.225Y-38.7
X103.525Y-29.8
X103.525Y-31.58
X103.525Y-33.36
X103.525Y-35.14
X103.525Y-36.92
X103.525Y-38.7
X104.825Y-29.8
X104.825Y-31.58
X104.825Y-33.36
X104.825Y-35.14
X104.825Y-36.92
X104.825Y-38.7
X120.125Y-29.775
X120.125Y-31.555
X120.125Y-33.335
X120.125Y-35.115
X120.125Y-36.895
X120.125Y-38.675
X121.425Y-29.775
X121.425Y-31.555
X121.425Y-33.335
X121.425Y-35.115
X121.425Y-36.895
X121.425Y-38.675
X122.725Y-29.775
X122.725Y-31.555
X122.725Y-33.335
X122.725Y-35.115
X122.725Y-36.895
X122.725Y-38.675
X136.65Y-29.725
X136.65Y-31.505
X136.65Y-33.285
X136.65Y-35.065
X136.65Y-36.845
X136.65Y-38.625
X137.95Y-29.725
X137.95Y-31.505
X137.95Y-33.285
X137.95Y-35.065
X137.95Y-36.845
X137.95Y-38.625
X139.25Y-29.725
X139.25Y-31.505
X139.25Y-33.285
X139.25Y-35.065
X139.25Y-36.845
X139.25Y-38.625
X153.925Y-32.975
X153.925Y-34.755
X153.925Y-36.535
X153.925Y-38.315
X153.925Y-40.095
X153.925Y-41.875
X155.225Y-32.975
X155.225Y-34.755
X155.225Y-36.535
X155.225Y-38.315
X155.225Y-40.095
X155.225Y-41.875
X156.525Y-32.975
X156.525Y-34.755
X156.525Y-36.535
X156.525Y-38.315
X156.525Y-40.095
X156.525Y-41.875
X171.625Y-36.475
X171.625Y-38.255
X171.625Y-40.035
X171.625Y-41.815
X171.625Y-43.595
X171.625Y-45.375
X172.925Y-36.475
X172.925Y-38.255
X172.925Y-40.035
X172.925Y-41.815
X172.925Y-43.595
X172.925Y-45.375
X174.225Y-36.475
X174.225Y-38.255
X174.225Y-40.035
X174.225Y-41.815
X174.225Y-43.595
X174.225Y-45.375
X218.55Y-36.235
X218.55Y-37.635
X219.25Y-35.535
X219.25Y-36.935
X219.25Y-38.335
X219.95Y-36.235
X219.95Y-37.635
X220.65Y-35.535
X220.65Y-36.935
X220.65Y-38.335
X221.35Y-36.235
X221.35Y-37.635
X250.61Y-66.037
X250.61Y-67.138
T4
X239.075Y-52.46
X239.075Y-55.0
X239.075Y-57.54
X239.71Y-134.865
X242.25Y-134.865
X244.79Y-134.865
X249.575Y-76.52
X249.575Y-79.06
X249.575Y-81.6
X249.575Y-84.14
X249.575Y-86.68
X251.85Y-113.697
X251.85Y-116.237
X256.85Y-34.81
X256.85Y-37.35
X256.85Y-39.89
T3
X252.82Y-45.56G85X253.92Y-45.56
G05
X252.82Y-54.2G85X253.92Y-54.2
G05
X257.15Y-45.56G85X257.95Y-45.56
G05
X257.15Y-54.2G85X257.95Y-54.2
G05
M30
