%TF.GenerationSoftware,KiCad,Pcbnew,9.0.6*%
%TF.CreationDate,2026-03-07T16:21:01-05:00*%
%TF.ProjectId,Matrix,4d617472-6978-42e6-9b69-6361645f7063,rev?*%
%TF.SameCoordinates,Original*%
%TF.FileFunction,Soldermask,Bot*%
%TF.FilePolarity,Negative*%
%FSLAX46Y46*%
G04 Gerber Fmt 4.6, Leading zero omitted, Abs format (unit mm)*
G04 Created by KiCad (PCBNEW 9.0.6) date 2026-03-07 16:21:01*
%MOMM*%
%LPD*%
G01*
G04 APERTURE LIST*
G04 Aperture macros list*
%AMRoundRect*
0 Rectangle with rounded corners*
0 $1 Rounding radius*
0 $2 $3 $4 $5 $6 $7 $8 $9 X,Y pos of 4 corners*
0 Add a 4 corners polygon primitive as box body*
4,1,4,$2,$3,$4,$5,$6,$7,$8,$9,$2,$3,0*
0 Add four circle primitives for the rounded corners*
1,1,$1+$1,$2,$3*
1,1,$1+$1,$4,$5*
1,1,$1+$1,$6,$7*
1,1,$1+$1,$8,$9*
0 Add four rect primitives between the rounded corners*
20,1,$1+$1,$2,$3,$4,$5,0*
20,1,$1+$1,$4,$5,$6,$7,0*
20,1,$1+$1,$6,$7,$8,$9,0*
20,1,$1+$1,$8,$9,$2,$3,0*%
G04 Aperture macros list end*
%ADD10R,1.700000X1.700000*%
%ADD11C,1.700000*%
%ADD12C,3.000000*%
%ADD13C,0.650000*%
%ADD14O,2.100000X1.000000*%
%ADD15O,1.800000X1.000000*%
%ADD16RoundRect,0.250000X0.350000X0.450000X-0.350000X0.450000X-0.350000X-0.450000X0.350000X-0.450000X0*%
%ADD17RoundRect,0.250000X-0.450000X0.350000X-0.450000X-0.350000X0.450000X-0.350000X0.450000X0.350000X0*%
%ADD18RoundRect,0.237500X-0.287500X-0.237500X0.287500X-0.237500X0.287500X0.237500X-0.287500X0.237500X0*%
%ADD19RoundRect,0.250000X0.475000X-0.337500X0.475000X0.337500X-0.475000X0.337500X-0.475000X-0.337500X0*%
%ADD20RoundRect,0.150000X-0.150000X0.825000X-0.150000X-0.825000X0.150000X-0.825000X0.150000X0.825000X0*%
%ADD21RoundRect,0.236111X0.613889X-1.013889X0.613889X1.013889X-0.613889X1.013889X-0.613889X-1.013889X0*%
%ADD22RoundRect,0.236111X1.013889X0.613889X-1.013889X0.613889X-1.013889X-0.613889X1.013889X-0.613889X0*%
G04 APERTURE END LIST*
D10*
%TO.C,J8*%
X239075000Y-52460000D03*
D11*
X239075000Y-55000000D03*
X239075000Y-57540000D03*
%TD*%
D10*
%TO.C,J2*%
X249575000Y-86680000D03*
D11*
X249575000Y-84140000D03*
X249575000Y-81600000D03*
X249575000Y-79060000D03*
X249575000Y-76520000D03*
%TD*%
D10*
%TO.C,J3*%
X244790000Y-134865000D03*
D11*
X242250000Y-134865000D03*
X239710000Y-134865000D03*
%TD*%
D12*
%TO.C,H3*%
X55900000Y-142100000D03*
%TD*%
D13*
%TO.C,J7*%
X253870000Y-52770000D03*
X253870000Y-46990000D03*
D14*
X253370000Y-54200000D03*
D15*
X257550000Y-54200000D03*
D14*
X253370000Y-45560000D03*
D15*
X257550000Y-45560000D03*
%TD*%
D10*
%TO.C,J4*%
X251850000Y-116237500D03*
D11*
X251850000Y-113697500D03*
%TD*%
D12*
%TO.C,H4*%
X255150000Y-142100000D03*
%TD*%
%TO.C,H1*%
X55900000Y-25350000D03*
%TD*%
D10*
%TO.C,J1*%
X256850000Y-34810000D03*
D11*
X256850000Y-37350000D03*
X256850000Y-39890000D03*
%TD*%
D12*
%TO.C,H2*%
X255150000Y-25350000D03*
%TD*%
D16*
%TO.C,R5*%
X186175000Y-39250000D03*
X184175000Y-39250000D03*
%TD*%
D17*
%TO.C,R4*%
X75200000Y-34600000D03*
X75200000Y-36600000D03*
%TD*%
D18*
%TO.C,D520*%
X252850000Y-80885000D03*
X254600000Y-80885000D03*
%TD*%
%TO.C,D517*%
X252850000Y-86725000D03*
X254600000Y-86725000D03*
%TD*%
D16*
%TO.C,R7*%
X184075000Y-34850000D03*
X182075000Y-34850000D03*
%TD*%
D18*
%TO.C,D518*%
X252850000Y-84775000D03*
X254600000Y-84775000D03*
%TD*%
%TO.C,D519*%
X252850000Y-82825000D03*
X254600000Y-82825000D03*
%TD*%
D16*
%TO.C,R6*%
X184075000Y-37050000D03*
X182075000Y-37050000D03*
%TD*%
D19*
%TO.C,C7*%
X188600000Y-37487500D03*
X188600000Y-35412500D03*
%TD*%
D20*
%TO.C,U4*%
X192215000Y-35425000D03*
X193485000Y-35425000D03*
X194755000Y-35425000D03*
X196025000Y-35425000D03*
X197295000Y-35425000D03*
X198565000Y-35425000D03*
X199835000Y-35425000D03*
X199835000Y-40375000D03*
X198565000Y-40375000D03*
X197295000Y-40375000D03*
X196025000Y-40375000D03*
X194755000Y-40375000D03*
X193485000Y-40375000D03*
X192215000Y-40375000D03*
%TD*%
D16*
%TO.C,R9*%
X186175000Y-41450000D03*
X184175000Y-41450000D03*
%TD*%
D21*
%TO.C,D513*%
X247325000Y-51952500D03*
X247325000Y-47302500D03*
%TD*%
D22*
%TO.C,D535*%
X251850000Y-120062500D03*
X247200000Y-120062500D03*
%TD*%
M02*
